<svg width="275" height="1313" viewBox="0 0 275 1313" fill="none" xmlns="http://www.w3.org/2000/svg">
<path d="M147.739 1206.2C145.341 1204.2 141.146 1202.9 139.348 1203.7C138.649 1204 137.35 1204.1 136.551 1203.8C135.652 1203.5 133.954 1203.3 132.655 1203.3C130.857 1203.2 129.958 1202.8 129.059 1201.7C128.06 1200.5 127.261 1200.1 125.064 1200.1C122.466 1200.1 121.967 1200.4 118.97 1203.4C117.172 1205.2 114.775 1207.1 113.676 1207.5C110.18 1208.9 108.282 1211.1 108.282 1213.7C108.282 1215 108.681 1216.4 109.181 1216.9C109.98 1217.7 109.98 1218.4 109.481 1221.1C109.181 1222.9 109.081 1224.9 109.281 1225.5C109.481 1226.2 109.281 1227.8 108.881 1229.1C108.182 1231.2 108.282 1231.8 109.081 1233.6C109.58 1234.7 110.879 1236.2 111.878 1236.7C113.077 1237.4 114.076 1238.8 114.775 1240.8C115.474 1242.8 116.373 1244.1 117.472 1244.6C119.969 1245.9 133.554 1245.8 137.25 1244.5C138.849 1244 140.746 1243.5 141.546 1243.6C143.543 1243.7 145.341 1242.6 148.438 1239.2C150.436 1237 151.135 1235.8 151.135 1234.3C151.135 1233.2 151.535 1230.3 151.934 1228C152.434 1225.6 152.633 1223.1 152.434 1222.4C152.234 1221.7 152.434 1220.9 152.733 1220.7C153.133 1220.5 153.433 1218.7 153.433 1216.7C153.233 1212.9 151.335 1209.2 147.739 1206.2ZM111.878 1212.9C112.278 1212.4 114.076 1211.3 115.973 1210.4C117.871 1209.5 119.969 1207.9 120.768 1206.9C122.267 1204.9 125.163 1203.1 125.763 1203.7C125.963 1203.9 126.162 1204.6 126.162 1205.2C126.162 1205.9 126.762 1206.5 127.661 1206.7C129.858 1207.2 128.959 1208.2 126.462 1208.1C123.365 1207.9 118.77 1211.8 118.77 1214.6C118.77 1216.7 117.871 1218.1 116.473 1218.1C116.073 1218.1 115.674 1217.4 115.674 1216.6C115.674 1214.9 113.776 1213.5 112.777 1214.5C111.678 1215.4 110.979 1213.9 111.878 1212.9ZM121.667 1242C119.17 1242.1 118.87 1241.8 117.472 1238.1C116.873 1236.5 115.674 1235.1 114.275 1234.1C111.678 1232.4 111.179 1231 113.476 1231.4C114.275 1231.6 115.474 1231.4 116.073 1231.1C118.271 1229.9 119.37 1231.2 118.97 1234.5C118.571 1237.9 120.269 1241.2 122.566 1241.6C123.465 1241.9 123.166 1242 121.667 1242ZM146.24 1236.3C145.441 1236.9 144.542 1237.8 144.343 1238.4C144.143 1239 143.643 1239.7 143.144 1239.9C142.445 1240.2 142.345 1239.8 142.544 1238.3C142.744 1237.2 142.345 1235.4 141.745 1234.2C140.746 1232.3 140.347 1232 138.049 1231.9C135.752 1231.7 135.452 1231.5 135.452 1230.2C135.452 1229.1 135.952 1228.5 137.45 1227.9C138.549 1227.4 139.947 1226.3 140.547 1225.4C141.745 1223.5 142.345 1223.4 143.743 1224.7C144.842 1225.8 144.942 1226.6 144.143 1227.1C142.744 1228 143.543 1231.3 145.741 1233.3L147.939 1235.3L146.24 1236.3ZM147.739 1229.8C147.239 1230.6 147.139 1230.6 147.139 1229.8C147.139 1229.3 147.439 1228.3 147.739 1227.7L148.238 1226.5V1227.7C148.238 1228.3 148.038 1229.3 147.739 1229.8ZM148.338 1225.8C148.039 1226 147.739 1225.7 147.739 1225C147.739 1223.3 146.141 1221.3 144.243 1220.7C141.845 1219.9 138.649 1220.9 137.75 1222.7C137.35 1223.5 136.751 1224.2 136.351 1224.2C135.952 1224.2 134.853 1224.8 133.954 1225.5C131.856 1227.1 131.257 1230.3 132.555 1232.7C133.554 1234.7 134.653 1235.3 136.951 1235.3C138.849 1235.3 139.248 1236 138.749 1238.6C138.449 1240.4 137.95 1240.8 136.052 1241.4C134.753 1241.8 132.456 1242.1 130.857 1242.1C128.36 1242.1 127.861 1241.9 127.361 1240.5C127.061 1239.6 125.863 1238.6 124.564 1238C122.466 1237.1 122.367 1237.1 122.566 1233.7C122.666 1230.6 122.566 1230.1 120.868 1228.7C119.37 1227.4 118.571 1227.2 116.073 1227.4C113.376 1227.7 113.077 1227.6 112.677 1226.2C112.477 1225.4 112.477 1223.8 112.677 1222.6C113.077 1220.6 113.177 1220.5 114.975 1221.1C118.471 1222.3 122.367 1219.1 122.367 1215C122.367 1213.6 125.263 1211.4 126.862 1211.7C129.059 1212 131.656 1210.5 132.056 1208.6C132.356 1207.1 132.755 1206.8 134.154 1206.8C135.452 1206.8 136.151 1207.2 136.851 1208.6C137.45 1209.7 138.649 1210.7 139.947 1211.1C142.545 1212 145.242 1215 145.242 1217.1C145.242 1218 145.941 1219.4 147.139 1220.4C148.938 1222.3 149.537 1225 148.338 1225.8ZM148.338 1215.5C147.539 1212.3 145.341 1209.7 142.445 1208.5C141.246 1208 140.247 1207.5 140.247 1207.3C140.247 1206.6 142.545 1207.1 144.442 1208.2C146.84 1209.6 149.337 1213.3 149.936 1216.1C150.536 1219.1 149.237 1218.5 148.338 1215.5Z" fill="#BCBCBC"/>
<path d="M114.375 1281.5C112.078 1280.7 105.585 1281.3 103.387 1282.4C87.8042 1290.4 92.7988 1313 110.08 1313C115.274 1313 119.869 1310.8 122.866 1306.9C129.659 1298 125.363 1285.1 114.375 1281.5ZM97.9931 1295C98.4926 1292.1 100.091 1289.7 102.588 1287.7C104.985 1285.8 109.98 1284.3 109.98 1285.5C109.98 1287.4 103.287 1294.1 99.3916 1296.1L97.6934 1297L97.9931 1295ZM121.068 1302.3C119.669 1306 113.576 1309.7 109.78 1309.2C108.582 1309 108.781 1308.6 111.878 1305.4C113.776 1303.4 116.673 1301 118.371 1300C120.069 1299 121.667 1298.2 121.967 1298.2C122.466 1298.2 122.167 1299.4 121.068 1302.3ZM118.471 1296.6C114.675 1298.5 108.781 1303.5 106.883 1306.6L105.585 1308.8L103.687 1307.7C101.889 1306.7 98.2928 1301.8 98.2928 1300.5C98.2928 1300.1 99.4915 1299.3 100.89 1298.6C103.787 1297.3 110.38 1291 112.178 1287.9C112.777 1286.8 113.776 1286 114.375 1286C116.673 1286 121.667 1291.7 121.667 1294.2C121.767 1294.6 120.269 1295.7 118.471 1296.6Z" fill="#BCBCBC"/>
<path d="M109.381 821.1C109.081 822.9 108.981 824.9 109.181 825.6C109.381 826.3 109.181 827.9 108.781 829.2C108.082 831.2 108.182 831.9 108.981 833.7C109.481 834.8 110.779 836.3 111.778 836.8C112.977 837.5 113.976 838.9 114.675 840.9C115.374 842.9 116.273 844.2 117.372 844.8C119.869 846.1 133.454 846 137.15 844.7C138.749 844.2 140.647 843.7 141.446 843.8C143.444 843.9 145.242 842.8 148.338 839.4C150.336 837.2 151.035 836 151.035 834.5C151.035 833.4 151.435 830.5 151.834 828.2C152.334 825.8 152.534 823.3 152.334 822.6C152.134 821.9 152.334 821.1 152.633 820.9C153.033 820.7 153.333 818.9 153.333 816.9C153.333 812.9 151.435 809.2 147.839 806.2C145.441 804.2 141.246 802.9 139.448 803.7C138.749 804 137.45 804.1 136.651 803.8C135.752 803.6 134.054 803.3 132.755 803.3C130.957 803.3 130.058 802.8 129.159 801.7C128.16 800.5 127.361 800.2 125.163 800.2C122.566 800.2 122.067 800.5 119.07 803.5C117.272 805.3 114.875 807.2 113.776 807.6C110.28 809 108.382 811.2 108.382 813.8C108.382 815.1 108.781 816.5 109.281 817C109.78 817.7 109.88 818.5 109.381 821.1ZM121.667 841.9C119.17 842 118.87 841.7 117.472 838C116.873 836.4 115.674 835 114.275 834C111.678 832.3 111.179 830.9 113.476 831.3C114.275 831.5 115.474 831.3 116.073 831C118.271 829.8 119.37 831.2 118.97 834.4C118.571 837.8 120.269 841.1 122.566 841.5C123.465 841.8 123.166 841.9 121.667 841.9ZM146.24 836.2C145.441 836.8 144.542 837.7 144.343 838.3C144.143 838.9 143.643 839.6 143.144 839.7C142.445 840 142.345 839.6 142.544 838.1C142.744 837 142.345 835.2 141.745 834C140.746 832.1 140.347 831.8 138.049 831.7C135.752 831.5 135.452 831.3 135.452 830C135.452 828.9 135.952 828.3 137.45 827.7C138.549 827.2 139.947 826.1 140.547 825.2C141.745 823.3 142.345 823.2 143.743 824.5C144.842 825.6 144.942 826.4 144.143 826.9C142.744 827.8 143.543 831.1 145.741 833.1L147.939 835.2L146.24 836.2ZM147.739 829.7C147.239 830.5 147.139 830.5 147.139 829.7C147.139 829.2 147.439 828.2 147.739 827.5L148.238 826.3V827.5C148.238 828.2 148.038 829.2 147.739 829.7ZM144.442 808.1C146.84 809.5 149.337 813.2 149.936 816C150.536 819 149.237 818.5 148.438 815.4C147.639 812.2 145.441 809.6 142.544 808.4C141.346 807.9 140.347 807.4 140.347 807.2C140.247 806.5 142.644 807 144.442 808.1ZM132.056 808.6C132.356 807.2 132.755 806.8 134.154 806.8C135.452 806.8 136.151 807.3 136.851 808.6C137.45 809.7 138.649 810.7 139.947 811.1C142.545 812 145.242 815 145.242 817.1C145.242 818 145.941 819.3 147.139 820.4C148.938 822.1 149.637 824.9 148.338 825.6C148.039 825.8 147.739 825.5 147.739 824.8C147.739 823.1 146.141 821.1 144.243 820.5C141.845 819.7 138.649 820.7 137.75 822.5C137.35 823.3 136.751 824 136.351 824C135.952 824 134.853 824.6 133.954 825.3C131.856 826.9 131.257 830.1 132.555 832.5C133.554 834.5 134.653 835.1 136.951 835.1C138.849 835.1 139.248 835.8 138.749 838.4C138.449 840.2 137.95 840.6 136.052 841.2C134.753 841.6 132.456 841.9 130.857 841.9C128.36 841.9 127.861 841.7 127.361 840.3C127.061 839.4 125.863 838.3 124.564 837.8C122.466 836.9 122.367 836.9 122.566 833.5C122.666 830.4 122.566 829.9 120.868 828.5C119.37 827.2 118.571 827 116.073 827.2C113.376 827.5 113.077 827.4 112.677 826C112.477 825.2 112.477 823.6 112.677 822.4C113.077 820.4 113.177 820.3 114.975 820.9C118.471 822.1 122.367 818.9 122.367 814.8C122.367 813.4 125.263 811.2 126.862 811.5C129.059 812.1 131.656 810.5 132.056 808.6ZM111.878 812.8C112.278 812.3 114.076 811.2 115.973 810.3C117.871 809.4 119.969 807.8 120.768 806.8C122.267 804.8 125.163 803 125.763 803.7C125.963 803.9 126.162 804.6 126.162 805.2C126.162 805.9 126.762 806.5 127.661 806.7C129.858 807.2 128.959 808.2 126.462 808.1C123.365 807.9 118.77 811.8 118.77 814.6C118.77 816.7 117.871 818.1 116.473 818.1C116.073 818.1 115.674 817.4 115.674 816.6C115.674 814.9 113.776 813.5 112.777 814.5C111.678 815.3 110.979 813.8 111.878 812.8Z" fill="#BCBCBC"/>
<path d="M257.219 987.3C255.421 988.5 253.424 991.8 253.424 993.6C253.424 999.9 261.715 1001.7 266.409 996.4C269.606 992.8 268.607 987.8 264.511 986.1C263.113 985.5 258.818 986.2 257.219 987.3Z" fill="#BCBCBC"/>
<path d="M245.332 995.5C250.826 995.5 254.323 987.8 250.627 984.1C248.129 981.6 243.135 982.5 240.737 985.8C239.738 987.2 239.439 990.9 240.138 992.7C240.637 993.9 243.534 995.5 245.332 995.5Z" fill="#BCBCBC"/>
<path d="M255.022 1003.1C254.023 1001.3 251.226 999.2 248.529 998.2C245.532 997.1 238.44 997.1 235.843 998.2C234.744 998.7 233.146 999.9 232.446 1000.8C230.549 1003.2 231.048 1006.9 234.145 1013.5C238.24 1022.2 242.436 1024.5 247.73 1020.9C254.023 1016.6 257.719 1007.8 255.022 1003.1Z" fill="#BCBCBC"/>
<path d="M34.4624 940.4C37.1595 940 38.6578 938.6 39.8565 935.4C40.9553 932.4 40.4559 929.7 38.1584 926.8C37.1595 925.5 36.3603 925.2 34.1627 925.2C30.8663 925.2 28.7686 926.9 27.7697 930.5C26.4711 935.7 30.1671 941.1 34.4624 940.4Z" fill="#BCBCBC"/>
<path d="M5.69379 942.1C3.09662 944.9 3.69597 949.3 6.89248 952C10.089 954.7 13.9847 954 15.8827 950.4C17.7806 946.8 15.4831 941.8 11.5874 940.8C8.8903 940.1 7.19215 940.5 5.69379 942.1Z" fill="#BCBCBC"/>
<path d="M233.246 796.4C235.543 796.4 236.242 796.1 237.541 794.5C240.438 791.1 239.139 784.9 235.044 782.2C231.048 779.6 225.954 781.4 225.154 785.7C224.155 791 228.251 796.4 233.246 796.4Z" fill="#BCBCBC"/>
<path d="M48.2474 948.8C51.7436 945.6 51.344 939.2 47.3484 937.6C42.8533 935.7 37.2593 941 38.5579 946C39.7566 950.4 44.7512 951.9 48.2474 948.8Z" fill="#BCBCBC"/>
<path d="M15.7828 940.7C18.3799 942.4 20.7773 942.2 22.875 940.1C26.1715 936.8 26.0716 932 22.5754 928.5C19.7784 925.8 16.7817 925.7 14.1845 928.3C12.5863 929.8 12.3865 930.6 12.3865 933.4C12.3865 937.2 13.2855 939 15.7828 940.7Z" fill="#BCBCBC"/>
<path d="M18.4798 965.1C20.7773 966.6 27.7697 966.9 33.3636 965.7C39.2572 964.4 41.4548 962.6 41.4548 958.7C41.4548 953.7 37.9586 947.7 33.4635 944.9C28.7686 941.9 24.4733 942.7 20.4777 947.2C15.3832 952.9 14.2844 962.4 18.4798 965.1Z" fill="#BCBCBC"/>
<path d="M110.08 912.9C115.274 912.9 119.869 910.7 122.866 906.8C129.758 897.8 125.463 885 114.375 881.3C112.078 880.5 105.585 881.1 103.387 882.2C87.8042 890.3 92.6989 912.9 110.08 912.9ZM121.068 902.2C119.669 905.9 113.576 909.6 109.78 909.1C108.582 908.9 108.781 908.5 111.878 905.3C113.776 903.3 116.673 900.9 118.371 899.9C120.069 898.9 121.667 898.1 121.967 898.1C122.466 898.1 122.167 899.3 121.068 902.2ZM112.178 887.7C112.777 886.6 113.776 885.8 114.375 885.8C116.673 885.8 121.667 891.5 121.667 894C121.667 894.5 120.169 895.6 118.471 896.5C114.675 898.4 108.781 903.4 106.883 906.5L105.585 908.7L103.687 907.6C101.889 906.6 98.2928 901.7 98.2928 900.4C98.2928 900 99.4915 899.2 100.89 898.5C103.787 897.1 110.38 890.8 112.178 887.7ZM109.98 885.4C109.98 887.3 103.287 894 99.3916 896L97.6934 896.9L98.093 894.9C98.5924 892 100.191 889.6 102.688 887.6C104.985 885.7 109.98 884.2 109.98 885.4Z" fill="#BCBCBC"/>
<path d="M271.004 1000.4C268.807 999.5 266.809 999.7 264.012 1001.1C261.215 1002.5 259.517 1004.8 259.517 1007.5C259.517 1009.8 262.514 1012.8 265.211 1013.2C269.706 1013.9 275 1009.9 275 1005.9C275 1004 272.902 1001.2 271.004 1000.4Z" fill="#BCBCBC"/>
<path d="M214.166 786.8C208.972 788.9 208.772 796.7 213.767 800.9C215.964 802.8 217.962 803 220.559 801.7C222.657 800.6 223.756 798.4 223.756 795.1C223.756 790.8 221.359 787.3 217.862 786.4C217.163 786.2 215.265 786.3 214.166 786.8Z" fill="#BCBCBC"/>
<path d="M207.374 791.2C210.171 788.4 210.071 783.6 207.274 780.8C204.976 778.5 201.38 778.6 198.983 780.9C196.586 783.3 196.086 786.3 197.684 789.5C199.782 793.6 204.177 794.4 207.374 791.2Z" fill="#BCBCBC"/>
<path d="M263.013 1014.9C260.516 1013.8 259.916 1013.8 257.419 1014.9C251.526 1017.4 252.225 1024.9 258.518 1026.1C266.509 1027.5 270.205 1018 263.013 1014.9Z" fill="#BCBCBC"/>
<path d="M15.7828 540.6C18.3799 542.3 20.7773 542.1 22.875 540C26.1715 536.7 26.0716 531.9 22.5754 528.4C19.7784 525.7 16.7817 525.6 14.1845 528.2C12.5863 529.7 12.3865 530.5 12.3865 533.3C12.3865 537.1 13.2855 538.9 15.7828 540.6Z" fill="#BCBCBC"/>
<path d="M240.937 768.4C239.539 767.2 238.34 766.8 236.242 766.8C232.546 766.8 230.149 768.8 230.449 772.4C230.848 777.1 233.345 778.8 235.243 779.6C237.741 780.7 240.538 780.4 241.936 778.5C242.635 777.6 242.935 777.3 243.634 775.6C244.633 773.3 243.035 770.1 240.937 768.4Z" fill="#BCBCBC"/>
<path d="M5.69379 542C3.09662 544.8 3.69597 549.2 6.89248 551.9C10.089 554.6 13.9847 553.9 15.8827 550.3C17.7806 546.7 15.4831 541.7 11.5874 540.7C8.8903 540 7.19215 540.4 5.69379 542Z" fill="#BCBCBC"/>
<path d="M226.753 776.1C225.254 779.4 222.357 781.8 218.861 782.5C217.962 782.7 217.163 782.7 216.464 782.6C213.767 782.1 207.574 778.4 206.375 777.1C206.175 776.9 205.676 776.3 205.276 776C203.778 774.3 202.679 772.3 201.98 769.9C200.681 765.5 204.377 762 213.667 758.9C219.66 756.9 221.958 756.7 224.255 757.8C227.452 759.4 228.351 761.6 228.351 767.4C228.351 771.1 228.051 773.5 227.252 775.1L226.753 776.1Z" fill="#BCBCBC"/>
<path d="M271.004 600.3C268.807 599.4 266.809 599.6 264.012 601C261.215 602.4 259.517 604.7 259.517 607.4C259.517 609.7 262.514 612.7 265.211 613.1C269.706 613.8 275 609.8 275 605.7C275 603.9 272.902 601.1 271.004 600.3Z" fill="#BCBCBC"/>
<path d="M48.2474 548.7C51.7436 545.5 51.344 539.1 47.3484 537.5C42.8533 535.6 37.2593 540.9 38.5579 545.9C39.7566 550.3 44.7512 551.8 48.2474 548.7Z" fill="#BCBCBC"/>
<path d="M153.233 416.7C153.233 412.7 151.335 409 147.739 406C145.341 404 141.146 402.7 139.348 403.5C138.649 403.8 137.35 403.9 136.551 403.6C135.652 403.4 133.954 403.1 132.655 403.1C130.857 403.1 129.958 402.6 129.059 401.5C128.06 400.3 127.261 400 125.064 400C122.466 400 121.967 400.3 118.97 403.3C117.172 405.1 114.775 407 113.676 407.4C110.18 408.8 108.282 411 108.282 413.6C108.282 414.9 108.681 416.3 109.181 416.8C109.98 417.5 109.98 418.3 109.481 421C109.181 422.8 109.081 424.8 109.281 425.5C109.481 426.2 109.281 427.8 108.881 429.1C108.182 431.2 108.282 431.8 109.081 433.6C109.58 434.7 110.879 436.2 111.878 436.7C113.077 437.4 114.076 438.8 114.775 440.8C115.474 442.8 116.373 444.1 117.472 444.7C119.969 446 133.554 445.9 137.25 444.6C138.849 444.1 140.746 443.6 141.546 443.7C143.543 443.8 145.341 442.7 148.438 439.3C150.436 437.1 151.135 435.9 151.135 434.4C151.135 433.3 151.535 430.4 151.934 428.1C152.434 425.7 152.633 423.2 152.434 422.5C152.234 421.8 152.434 421 152.733 420.8C152.933 420.5 153.233 418.7 153.233 416.7ZM111.878 412.7C112.278 412.2 114.076 411.1 115.973 410.2C117.871 409.3 119.969 407.7 120.768 406.7C122.267 404.7 125.163 402.9 125.763 403.6C125.963 403.8 126.162 404.5 126.162 405.1C126.162 405.8 126.762 406.4 127.661 406.6C129.858 407.1 128.959 408.1 126.462 408C123.365 407.8 118.77 411.7 118.77 414.5C118.77 416.6 117.871 418 116.473 418C116.073 418 115.674 417.3 115.674 416.5C115.674 414.8 113.776 413.4 112.777 414.4C111.678 415.2 110.979 413.7 111.878 412.7ZM121.667 441.8C119.17 441.9 118.87 441.6 117.472 437.9C116.873 436.3 115.674 434.9 114.275 433.9C111.678 432.2 111.179 430.8 113.476 431.2C114.275 431.4 115.474 431.2 116.073 430.9C118.271 429.7 119.37 431.1 118.97 434.3C118.571 437.7 120.269 441 122.566 441.4C123.465 441.7 123.166 441.8 121.667 441.8ZM146.24 436.1C145.441 436.7 144.542 437.6 144.343 438.2C144.143 438.8 143.643 439.5 143.144 439.6C142.445 439.9 142.345 439.5 142.544 438C142.744 436.9 142.345 435.1 141.745 433.9C140.746 432 140.347 431.7 138.049 431.6C135.752 431.4 135.452 431.2 135.452 429.9C135.452 428.8 135.952 428.2 137.45 427.6C138.549 427.1 139.947 426 140.547 425.1C141.745 423.2 142.345 423.1 143.743 424.4C144.842 425.5 144.942 426.3 144.143 426.8C142.744 427.7 143.543 431 145.741 433L147.939 435.1L146.24 436.1ZM147.739 429.6C147.239 430.4 147.139 430.4 147.139 429.6C147.139 429.1 147.439 428.1 147.739 427.4L148.238 426.2V427.4C148.238 428.1 148.038 429.1 147.739 429.6ZM148.338 425.6C148.039 425.8 147.739 425.5 147.739 424.8C147.739 423.1 146.141 421.1 144.243 420.5C141.845 419.7 138.649 420.7 137.75 422.5C137.35 423.3 136.751 424 136.351 424C135.952 424 134.853 424.6 133.954 425.3C131.856 426.9 131.257 430.1 132.555 432.5C133.554 434.5 134.653 435.1 136.951 435.1C138.849 435.1 139.248 435.8 138.749 438.4C138.449 440.2 137.95 440.6 136.052 441.2C134.753 441.6 132.456 441.9 130.857 441.9C128.36 441.9 127.861 441.7 127.361 440.3C127.061 439.4 125.863 438.3 124.564 437.8C122.466 436.9 122.367 436.9 122.566 433.5C122.666 430.4 122.566 429.9 120.868 428.5C119.37 427.2 118.571 427 116.073 427.2C113.376 427.5 113.077 427.4 112.677 426C112.477 425.2 112.477 423.6 112.677 422.4C113.077 420.4 113.177 420.3 114.975 420.9C118.471 422.1 122.367 418.9 122.367 414.8C122.367 413.4 125.263 411.2 126.862 411.5C129.059 411.8 131.656 410.3 132.056 408.4C132.356 407 132.755 406.6 134.154 406.6C135.452 406.6 136.151 407 136.851 408.4C137.45 409.5 138.649 410.5 139.947 410.9C142.545 411.8 145.242 414.8 145.242 416.9C145.242 417.8 145.941 419.1 147.139 420.2C148.938 422.1 149.537 424.8 148.338 425.6ZM148.338 415.3C147.539 412.1 145.341 409.5 142.445 408.3C141.246 407.8 140.247 407.3 140.247 407.1C140.247 406.4 142.545 406.9 144.442 408C146.84 409.4 149.337 413.1 149.936 415.9C150.536 418.9 149.237 418.3 148.338 415.3Z" fill="#BCBCBC"/>
<path d="M266.409 596.2C269.606 592.6 268.607 587.6 264.511 585.9C263.113 585.3 258.818 586.1 257.219 587.1C255.421 588.3 253.424 591.6 253.424 593.4C253.324 599.8 261.715 601.5 266.409 596.2Z" fill="#BCBCBC"/>
<path d="M240.737 585.7C239.738 587.1 239.439 590.8 240.138 592.6C240.637 593.8 243.534 595.4 245.332 595.4C250.826 595.4 254.323 587.7 250.627 584C248.129 581.5 243.035 582.3 240.737 585.7Z" fill="#BCBCBC"/>
<path d="M255.022 603C254.023 601.2 251.226 599.1 248.529 598.1C245.532 597 238.44 597 235.843 598.1C234.744 598.6 233.146 599.7 232.446 600.7C230.549 603.1 231.048 606.8 234.145 613.4C238.24 622.1 242.436 624.4 247.73 620.8C254.023 616.5 257.719 607.7 255.022 603Z" fill="#BCBCBC"/>
<path d="M263.013 614.8C260.516 613.7 259.916 613.7 257.419 614.8C251.526 617.3 252.225 624.8 258.518 626C266.509 627.4 270.205 617.9 263.013 614.8Z" fill="#BCBCBC"/>
<path d="M18.4798 565C20.7773 566.5 27.7697 566.8 33.3636 565.6C39.2572 564.3 41.4548 562.5 41.4548 558.6C41.4548 553.6 37.9586 547.6 33.4635 544.8C28.7686 541.8 24.4733 542.6 20.4777 547.1C15.3832 552.8 14.2844 562.3 18.4798 565Z" fill="#BCBCBC"/>
<path d="M147.839 720.6C145.142 719.9 140.746 720.3 137.95 721.5C134.753 722.8 130.558 727.2 129.259 730.3C127.861 734.1 127.96 739.2 129.459 742.7C133.954 752.9 147.639 755.5 155.53 747.6C164.521 738.8 160.125 723.6 147.839 720.6ZM138.948 725.5C143.244 723.3 148.738 724 152.234 727.1C153.133 727.9 153.133 728.2 152.534 728.6C150.636 729.8 138.649 728.8 136.951 727.2C136.651 727 137.55 726.2 138.948 725.5ZM149.537 747.1C145.441 749.3 138.948 748.2 135.852 744.7C134.753 743.5 134.753 743.5 136.151 743.1C139.148 742.3 147.04 743.5 150.336 745.2C151.635 746 151.535 746 149.537 747.1ZM154.931 742.3L153.932 743.9L151.435 742.7C147.739 740.9 143.344 740.2 137.85 740.4C134.154 740.6 132.855 740.4 132.555 739.8C131.956 738.1 132.256 733.4 133.155 731.7C134.254 729.7 134.553 729.6 138.049 730.9C141.446 732.2 149.237 732.7 152.234 731.8C154.332 731.2 154.831 731.3 155.53 732.2C156.729 733.6 156.329 740.2 154.931 742.3Z" fill="#BCBCBC"/>
<path d="M97.2939 670.3C95.296 669.3 91.7 669.1 88.3037 669.7C85.4068 670.3 79.713 676 77.3157 680.8C74.8184 685.8 73.2201 691.5 71.0225 704C69.0247 715.3 66.1279 725.3 64.3298 727.1C63.1311 728.3 57.4373 738 57.4373 738.9C57.4373 739.2 55.1398 739.4 52.0432 739.4C47.4482 739.3 46.2495 739.5 44.2517 740.7C42.9531 741.5 41.0552 742.1 40.0563 742.1C37.2594 742.1 34.862 743.7 32.1649 747.2C29.2681 751.1 28.2692 753 26.571 758C25.3723 761.5 25.3723 762 26.1715 763.8C26.6709 764.9 27.2703 767.4 27.47 769.4C27.6698 771.4 28.2692 774 28.8685 775.1C29.0683 775.6 29.2681 776 29.4679 776.2C29.5677 776.3 29.5677 776.3 29.6676 776.4L32.065 779.4C36.3603 783.5 46.9488 788.3 51.9433 788.2C54.5405 788.2 59.2354 786.2 59.8347 784.8C60.0345 784.3 61.433 783.3 63.0312 782.6C66.1279 781.2 67.826 779.9 68.8249 778.2C69.1246 777.7 70.2234 776.2 71.0225 774.7C72.8206 771.5 74.9183 763.8 74.9183 760.4C74.9183 758.6 74.4188 756.7 73.4199 755C72.6208 753.6 71.6219 751.4 71.2223 750.2C70.8227 749 69.8238 747.1 68.9248 746.1C67.5263 744.4 67.4264 744.1 68.2256 743.2C69.4243 741.8 73.6197 734.1 73.6197 733.3C73.6197 733 77.6153 728.7 82.51 723.8C91.8997 714.5 95.8954 709.2 100.191 700.2C106.983 686.2 105.884 674.8 97.2939 670.3ZM53.2419 745C54.041 744.5 55.3396 744 56.2387 744C58.0367 744 64.9292 747 64.9292 747.8C64.9292 748.1 63.9303 747.8 62.6317 747.2C59.1355 745.4 56.838 745.1 54.8402 746.2C52.4428 747.3 51.2441 746.4 53.2419 745ZM56.9379 752.2C56.5383 750.9 56.2387 749.7 56.2387 749.4C56.2387 748.4 58.7359 749 59.6349 750.3C61.0334 752.3 60.8336 756.7 59.0356 761.9C56.4384 769.6 52.9422 774.3 48.9466 775.4C45.5503 776.4 45.3505 774.4 48.547 771.6C51.344 769.1 55.2397 762.5 56.5383 758C57.3375 755.3 57.4373 754 56.9379 752.2ZM47.3484 743.3C49.2463 742.6 49.6458 742.7 48.8467 743.6C48.4472 744.1 47.648 744.3 47.1486 744.1C46.2495 743.8 46.2495 743.7 47.3484 743.3ZM36.9597 747C39.0574 745.3 40.9553 745.5 46.9488 748C49.8456 749.2 52.243 750.1 52.3429 750.1C52.6426 750.1 53.9412 754.5 53.6415 754.8C53.4417 755 51.9433 754.4 50.3451 753.6C47.9477 752.4 41.7544 750.1 36.5601 748.4C35.761 748.2 35.8609 747.9 36.9597 747ZM32.2648 753.5C32.7643 752.5 33.4635 752 34.5623 752.1C36.66 752.2 45.1507 755.1 49.2463 757.2C52.3429 758.8 52.4428 758.9 51.8434 760.7C51.0443 762.9 50.5449 763 47.2485 761.1C45.85 760.3 41.7544 758.6 38.1584 757.3C31.7653 755 31.6655 754.9 32.2648 753.5ZM31.0661 769.1C30.8663 768.5 30.9662 767.7 31.0661 767.3C31.2659 766.9 31.3658 767.4 31.3658 768.4C31.3658 769.3 31.2659 769.7 31.0661 769.1ZM29.4679 760.1C29.6676 759.3 30.267 758.8 31.166 758.8C32.964 758.8 44.3516 763.2 46.8489 764.7L48.8467 766L45.85 769.5L40.356 766.9C37.3592 765.5 33.6633 764 32.2648 763.6C29.5677 762.8 28.9684 762.1 29.4679 760.1ZM36.3603 778.3C35.6611 777.4 35.1616 775.4 35.1616 775.4C34.2626 772.8 34.6622 768.9 35.8609 768.9C36.4602 768.9 36.7599 769.7 36.7599 771.5C36.8598 773.4 37.0596 775.3 37.4591 777.1C37.6589 778.1 38.1584 778.9 38.2583 779.1C38.5579 780.1 37.1595 779.4 36.3603 778.3ZM52.1431 784.7C46.749 784.7 42.9531 782.7 40.9553 779C40.5558 778.2 40.0563 776.5 40.0563 774.2C40.0563 772.5 40.2561 771.1 40.5558 771.1C41.7544 771.1 42.4537 772.3 42.6535 774.5C42.6535 774.5 43.6524 778.1 44.2517 779.1C45.3505 780.8 49.1464 782.5 50.6447 782.9C54.5405 784 55.1398 784.7 52.1431 784.7ZM55.04 778.6C53.5416 779.5 52.3429 779.8 51.5438 779.5C50.445 779.1 50.445 779 51.9433 778.2C52.6426 777.8 54.2408 776.5 55.4395 775.3C59.5351 771.3 63.4308 762.5 64.13 755.9C64.3298 753.8 64.7294 752 64.9292 752C65.2288 752 65.7283 752.9 66.1279 754.1C67.5263 758.3 64.4297 769.1 60.2343 774.6C60.1344 774.6 55.939 778.1 55.04 778.6ZM69.8238 759.1C69.8238 757.3 70.0236 756.9 70.4232 757.6C72.1213 760.2 70.1235 770 67.0269 774.5C66.1279 775.8 63.6306 778.4 62.7316 778.9C59.5351 780.8 58.7359 780.8 61.0334 778.9L63.231 776.6C63.6306 776.2 64.13 775.5 64.7294 774.5C66.927 770.5 69.8238 762 69.8238 759.1ZM99.5914 692.5C97.8932 697.7 93.5979 705.9 90.1017 710.6C87.2049 714.5 74.1191 728.1 73.7196 727.7C73.5198 727.5 75.8173 724.8 78.814 721.7C89.4025 710.5 95.6956 700.7 98.2928 691.6C100.69 683 99.5914 677.6 94.9964 675.4C91.7 673.7 89.1028 674.4 86.1061 677.7C81.1115 683.1 79.3135 688.3 75.8173 706.7C74.219 715.4 73.0203 719.6 70.623 725.1C68.725 729.4 68.5253 728.3 70.2234 723.3C71.7218 718.8 73.2201 712.2 75.8173 698.4C78.2147 686 82.0105 677.9 87.2049 674.4C91.4003 671.6 97.6934 673.1 99.9909 677.4C101.489 680.5 101.389 687 99.5914 692.5ZM77.6153 714.8C78.5144 711.6 79.8129 704.4 80.9117 697.4C82.0105 690.7 85.1072 683.7 88.8031 679.7C90.7011 677.6 92.6989 677.5 94.4969 679.4C95.6956 680.6 95.7955 681.3 95.4958 685.1C94.9964 693.4 91.4003 700.8 82.8097 711.6C80.0127 715.2 77.4156 718.1 77.2158 718.1C77.016 718.1 77.2158 716.6 77.6153 714.8Z" fill="#BCBCBC"/>
<path d="M34.4624 540.3C37.1595 539.9 38.6578 538.5 39.8565 535.3C40.9553 532.3 40.4559 529.6 38.1584 526.7C37.1595 525.4 36.3603 525.1 34.1627 525.1C30.8663 525.1 28.7686 526.8 27.7697 530.4C26.4711 535.6 30.1671 541 34.4624 540.3Z" fill="#BCBCBC"/>
<path d="M110.08 512.8C115.274 512.8 119.869 510.6 122.866 506.7C129.758 497.7 125.463 484.9 114.375 481.2C112.078 480.4 105.585 481 103.387 482.1C87.8042 490.2 92.6989 512.8 110.08 512.8ZM121.068 502.1C119.669 505.8 113.576 509.5 109.78 509C108.582 508.8 108.781 508.4 111.878 505.2C113.776 503.2 116.673 500.8 118.371 499.8C120.069 498.8 121.667 498 121.967 498C122.466 498 122.167 499.2 121.068 502.1ZM112.178 487.6C112.777 486.5 113.776 485.7 114.375 485.7C116.673 485.7 121.667 491.4 121.667 493.9C121.667 494.4 120.169 495.5 118.471 496.4C114.675 498.3 108.781 503.3 106.883 506.4L105.585 508.6L103.687 507.5C101.889 506.5 98.2928 501.6 98.2928 500.3C98.2928 499.9 99.4915 499.1 100.89 498.4C103.787 497 110.38 490.7 112.178 487.6ZM102.588 487.5C104.985 485.6 109.98 484.1 109.98 485.3C109.98 487.2 103.287 493.9 99.3916 495.9L97.6934 496.8L98.093 494.8C98.5924 491.9 100.091 489.5 102.588 487.5Z" fill="#BCBCBC"/>
<path d="M20.3778 147C15.3832 152.7 14.2844 162.2 18.38 164.9C20.6774 166.4 27.6698 166.7 33.2637 165.5C39.1573 164.2 41.3549 162.4 41.3549 158.5C41.3549 153.5 37.8587 147.5 33.3636 144.7C28.7686 141.7 24.3734 142.5 20.3778 147Z" fill="#BCBCBC"/>
<path d="M271.004 200.2C268.807 199.3 266.809 199.5 264.012 200.9C261.215 202.3 259.517 204.6 259.517 207.3C259.517 209.6 262.514 212.6 265.211 213C269.706 213.7 275 209.7 275 205.6C275 203.8 272.902 201 271.004 200.2Z" fill="#BCBCBC"/>
<path d="M5.69379 141.9C3.09662 144.7 3.69597 149.1 6.89248 151.8C10.089 154.5 13.9847 153.8 15.8827 150.2C17.7806 146.6 15.4831 141.6 11.5874 140.6C8.8903 139.9 7.19215 140.3 5.69379 141.9Z" fill="#BCBCBC"/>
<path d="M38.5579 145.7C39.6567 150.2 44.7512 151.7 48.2474 148.6C51.7436 145.4 51.344 139 47.3484 137.4C42.9531 135.5 37.3592 140.8 38.5579 145.7Z" fill="#BCBCBC"/>
<path d="M14.1845 128.1C12.5863 129.6 12.3865 130.4 12.3865 133.2C12.3865 137 13.2855 138.9 15.7828 140.5C18.3799 142.2 20.7773 142 22.875 139.9C26.1715 136.6 26.0716 131.8 22.5754 128.3C19.7784 125.6 16.7817 125.5 14.1845 128.1Z" fill="#BCBCBC"/>
<path d="M34.2626 125C30.9662 125 28.8685 126.7 27.8696 130.3C26.4711 135.4 30.1671 140.9 34.4624 140.2C37.1595 139.8 38.6578 138.4 39.8565 135.2C40.9553 132.2 40.4559 129.5 38.1584 126.6C37.2593 125.3 36.4602 125 34.2626 125Z" fill="#BCBCBC"/>
<path d="M146.141 201.5C147.239 200.6 147.339 198 146.34 197.6C145.142 197.2 143.444 198.3 143.444 199.6C143.344 201.3 145.042 202.4 146.141 201.5Z" fill="#BCBCBC"/>
<path d="M141.945 201.4C143.144 200.4 143.044 198.6 141.745 197.9C140.547 197.2 139.348 197.6 138.849 198.8C138.049 200.8 140.247 202.7 141.945 201.4Z" fill="#BCBCBC"/>
<path d="M137.85 204.9C139.748 204.9 140.147 203.3 138.749 201.9C137.35 200.5 136.351 201 136.351 203.1C136.251 204.6 136.551 204.9 137.85 204.9Z" fill="#BCBCBC"/>
<path d="M128.859 139.4C119.969 142.4 111.378 148.8 107.782 155C105.884 158.2 104.985 161.6 102.988 172.3C101.09 182.2 101.09 185.3 102.688 190.4C104.186 195.4 106.584 199.1 110.879 203.3C122.267 214.5 142.445 218.5 159.426 212.8C175.509 207.4 186.097 193.7 184.599 180.3C183.799 173.6 180.203 158.7 178.605 155.5C177.706 153.8 176.108 151.5 174.809 150.4C173.611 149.2 172.712 148.1 172.911 147.8C173.111 147.5 174.21 147.6 175.409 147.8C180.104 148.9 184.299 146.3 185.598 141.7C186.996 136.3 183.3 131.8 177.406 131.8C175.409 131.8 175.209 131.6 174.809 129.8C174.11 126.5 172.712 124.4 170.614 123.4C168.216 122.3 164.321 122.7 162.223 124.2C159.526 126.1 157.728 130.6 157.628 135.4L157.528 139.6L154.731 138.7C152.733 138 149.337 137.8 142.944 137.8C134.553 137.7 133.355 137.9 128.859 139.4ZM161.324 136C161.624 131.8 161.923 130.2 162.922 128.9C165.12 125.9 170.514 126.6 170.514 129.9C170.514 130.5 169.915 131.2 169.116 131.6C167.218 132.4 167.018 134.1 168.716 135C169.515 135.4 172.112 135.8 174.51 135.9C179.904 136.1 179.504 136 180.603 137.1C182.001 138.5 181.802 141.4 180.203 142.9C179.005 144 178.305 144.2 175.109 143.9C172.512 143.7 170.814 143.9 169.415 144.5C168.316 145 164.121 148.9 160.125 153.2C156.13 157.5 152.034 161.8 151.035 162.8C148.338 165.7 147.539 167.6 147.639 171.8C147.639 174.7 147.439 176 146.44 177.2C143.543 181.1 138.249 180 138.249 175.6C138.249 173.5 138.349 173.3 139.947 173.3C141.346 173.3 141.645 173.1 141.645 171.8C141.645 169.4 138.249 167.9 133.854 168.3C129.958 168.7 127.761 167.6 127.761 165.5C127.761 161.8 130.857 160.3 137.45 160.9L142.045 161.3L149.737 153.8C160.425 143.6 160.924 142.8 161.324 136ZM146.84 182.4C150.136 180.9 151.635 177.9 151.834 172.3C151.934 169 152.234 167.8 153.433 166.3C154.232 165.3 155.131 164.5 155.53 164.5C158.527 164.5 169.415 173.5 169.415 176C169.415 179.6 161.724 185.9 154.432 188.4C141.346 192.8 125.064 188.6 118.071 179C116.573 177 116.473 176.4 116.972 175.3C117.772 173.7 123.166 168.1 123.865 168.1C124.165 168.1 125.163 169 126.062 170C127.561 171.7 128.36 172 131.357 172.2L134.953 172.5L134.553 174.9C133.454 181.5 140.147 185.4 146.84 182.4ZM154.032 144C153.732 144.5 152.933 144.6 151.135 144.2C143.843 142.5 131.357 144.2 124.664 147.7C120.169 150.1 114.675 155.7 112.677 160C111.279 163.1 110.979 164.4 110.979 169.1C110.979 173.7 111.279 175.1 112.477 177.4C116.673 185.4 124.864 191.3 134.653 193.4C139.348 194.4 148.039 194.2 152.434 193.1C158.627 191.5 164.82 188.1 168.816 184.1C173.511 179.3 175.209 175.2 175.209 168.5C175.209 162.8 173.611 158.7 169.615 154.1C168.017 152.3 167.517 151.3 168.017 150.8C169.415 149.4 174.31 154.6 176.008 159.2C178.106 164.7 180.203 176.7 180.203 182.9C180.203 189.1 180.104 189.5 178.006 193.3C174.31 200.1 167.717 205.5 159.426 208.6C150.436 211.9 137.15 212.1 128.06 209.1C118.671 205.9 111.179 199.9 107.483 192.4C105.685 188.7 105.485 187.8 105.485 183C105.585 176.1 108.781 161 110.879 157.4C114.375 151.5 123.266 145.1 131.656 142.6C139.448 140.3 155.63 141.2 154.032 144Z" fill="#BCBCBC"/>
<path d="M139.048 207.4C139.048 209.5 145.941 210 146.74 208C147.239 206.7 146.141 204.3 144.642 203.2C142.345 201.5 139.048 204 139.048 207.4Z" fill="#BCBCBC"/>
<path d="M168.916 192.8C171.912 192.8 179.904 182.6 179.005 180.1C178.305 178.4 176.008 179.4 174.51 182C173.71 183.4 171.912 185.7 170.314 187.3C167.118 190.5 166.518 192.8 168.916 192.8Z" fill="#BCBCBC"/>
<path d="M164.021 196.7C166.319 195.6 167.018 194.6 166.418 193.1C165.919 191.9 164.72 191.9 161.923 193.4C159.126 194.8 158.627 195.4 159.226 196.7C159.726 198 161.324 198 164.021 196.7Z" fill="#BCBCBC"/>
<path d="M247.63 220.7C254.023 216.3 257.719 207.6 255.022 202.9C254.023 201.1 251.226 199 248.529 198C245.532 196.9 238.44 196.9 235.843 198C234.744 198.5 233.146 199.6 232.446 200.6C230.549 203 231.048 206.7 234.145 213.3C238.14 222.1 242.336 224.3 247.63 220.7Z" fill="#BCBCBC"/>
<path d="M148.338 204.9C149.437 204.9 149.936 204.5 150.036 203.4C150.136 202.6 149.837 201.7 149.437 201.4C148.338 200.7 147.939 200.7 147.139 201.8C145.941 203.2 146.54 204.9 148.338 204.9Z" fill="#BCBCBC"/>
<path d="M245.332 195.3C250.826 195.3 254.323 187.6 250.627 183.9C248.129 181.4 243.135 182.3 240.737 185.6C239.738 187 239.439 190.7 240.138 192.5C240.637 193.7 243.534 195.3 245.332 195.3Z" fill="#BCBCBC"/>
<path d="M110.08 112.7C115.274 112.7 119.869 110.5 122.866 106.6C129.758 97.6 125.463 84.8 114.375 81.1C112.078 80.3 105.585 80.9 103.387 82C87.8042 90.1 92.6989 112.7 110.08 112.7ZM121.068 102C119.669 105.7 113.576 109.4 109.78 108.9C108.582 108.7 108.781 108.3 111.878 105.1C113.776 103.1 116.673 100.7 118.371 99.7C120.069 98.7 121.667 97.9 121.967 97.9C122.466 97.9 122.167 99.1 121.068 102ZM97.9931 94.7C98.4926 91.8 100.091 89.4 102.588 87.4C104.985 85.5 109.98 84 109.98 85.2C109.98 87.1 103.287 93.8 99.3916 95.8L97.6934 96.7L97.9931 94.7ZM100.89 98.2C103.787 96.9 110.38 90.6 112.178 87.5C112.777 86.4 113.776 85.6 114.375 85.6C116.673 85.6 121.667 91.3 121.667 93.8C121.667 94.3 120.169 95.4 118.471 96.3C114.675 98.2 108.781 103.2 106.883 106.3L105.585 108.5L103.687 107.4C101.889 106.4 98.2928 101.5 98.2928 100.2C98.2928 99.7 99.4915 98.9 100.89 98.2Z" fill="#BCBCBC"/>
<path d="M109.381 20.9C109.081 22.7 108.981 24.7 109.181 25.4C109.381 26.1 109.181 27.7 108.781 29C108.082 31.1 108.182 31.7 108.981 33.5C109.481 34.6 110.779 36.1 111.778 36.6C112.977 37.3 113.976 38.7 114.675 40.7C115.374 42.7 116.273 44 117.372 44.6C119.869 45.9 133.454 45.8 137.15 44.5C138.749 44 140.647 43.5 141.446 43.6C143.444 43.7 145.242 42.6 148.338 39.2C150.336 37 151.035 35.8 151.035 34.3C151.035 33.2 151.435 30.3 151.834 28C152.334 25.6 152.534 23.1 152.334 22.4C152.134 21.7 152.334 20.9 152.633 20.7C153.033 20.5 153.333 18.7 153.333 16.7C153.333 12.7 151.435 9 147.839 6C145.441 4 141.246 2.7 139.448 3.5C138.749 3.8 137.45 3.9 136.651 3.6C135.752 3.4 134.054 3.1 132.755 3.1C130.957 3.1 130.058 2.6 129.159 1.5C128.16 0.3 127.361 0 125.163 0C122.566 0 122.067 0.299999 119.07 3.3C117.272 5.1 114.875 7 113.776 7.4C110.28 8.8 108.382 11 108.382 13.6C108.382 14.9 108.781 16.3 109.281 16.8C109.78 17.5 109.88 18.3 109.381 20.9ZM121.667 41.7C119.17 41.8 118.87 41.5 117.472 37.8C116.873 36.2 115.674 34.8 114.275 33.8C111.678 32.1 111.179 30.7 113.476 31.1C114.275 31.3 115.474 31.1 116.073 30.8C118.271 29.6 119.37 31 118.97 34.2C118.571 37.6 120.269 40.9 122.566 41.3C123.465 41.6 123.166 41.7 121.667 41.7ZM146.24 36C145.441 36.6 144.542 37.5 144.343 38.1C144.143 38.7 143.643 39.4 143.144 39.5C142.445 39.7 142.345 39.4 142.544 37.9C142.744 36.8 142.345 35 141.745 33.8C140.746 31.9 140.347 31.6 138.049 31.5C135.752 31.3 135.452 31.1 135.452 29.8C135.452 28.7 135.952 28.1 137.45 27.5C138.549 27 139.947 25.9 140.547 25C141.745 23.1 142.345 23 143.743 24.3C144.842 25.4 144.942 26.2 144.143 26.7C142.744 27.6 143.543 30.9 145.741 32.9L147.939 35L146.24 36ZM147.739 29.5C147.239 30.3 147.139 30.3 147.139 29.5C147.139 29 147.439 28 147.739 27.3L148.238 26.1V27.3C148.238 28 148.038 29 147.739 29.5ZM144.442 7.9C146.84 9.3 149.337 13 149.936 15.8C150.536 18.8 149.237 18.3 148.438 15.2C147.639 12 145.441 9.4 142.544 8.2C141.346 7.7 140.347 7.2 140.347 7C140.247 6.3 142.644 6.8 144.442 7.9ZM132.056 8.4C132.356 7 132.755 6.6 134.154 6.6C135.452 6.6 136.151 7 136.851 8.4C137.45 9.5 138.649 10.5 139.947 10.9C142.545 11.8 145.242 14.8 145.242 16.9C145.242 17.8 145.941 19.1 147.139 20.2C148.938 21.9 149.637 24.7 148.338 25.4C148.039 25.6 147.739 25.3 147.739 24.6C147.739 22.9 146.141 20.9 144.243 20.3C141.845 19.5 138.649 20.5 137.75 22.3C137.35 23.1 136.751 23.8 136.351 23.8C135.952 23.8 134.853 24.4 133.954 25.1C131.856 26.7 131.257 29.9 132.555 32.3C133.554 34.3 134.653 34.9 136.951 34.9C138.849 34.9 139.248 35.6 138.749 38.2C138.449 40 137.95 40.4 136.052 41C134.753 41.4 132.456 41.7 130.857 41.7C128.36 41.7 127.861 41.5 127.361 40.1C127.061 39.2 125.863 38.2 124.564 37.6C122.466 36.7 122.367 36.7 122.566 33.3C122.666 30.2 122.566 29.7 120.868 28.3C119.37 27 118.571 26.8 116.073 27C113.376 27.3 113.077 27.2 112.677 25.8C112.477 25 112.477 23.4 112.677 22.2C113.077 20.2 113.177 20.1 114.975 20.7C118.471 21.9 122.367 18.7 122.367 14.6C122.367 13.2 125.263 11 126.862 11.3C129.059 11.9 131.656 10.3 132.056 8.4ZM111.878 12.6C112.278 12.1 114.076 11 115.973 10.1C117.871 9.2 119.969 7.6 120.768 6.6C122.267 4.6 125.163 2.8 125.763 3.5C125.963 3.7 126.162 4.4 126.162 5C126.162 5.7 126.762 6.3 127.661 6.5C129.858 7 128.959 8 126.462 7.9C123.365 7.7 118.77 11.6 118.77 14.4C118.77 16.5 117.871 17.9 116.473 17.9C116.073 17.9 115.674 17.2 115.674 16.4C115.674 14.7 113.776 13.3 112.777 14.3C111.678 15.1 110.979 13.6 111.878 12.6Z" fill="#BCBCBC"/>
<path d="M266.409 196.1C269.606 192.5 268.607 187.5 264.511 185.8C263.113 185.2 258.818 186 257.219 187C255.421 188.2 253.424 191.5 253.424 193.3C253.324 199.7 261.715 201.4 266.409 196.1Z" fill="#BCBCBC"/>
<path d="M147.839 320.5C145.142 319.8 140.746 320.2 137.95 321.4C134.753 322.7 130.558 327.1 129.259 330.2C127.861 334 127.96 339.1 129.459 342.6C133.954 352.8 147.639 355.4 155.53 347.5C164.521 338.7 160.125 323.5 147.839 320.5ZM138.948 325.4C143.244 323.2 148.738 323.9 152.234 327C153.133 327.8 153.133 328.1 152.534 328.5C150.636 329.7 138.649 328.7 136.951 327.1C136.651 326.9 137.55 326.1 138.948 325.4ZM149.537 347C145.441 349.2 138.948 348.1 135.852 344.6C134.753 343.4 134.753 343.4 136.151 343C139.148 342.2 147.04 343.4 150.336 345.1C151.635 345.8 151.535 345.9 149.537 347ZM154.931 342.2L153.932 343.8L151.435 342.6C147.739 340.8 143.344 340.1 137.85 340.3C134.154 340.4 132.855 340.3 132.555 339.7C131.956 338 132.256 333.3 133.155 331.6C134.254 329.6 134.553 329.5 138.049 330.8C141.446 332.1 149.237 332.6 152.234 331.7C154.332 331.1 154.831 331.2 155.53 332.1C156.729 333.5 156.329 340.1 154.931 342.2Z" fill="#BCBCBC"/>
<path d="M263.013 214.7C260.516 213.6 259.916 213.6 257.419 214.7C251.526 217.2 252.225 224.7 258.518 225.9C266.509 227.3 270.205 217.8 263.013 214.7Z" fill="#BCBCBC"/>
<path d="M203.778 278.3L202.379 271.5L209.172 277.2L213.367 276.3L206.175 270.5L210.171 263.1L206.175 263.8L202.379 271.4L201.081 264.9L197.385 265.6L200.082 279L203.778 278.3Z" fill="#BCBCBC"/>
<path d="M183.5 271.4C183.2 272.5 183.2 273.9 183.5 275.5C183.799 277 184.399 278.3 185.098 279.2C185.897 280.1 186.896 280.7 187.995 281C189.094 281.3 190.392 281.3 191.691 281C192.69 280.8 193.589 280.5 194.288 280.2C194.987 279.9 195.687 279.5 196.186 279.1L195.587 276.3C194.887 276.8 194.188 277.2 193.589 277.5C192.89 277.8 192.19 278 191.291 278.2C190.292 278.4 189.393 278.3 188.694 277.8C187.995 277.3 187.495 276.6 187.296 275.6L195.886 273.9L195.587 272.1C195.287 270.8 194.887 269.7 194.188 268.9C193.489 268.1 192.69 267.5 191.691 267.3C190.692 267 189.593 267 188.394 267.2C187.096 267.5 186.097 267.9 185.198 268.6C184.399 269.3 183.799 270.2 183.5 271.4ZM187.296 270.8C187.695 270.2 188.195 269.9 188.894 269.8C189.493 269.7 189.993 269.7 190.392 269.9C190.792 270.1 191.191 270.4 191.391 270.7C191.691 271.1 191.891 271.5 191.991 272.1L186.896 273.1C186.796 272.1 186.996 271.3 187.296 270.8Z" fill="#BCBCBC"/>
<path d="M181.802 282.6L179.105 269.2L175.509 270L177.606 280.6L173.111 281.5L171.013 270.8L167.317 271.6L169.415 282.2L164.92 283.1L162.822 272.5L159.226 273.2L161.823 286.6L181.802 282.6Z" fill="#BCBCBC"/>
<path d="M147.339 287.8C148.039 288.3 148.838 288.6 149.637 288.7C150.536 288.8 151.435 288.8 152.334 288.6C153.333 288.4 154.232 288.1 154.931 287.6C155.63 287.1 156.23 286.5 156.729 285.8C157.228 285.1 157.428 284.3 157.628 283.3C157.728 282.4 157.728 281.4 157.528 280.2C157.228 278.7 156.729 277.5 155.93 276.6C155.131 275.7 154.232 275 153.133 274.7C152.034 274.4 150.935 274.3 149.637 274.6C148.338 274.9 147.239 275.4 146.34 276.1C145.441 276.8 144.842 277.8 144.542 278.9C144.243 280 144.243 281.3 144.542 282.8C144.742 283.9 145.142 284.9 145.641 285.7C146.041 286.7 146.64 287.3 147.339 287.8ZM148.338 279.2C148.638 278.4 149.237 278 150.236 277.8C150.935 277.7 151.435 277.7 151.934 277.9C152.434 278.1 152.733 278.5 153.033 279C153.333 279.5 153.632 280.3 153.732 281.1C153.932 282 153.932 282.7 153.832 283.4C153.732 284 153.533 284.5 153.233 284.9C152.933 285.3 152.434 285.5 151.734 285.7C151.035 285.9 150.536 285.8 150.036 285.6C149.537 285.4 149.137 285 148.838 284.4C148.538 283.8 148.338 283.1 148.138 282.2C148.039 281 148.039 279.9 148.338 279.2Z" fill="#BCBCBC"/>
<path d="M138.049 277.4L134.254 284.9L132.955 278.4L129.359 279.1L131.956 292.5L135.652 291.8L134.254 285L141.146 290.7L145.242 289.9L138.049 284L142.145 276.6L138.049 277.4Z" fill="#BCBCBC"/>
<path d="M110.08 284.1C109.181 285 108.881 286.1 109.181 287.5C109.281 288.2 109.58 288.8 109.88 289.3C110.28 289.8 110.679 290.1 111.079 290.4C111.578 290.6 112.078 290.8 112.577 290.9L109.98 296.9L113.976 296.1L115.973 290.5L117.971 290.1L118.97 295.1L122.666 294.4L119.969 281L113.776 282.2C112.178 282.5 110.979 283.1 110.08 284.1ZM116.873 284.3L117.572 287.7L115.574 288.1C114.875 288.2 114.275 288.2 113.776 288C113.276 287.8 112.977 287.4 112.877 286.8C112.777 286.4 112.877 286 113.077 285.6C113.276 285.2 113.776 285 114.475 284.8L116.873 284.3Z" fill="#BCBCBC"/>
<path d="M95.3959 296.5C95.1962 296.7 94.9964 296.8 94.7966 296.9C94.5968 296.9 94.397 297 94.1972 296.9C93.9975 296.9 93.7977 296.9 93.5979 296.8L94.1972 299.7C94.4969 299.8 94.7966 299.8 95.1962 299.8C95.5957 299.8 95.8954 299.8 96.3948 299.7C97.194 299.5 97.7933 299.2 98.2928 298.7C98.7922 298.2 99.0919 297.5 99.1918 296.5C99.3916 295.6 99.4915 294.4 99.3916 293C99.3916 291.6 99.1918 289.8 98.992 287.9L102.388 287.2L104.486 298L108.182 297.3L105.485 283.9L95.3959 285.9C95.5957 287.7 95.7955 289.2 95.8954 290.4C95.9953 291.6 96.0952 292.7 96.0952 293.5C96.0952 294.3 95.9953 295 95.8954 295.5C95.7955 296 95.5957 296.3 95.3959 296.5Z" fill="#BCBCBC"/>
<path d="M80.0127 293C80.0127 294.4 79.9128 295.7 79.8129 296.9C79.6132 298.1 79.3135 299.2 78.9139 300.3L77.8151 300.5L79.3135 308L82.6099 307.3L81.611 302.5L90.6012 300.7L91.6001 305.5L94.8965 304.8L93.3981 297.3L91.4003 297.7L89.3026 287L79.8129 288.9C79.9128 290.3 80.0127 291.6 80.0127 293ZM83.3091 296.8C83.409 295.9 83.5089 295 83.5089 294C83.5089 293 83.5089 292 83.409 291L86.1061 290.5L87.7043 298.5L82.7098 299.5C83.0095 298.6 83.1093 297.8 83.3091 296.8Z" fill="#BCBCBC"/>
<path d="M130.058 254.4C129.758 253.1 129.359 252 128.66 251.2C127.96 250.4 127.161 249.8 126.162 249.6C125.163 249.3 124.065 249.3 122.866 249.5C121.567 249.8 120.568 250.2 119.669 250.9C118.87 251.6 118.271 252.5 117.871 253.7C117.572 254.8 117.572 256.2 117.871 257.8C118.171 259.3 118.77 260.6 119.47 261.5C120.269 262.4 121.268 263 122.367 263.3C123.465 263.6 124.764 263.6 126.062 263.3C127.061 263.1 127.96 262.8 128.66 262.5C129.359 262.2 130.058 261.8 130.558 261.4L129.958 258.6C129.259 259.1 128.56 259.5 127.96 259.8C127.261 260.1 126.562 260.3 125.663 260.5C124.664 260.7 123.765 260.6 123.066 260.1C122.367 259.6 121.867 258.9 121.667 257.9L130.258 256.2L130.058 254.4ZM121.368 255.5C121.268 254.5 121.368 253.8 121.767 253.2C122.167 252.6 122.666 252.3 123.365 252.2C123.965 252.1 124.464 252.1 124.864 252.3C125.263 252.5 125.663 252.7 125.863 253.1C126.162 253.5 126.362 253.9 126.462 254.5L121.368 255.5Z" fill="#BCBCBC"/>
<path d="M109.58 255.7C109.98 255.3 110.479 255 111.079 254.9C111.578 254.8 112.078 254.8 112.577 254.8C113.077 254.8 113.676 254.9 114.275 255L114.775 252C114.175 251.9 113.576 251.8 112.877 251.7C112.178 251.7 111.379 251.7 110.479 251.9C109.181 252.2 108.082 252.6 107.183 253.3C106.284 254 105.685 254.9 105.285 256C104.886 257.1 104.886 258.5 105.285 260.2C105.585 261.8 106.084 263 106.784 264C107.483 264.9 108.382 265.5 109.381 265.8C110.38 266.1 111.578 266.1 112.877 265.8C113.776 265.6 114.575 265.4 115.174 265.1C115.774 264.8 116.273 264.5 116.773 264L116.173 260.9C115.674 261.4 115.174 261.8 114.675 262.1C114.076 262.4 113.476 262.6 112.677 262.8C112.078 262.9 111.578 262.9 111.079 262.7C110.579 262.5 110.18 262.1 109.88 261.6C109.58 261.1 109.281 260.3 109.081 259.5C108.881 258.6 108.881 257.8 108.981 257.2C108.981 256.6 109.281 256.1 109.58 255.7Z" fill="#BCBCBC"/>
<path d="M98.3927 268.6C99.4915 268.4 100.291 268.1 100.99 267.8C101.689 267.5 102.288 267.1 102.688 266.6C103.088 266.1 103.387 265.7 103.487 265.1C103.587 264.6 103.587 264 103.487 263.4C103.287 262.6 102.888 262 102.189 261.6C101.489 261.2 100.69 261 99.7911 261.1V261C100.69 260.7 101.29 260.2 101.589 259.6C101.989 259 102.089 258.3 101.889 257.6C101.689 256.7 101.289 256.1 100.79 255.7C100.191 255.3 99.4915 255.1 98.5924 255C97.6934 254.9 96.7944 255 95.6956 255.2L89.3026 256.5L91.9996 269.9L98.3927 268.6ZM98.8921 263C99.3916 263.1 99.5914 263.5 99.6913 264C99.7911 264.6 99.6912 265.1 99.2917 265.4C98.8921 265.7 98.3927 266 97.6934 266.1L95.1962 266.6L94.5968 263.4L96.9942 262.9C97.7933 262.8 98.3927 262.8 98.8921 263ZM96.0952 257.8C96.6945 257.7 97.194 257.7 97.5935 257.8C97.9931 257.9 98.1929 258.2 98.2928 258.6C98.3927 259.1 98.2928 259.5 97.8932 259.8C97.5935 260.1 96.9942 260.3 96.1951 260.5L93.9975 260.9L93.498 258.3L96.0952 257.8Z" fill="#BCBCBC"/>
<path d="M71.7218 263.8L75.2179 263.1L75.3178 265.7L72.0214 266.4V269.4L75.4177 268.7L75.5176 272.5L78.4145 271.9L78.3146 268.1L80.8118 267.6L80.9117 271.4L83.8086 270.8L83.7087 267L87.2049 266.3L87.105 263.3L83.7087 264L83.6088 261.3L87.0051 260.7L86.9052 257.7L83.6088 258.4L83.5089 254.5L80.6121 255.1L80.712 259L78.2147 259.5L78.1148 255.6L75.2179 256.2L75.3178 260.1L71.8217 260.8L71.7218 263.8ZM80.6121 262.1L80.712 264.8L78.2147 265.3L78.1148 262.6L80.6121 262.1Z" fill="#BCBCBC"/>
<path d="M239.938 1083.7L236.042 1085L233.146 1092.9L231.048 1086.6L227.552 1087.8L231.747 1100.7L235.343 1099.6L233.146 1093L240.637 1097.8L244.633 1096.5L236.842 1091.6L239.938 1083.7Z" fill="#BCBCBC"/>
<path d="M222.757 1090.3C221.558 1089.8 220.16 1089.9 218.362 1090.5C217.463 1090.8 216.564 1091.2 215.765 1091.7C214.965 1092.2 214.366 1092.7 213.767 1093.3L215.765 1095.3C216.264 1094.8 216.764 1094.4 217.363 1094C217.862 1093.6 218.462 1093.3 219.161 1093.1C219.76 1092.9 220.36 1092.9 220.759 1093.1C221.259 1093.3 221.558 1093.7 221.758 1094.4L221.958 1095L219.76 1095.8C217.862 1096.5 216.564 1097.3 215.765 1098.3C214.965 1099.3 214.866 1100.4 215.265 1101.8C215.565 1102.7 215.964 1103.5 216.564 1104C217.063 1104.5 217.762 1104.8 218.462 1104.9C219.161 1105 219.86 1104.9 220.659 1104.6C221.359 1104.4 221.958 1104.1 222.457 1103.8C222.957 1103.5 223.256 1103.1 223.556 1102.7C223.856 1102.3 224.155 1101.8 224.355 1101.2H224.455L225.754 1102.7L228.251 1101.9L225.454 1093.2C224.755 1091.7 223.956 1090.7 222.757 1090.3ZM222.857 1100.3C222.457 1100.9 221.958 1101.4 221.159 1101.6C220.659 1101.8 220.16 1101.8 219.86 1101.7C219.461 1101.6 219.161 1101.2 218.961 1100.7C218.761 1100.1 218.861 1099.5 219.161 1099C219.461 1098.5 220.16 1098 221.359 1097.6L222.757 1097.1L223.157 1098.2C223.256 1099 223.256 1099.7 222.857 1100.3Z" fill="#BCBCBC"/>
<path d="M203.078 1094.7C203.478 1094.4 203.977 1094.1 204.477 1093.8C204.777 1093.6 205.176 1093.5 205.676 1093.2C206.075 1093 206.575 1092.8 206.974 1092.6C207.474 1092.4 207.873 1092.2 208.373 1092C208.872 1091.8 209.272 1091.6 209.671 1091.4L208.273 1088.5C207.374 1088.9 206.575 1089.3 205.676 1089.7C204.876 1090.1 204.077 1090.5 203.278 1090.9C201.68 1091.7 200.581 1092.7 199.782 1093.9C198.983 1095 198.583 1096.3 198.583 1097.8C198.583 1099.3 198.883 1101 199.482 1102.9C199.882 1104.2 200.381 1105.3 201.081 1106.2C201.68 1107.1 202.379 1107.8 203.178 1108.3C203.977 1108.8 204.777 1109.1 205.676 1109.2C206.575 1109.3 207.474 1109.2 208.473 1108.9C209.771 1108.5 210.77 1107.9 211.569 1107.1C212.368 1106.3 212.868 1105.3 213.068 1104.1C213.267 1102.9 213.167 1101.6 212.668 1100.2C212.268 1098.9 211.669 1098 211.07 1097.3C210.371 1096.6 209.571 1096.1 208.672 1096C207.773 1095.8 206.774 1095.9 205.776 1096.2C205.176 1096.4 204.577 1096.7 204.177 1097.1C203.778 1097.5 203.378 1097.9 203.178 1098.3C202.979 1098.7 202.779 1099.1 202.679 1099.5L202.479 1099.6C202.279 1098.8 202.179 1098.1 202.179 1097.5C202.179 1096.9 202.279 1096.4 202.479 1096C202.379 1095.3 202.679 1095 203.078 1094.7ZM203.378 1100.9C203.578 1100.5 203.878 1100.1 204.177 1099.7C204.577 1099.3 204.976 1099 205.476 1098.9C206.275 1098.6 206.974 1098.7 207.574 1099.2C208.073 1099.7 208.572 1100.5 208.872 1101.5C209.172 1102.4 209.272 1103.1 209.172 1103.7C209.172 1104.3 208.972 1104.7 208.672 1105.1C208.373 1105.4 207.973 1105.7 207.474 1105.9C206.874 1106.1 206.375 1106.1 205.975 1106C205.476 1105.8 205.076 1105.6 204.777 1105.2C204.377 1104.8 204.077 1104.4 203.778 1103.8C203.478 1103.2 203.278 1102.7 203.078 1102C203.078 1101.6 203.178 1101.3 203.378 1100.9Z" fill="#BCBCBC"/>
<path d="M198.084 1107.8C198.084 1106.9 197.984 1105.9 197.584 1104.8C197.085 1103.4 196.486 1102.2 195.587 1101.4C194.688 1100.6 193.689 1100.1 192.59 1099.8C191.491 1099.6 190.292 1099.7 189.094 1100.1C187.795 1100.5 186.796 1101.2 185.997 1102C185.198 1102.8 184.699 1103.8 184.599 1105C184.399 1106.2 184.599 1107.4 184.998 1108.9C185.398 1110 185.797 1110.9 186.397 1111.6C186.996 1112.3 187.695 1112.9 188.394 1113.3C189.094 1113.7 189.893 1113.9 190.792 1114C191.691 1114 192.59 1113.9 193.489 1113.6C194.488 1113.3 195.287 1112.8 195.986 1112.3C196.685 1111.8 197.185 1111.1 197.485 1110.4C197.884 1109.6 198.084 1108.7 198.084 1107.8ZM193.988 1109.8C193.689 1110.2 193.289 1110.5 192.59 1110.7C191.891 1110.9 191.391 1110.9 190.892 1110.8C190.392 1110.6 189.993 1110.3 189.593 1109.8C189.194 1109.3 188.894 1108.6 188.594 1107.7C188.195 1106.4 188.095 1105.4 188.295 1104.6C188.494 1103.8 189.094 1103.3 189.993 1103C190.592 1102.8 191.191 1102.8 191.691 1102.9C192.19 1103 192.59 1103.4 192.989 1103.9C193.389 1104.4 193.689 1105.1 193.988 1105.9C194.288 1106.8 194.388 1107.5 194.388 1108.2C194.388 1108.8 194.288 1109.3 193.988 1109.8Z" fill="#BCBCBC"/>
<path d="M182.401 1113.7C181.902 1114.1 181.302 1114.4 180.503 1114.6C179.904 1114.8 179.404 1114.8 178.905 1114.7C178.405 1114.5 177.906 1114.2 177.506 1113.7C177.107 1113.2 176.807 1112.5 176.507 1111.7C176.208 1110.8 176.108 1110.1 176.108 1109.4C176.108 1108.7 176.308 1108.2 176.607 1107.8C176.907 1107.4 177.406 1107 178.006 1106.8C178.505 1106.6 179.005 1106.6 179.504 1106.5C180.004 1106.5 180.603 1106.5 181.202 1106.5L181.302 1103.4C180.703 1103.3 180.104 1103.3 179.404 1103.4C178.705 1103.4 177.906 1103.6 177.007 1103.9C175.708 1104.3 174.709 1104.9 173.91 1105.7C173.111 1106.5 172.612 1107.5 172.412 1108.6C172.212 1109.8 172.312 1111.2 172.911 1112.7C173.411 1114.2 174.11 1115.4 174.909 1116.2C175.708 1117 176.607 1117.5 177.706 1117.7C178.805 1117.9 179.904 1117.7 181.202 1117.3C182.101 1117 182.801 1116.7 183.4 1116.3C183.999 1116 184.399 1115.5 184.898 1115L183.899 1112C183.3 1112.9 182.9 1113.3 182.401 1113.7Z" fill="#BCBCBC"/>
<path d="M156.429 1111.1C154.931 1111.6 153.732 1112.4 153.033 1113.4C152.234 1114.4 152.134 1115.6 152.534 1116.9C152.733 1117.6 153.033 1118.2 153.433 1118.6C153.832 1119 154.332 1119.4 154.731 1119.6C155.231 1119.8 155.73 1119.9 156.23 1119.9L154.432 1126.2L158.227 1124.9L159.526 1119.1L161.424 1118.5L163.022 1123.3L166.518 1122.1L162.223 1109.1L156.429 1111.1ZM158.827 1116.7C158.128 1116.9 157.528 1117 157.029 1116.8C156.529 1116.6 156.13 1116.3 155.93 1115.7C155.83 1115.3 155.83 1114.9 156.03 1114.5C156.23 1114.1 156.629 1113.8 157.228 1113.6L159.626 1112.8L160.725 1116.1L158.827 1116.7Z" fill="#BCBCBC"/>
<path d="M149.137 1127.9L152.633 1126.7L148.338 1113.7L138.549 1116.9C138.948 1118.6 139.348 1120.1 139.548 1121.3C139.847 1122.5 139.947 1123.5 140.047 1124.4C140.147 1125.2 140.147 1125.9 140.147 1126.4C140.147 1126.9 140.047 1127.3 139.847 1127.5C139.748 1127.7 139.548 1127.9 139.348 1128C139.148 1128.1 138.948 1128.1 138.749 1128.1C138.549 1128.1 138.349 1128.1 138.149 1128.1L139.048 1130.9C139.348 1130.9 139.648 1130.9 140.047 1130.9C140.447 1130.8 140.746 1130.8 141.146 1130.6C141.945 1130.3 142.445 1129.9 142.844 1129.4C143.244 1128.8 143.444 1128.1 143.543 1127.1C143.643 1126.1 143.543 1125 143.344 1123.6C143.144 1122.2 142.844 1120.5 142.345 1118.5L145.641 1117.4L149.137 1127.9Z" fill="#BCBCBC"/>
<path d="M137.25 1137L140.447 1135.9L138.049 1128.7L136.151 1129.3L132.755 1118.9L123.565 1121.9C123.865 1123.2 124.165 1124.6 124.264 1125.9C124.464 1127.2 124.564 1128.5 124.464 1129.8C124.464 1131 124.264 1132.2 123.965 1133.2L122.866 1133.6L125.263 1140.8L128.46 1139.8L126.962 1135.1L135.652 1132.2L137.25 1137ZM127.761 1132C127.861 1131.1 127.96 1130.2 127.96 1129.3C127.96 1128.4 127.96 1127.5 127.861 1126.5C127.761 1125.5 127.561 1124.6 127.461 1123.6L130.158 1122.7L132.655 1130.4L127.761 1132Z" fill="#BCBCBC"/>
<path d="M168.017 1087.2C167.417 1087.6 166.618 1087.9 165.819 1088.2C164.82 1088.5 163.921 1088.5 163.222 1088.1C162.523 1087.7 161.923 1087 161.524 1086L169.915 1083.2L169.315 1081.5C168.916 1080.2 168.316 1079.2 167.517 1078.5C166.718 1077.8 165.819 1077.3 164.82 1077.2C163.821 1077 162.722 1077.1 161.524 1077.5C160.325 1077.9 159.326 1078.5 158.527 1079.3C157.728 1080.1 157.328 1081.1 157.129 1082.3C156.929 1083.5 157.129 1084.8 157.628 1086.3C158.128 1087.8 158.827 1088.9 159.726 1089.7C160.625 1090.5 161.624 1091 162.822 1091.1C164.021 1091.3 165.22 1091.1 166.518 1090.7C167.517 1090.4 168.316 1090 169.016 1089.6C169.715 1089.2 170.314 1088.8 170.814 1088.3L169.915 1085.6C169.215 1086.3 168.616 1086.8 168.017 1087.2ZM160.924 1081.3C161.224 1080.7 161.724 1080.3 162.423 1080.1C163.022 1079.9 163.522 1079.9 163.921 1080C164.321 1080.1 164.72 1080.4 165.02 1080.7C165.32 1081 165.619 1081.5 165.719 1082L160.725 1083.6C160.525 1082.7 160.625 1081.9 160.924 1081.3Z" fill="#BCBCBC"/>
<path d="M155.83 1094.1C156.429 1093.8 156.829 1093.3 157.328 1092.8L156.329 1089.8C155.93 1090.3 155.43 1090.8 154.931 1091.2C154.432 1091.6 153.832 1091.9 153.033 1092.1C152.434 1092.3 151.934 1092.3 151.435 1092.2C150.935 1092 150.436 1091.7 150.036 1091.3C149.637 1090.8 149.337 1090.1 149.037 1089.3C148.738 1088.4 148.638 1087.7 148.638 1087C148.638 1086.3 148.838 1085.8 149.137 1085.4C149.437 1085 149.936 1084.6 150.536 1084.4C151.035 1084.2 151.535 1084.2 152.034 1084.1C152.534 1084.1 153.133 1084.1 153.732 1084.1L153.832 1081C153.233 1080.9 152.633 1080.9 151.934 1080.9C151.235 1080.9 150.436 1081.1 149.537 1081.4C148.238 1081.8 147.239 1082.4 146.44 1083.2C145.641 1084 145.142 1085 144.942 1086.1C144.742 1087.3 144.842 1088.7 145.441 1090.2C145.941 1091.7 146.64 1092.9 147.439 1093.7C148.238 1094.5 149.137 1095 150.236 1095.2C151.335 1095.4 152.434 1095.2 153.732 1094.8C154.631 1094.8 155.331 1094.5 155.83 1094.1Z" fill="#BCBCBC"/>
<path d="M141.645 1090.1C141.945 1089.5 141.945 1088.8 141.745 1088.1C141.446 1087.2 141.046 1086.6 140.347 1086.3C139.748 1086 138.948 1085.8 138.149 1085.9C137.25 1085.9 136.351 1086.1 135.352 1086.5L129.159 1088.5L133.454 1101.5L139.648 1099.5C140.647 1099.2 141.546 1098.8 142.145 1098.4C142.844 1098 143.344 1097.5 143.643 1097C143.943 1096.5 144.143 1096 144.243 1095.4C144.343 1094.8 144.243 1094.3 144.043 1093.7C143.743 1092.9 143.244 1092.4 142.544 1092C141.845 1091.7 141.046 1091.6 140.047 1091.8V1091.7C140.846 1091.3 141.446 1090.8 141.645 1090.1ZM133.454 1089.8L135.952 1089C136.551 1088.8 137.051 1088.7 137.45 1088.8C137.85 1088.9 138.049 1089.1 138.249 1089.6C138.449 1090.1 138.349 1090.5 138.049 1090.9C137.75 1091.2 137.25 1091.5 136.451 1091.8L134.353 1092.5L133.454 1089.8ZM140.347 1094.7C140.547 1095.3 140.447 1095.8 140.047 1096.2C139.648 1096.6 139.148 1096.9 138.549 1097.1L136.151 1097.9L135.153 1094.8L137.45 1094C138.249 1093.7 138.849 1093.7 139.348 1093.8C139.847 1093.9 140.147 1094.2 140.347 1094.7Z" fill="#BCBCBC"/>
<path d="M122.466 1104.5L125.263 1103.6L124.764 1099.8L128.16 1098.7L127.661 1095.8L124.364 1096.9L123.965 1094.2L127.261 1093.1L126.762 1090.2L123.565 1091.2L122.966 1087.3L120.169 1088.2L120.768 1092.1L118.271 1092.9L117.672 1089L114.875 1089.9L115.474 1093.8L112.078 1094.9L112.477 1097.9L115.874 1096.8L116.273 1099.4L113.077 1100.4L113.376 1103.4L116.573 1102.3L117.072 1106.1L119.869 1105.2L119.37 1101.4L121.767 1100.6L122.466 1104.5ZM118.97 1098.6L118.571 1096L120.968 1095.2L121.368 1097.8L118.97 1098.6Z" fill="#BCBCBC"/>
<path d="M232.846 396.4C227.851 396.4 223.756 391 224.755 385.7C225.554 381.4 230.748 379.6 234.644 382.2C238.74 384.9 239.938 391.1 237.141 394.5C235.743 396.1 235.044 396.4 232.846 396.4Z" fill="#BCBCBC"/>
<path d="M217.363 386.4C220.859 387.3 223.256 390.8 223.256 395.1C223.256 398.4 222.158 400.6 220.06 401.7C217.563 403 215.565 402.8 213.367 400.9C208.373 396.7 208.572 388.9 213.767 386.8C214.866 386.3 216.664 386.1 217.363 386.4Z" fill="#BCBCBC"/>
<path d="M204.976 375.9C203.478 374.2 202.379 372.2 201.68 369.8C200.381 365.4 204.077 361.9 213.367 358.8C219.361 356.8 221.658 356.6 223.956 357.7C227.152 359.3 228.051 361.5 228.051 367.3C228.051 371 227.752 373.4 227.052 375C225.654 377.9 222.957 380 219.86 380.6C217.762 381 215.565 381 214.366 380.8C211.369 380.3 206.075 377.2 204.976 375.9Z" fill="#BCBCBC"/>
<path d="M197.285 389.5C195.687 386.4 196.186 383.4 198.583 380.9C200.981 378.5 204.477 378.5 206.874 380.8C209.771 383.7 209.771 388.4 206.974 391.2C203.778 394.4 199.382 393.6 197.285 389.5Z" fill="#BCBCBC"/>
<path d="M230.049 372.3C230.049 368.7 232.147 366.7 235.843 366.7C237.94 366.7 239.039 367.1 240.538 368.3C242.635 370 243.734 373.1 243.235 375.6C243.135 376.1 242.735 377.4 241.536 378.5C239.838 380 235.843 381.1 233.645 379.5C230.948 377.5 230.049 374.5 230.049 372.3Z" fill="#BCBCBC"/>
<path d="M233.845 1196.4C228.85 1196.4 224.755 1191 225.754 1185.7C226.553 1181.4 231.747 1179.6 235.643 1182.2C239.738 1184.9 240.937 1191.1 238.14 1194.5C236.742 1196.1 236.043 1196.4 233.845 1196.4Z" fill="#BCBCBC"/>
<path d="M218.362 1186.4C221.858 1187.3 224.255 1190.8 224.255 1195.1C224.255 1198.4 223.157 1200.6 221.059 1201.7C218.562 1203 216.564 1202.8 214.366 1200.9C209.372 1196.7 209.571 1188.9 214.766 1186.8C215.865 1186.3 217.663 1186.1 218.362 1186.4Z" fill="#BCBCBC"/>
<path d="M205.975 1175.9C204.477 1174.2 203.378 1172.2 202.679 1169.8C201.38 1165.4 205.076 1161.9 214.366 1158.8C220.36 1156.8 222.657 1156.6 224.955 1157.7C228.151 1159.3 229.05 1161.5 229.05 1167.3C229.05 1171 228.75 1173.4 228.051 1175C226.653 1177.9 223.956 1180 220.859 1180.6C218.761 1181 216.564 1181 215.365 1180.8C212.368 1180.3 207.074 1177.2 205.975 1175.9Z" fill="#BCBCBC"/>
<path d="M198.284 1189.5C196.685 1186.4 197.185 1183.4 199.582 1180.9C201.98 1178.5 205.476 1178.5 207.873 1180.8C210.77 1183.7 210.77 1188.4 207.973 1191.2C204.777 1194.4 200.381 1193.6 198.284 1189.5Z" fill="#BCBCBC"/>
<path d="M231.048 1172.3C231.048 1168.7 233.146 1166.7 236.842 1166.7C238.939 1166.7 240.038 1167.1 241.536 1168.3C243.634 1170 244.733 1173.1 244.234 1175.6C244.134 1176.1 243.734 1177.4 242.535 1178.5C240.837 1180 236.842 1181.1 234.644 1179.5C231.947 1177.5 231.048 1174.5 231.048 1172.3Z" fill="#BCBCBC"/>
<path d="M65.8282 52.4C63.7305 48.3 60.534 46.1 56.6382 46.1C55.1398 46.1 50.9444 47.3 46.4493 48.9C42.2539 50.4 38.3582 51.7 37.8587 51.7C36.9597 51.7 29.0683 49.1 22.4755 46.7C19.8783 45.7 19.279 45.2 19.279 44.1C19.279 41.5 16.5819 38.7 10.988 35.3C5.29422 31.9 3.19651 31.3 0 33.1V37.6C1.49837 36.5 2.89684 35.7 3.2964 35.7C4.19542 35.7 12.1867 40.3 13.785 41.7C15.2833 43.1 15.1834 43.5 13.0857 43.9C10.1889 44.5 9.09008 46.9 9.09008 52.3V56.9L6.89248 57.4C3.29641 58.2 1.49837 57.6 0 54.2V60.4C0.399564 60.5 0.799127 60.7 1.0988 60.8C3.39629 61.6 4.39521 61.6 7.99128 61L12.1867 60.2L21.7762 63.6C27.0705 65.5 32.065 67.2 32.8642 67.4C33.7632 67.6 34.7621 68.6 35.3614 69.9C36.4602 72.1 41.9542 75.8 46.2495 77C48.3473 77.6 49.0465 77.6 51.4439 76.4C52.9422 75.7 54.6404 75.1 55.2397 75.1C56.9379 75.1 60.8336 72.3 62.9314 69.8C68.0258 63.3 68.8249 58.4 65.8282 52.4ZM21.8761 59.6L13.0857 56.5L12.8859 53.1C12.7861 51.2 12.8859 49.2 13.0857 48.5C13.6851 47.1 13.4853 47.1 19.4788 49.5C26.0716 52.2 33.1638 54.6 35.8609 55.1C37.0596 55.3 38.6578 55.9 39.457 56.4L40.8554 57.3L39.1573 59.3C38.1584 60.4 36.9597 61.9 36.4602 62.7C35.3614 64.4 35.9608 64.5 21.8761 59.6ZM49.3462 73.3C47.648 74.4 39.457 69.9 39.1573 67.7C39.0574 66.9 39.8565 65 41.1551 63C42.2539 61.2 43.3527 59.7 43.4526 59.7C44.2517 59.8 51.344 68.4 51.344 69.2C51.344 70.4 50.1453 72.7 49.3462 73.3ZM58.8358 68.5C57.5372 69.7 57.5372 69.6 56.1388 67.9C55.3396 66.9 52.1431 63.5 49.0465 60.2C45.85 57 43.2528 54.1 43.2528 53.9C43.2528 53.7 44.2517 53.4 45.5503 53.1C46.8489 52.9 49.3462 52 51.1442 51.2C55.2397 49.4 57.9368 49.4 60.1344 51.1C62.1322 52.7 63.7305 56.3 63.7305 59.1C63.7305 61.3 60.9335 66.6 58.8358 68.5Z" fill="#BCBCBC"/>
<path d="M2.1976 234.8C5.49401 232.5 8.59063 228.5 8.39085 227C8.09118 225.2 5.79368 225 4.69488 226.6C3.79586 227.9 3.69597 227.8 1.19869 225.1C0.699238 224.6 0.399564 224.1 0 223.7V229.5L1.19869 230.8L0 231.8V237.4C0.199782 236.5 0.799129 235.8 2.1976 234.8Z" fill="#BCBCBC"/>
<path d="M64.2299 223.5C61.6328 221.4 61.2332 219.8 62.9314 218.6C67.9259 215 66.8271 207.4 60.9335 204.8C58.3364 203.7 55.5394 203.7 52.5427 204.9C49.6458 206 48.0476 208 46.9488 211.8C46.5492 213.3 45.7501 214.7 45.1507 215C43.952 215.6 33.8631 217.2 22.6753 218.4L14.0846 219.4L10.8881 216.3C6.99237 212.7 3.59608 211.7 0 213.4V217.8C0.199782 217.7 0.399563 217.5 0.599345 217.4C3.39629 215.7 5.09444 216.3 8.79041 220.1L11.887 223.4L19.8783 222.6C30.4668 221.5 41.4548 220 44.5514 219.2C47.9477 218.3 48.8467 217.4 50.445 213C51.5438 209.9 52.1431 209.1 53.9412 208.4C56.9379 207.1 58.4363 207.4 60.8336 209.6C62.8315 211.4 62.5318 212.9 59.5351 216.2C56.5383 219.5 55.1399 223.4 55.939 226.4C56.5383 228.7 59.1355 229 59.7348 226.8L60.0345 225.4L61.7327 226.7C65.8282 229.8 62.8315 234.9 57.1377 234.9C55.3396 234.9 54.3407 234.4 52.0432 232L49.1464 229.1L44.1518 229.5C36.4602 230.1 18.4798 232.8 14.8838 233.9C12.3865 234.6 11.4875 235.2 10.988 236.5C9.28987 241.1 4.3952 244.8 1.79804 243.4C0.799127 242.8 0.199782 242 0 240.6V247C0.499455 247.3 1.0988 247.5 1.69815 247.6C5.89357 248.4 10.5884 245.6 13.4853 240.7C14.684 238.6 15.583 237.9 17.381 237.4C20.2779 236.6 29.9673 235.2 39.9564 234L47.8478 233L50.0454 235.4C53.8413 239.7 60.7337 239.9 64.9292 235.9C68.9248 231.8 68.725 227.1 64.2299 223.5Z" fill="#BCBCBC"/>
<path d="M65.8282 452.5C63.7305 448.4 60.534 446.2 56.6382 446.2C55.1398 446.2 50.9444 447.4 46.4493 449C42.2539 450.5 38.3582 451.8 37.8587 451.8C36.9597 451.8 29.0683 449.2 22.4755 446.8C19.8783 445.8 19.279 445.3 19.279 444.2C19.279 441.6 16.5819 438.8 10.988 435.4C5.29422 432 3.2964 431.4 0.0998895 433.1V437.5C1.49836 436.5 2.89684 435.6 3.2964 435.6C4.19542 435.6 12.1867 440.2 13.785 441.6C15.2833 443 15.1834 443.4 13.0857 443.8C10.089 444.5 8.99019 446.8 8.99019 452.2V456.8L6.79259 457.3C3.2964 458.1 1.49836 457.6 0.0998895 454.4V460.4C0.499454 460.5 0.799127 460.6 1.0988 460.8C3.39629 461.6 4.39521 461.6 7.99128 461L12.1867 460.2L21.7762 463.6C27.0705 465.5 32.065 467.2 32.8642 467.4C33.7632 467.6 34.7621 468.6 35.3614 469.9C36.4602 472.1 41.9542 475.8 46.2495 477C48.3473 477.6 49.0465 477.6 51.4439 476.4C52.9422 475.7 54.6404 475.1 55.2397 475.1C56.9379 475.1 60.8336 472.3 62.9314 469.8C68.0258 463.4 68.8249 458.5 65.8282 452.5ZM21.8761 459.7L13.0857 456.6L12.8859 453.2C12.7861 451.3 12.8859 449.3 13.0857 448.6C13.5852 447.1 13.4853 447.1 19.4788 449.5C26.0716 452.2 33.1638 454.6 35.8609 455.1C37.0596 455.3 38.6578 455.9 39.457 456.4L40.8554 457.3L39.1573 459.3C38.1584 460.5 36.9597 462 36.4602 462.8C35.3614 464.5 35.9608 464.6 21.8761 459.7ZM49.2463 473.4C47.5481 474.5 39.3571 470 39.0574 467.8C38.9575 467 39.7566 465.1 41.0552 463.1C42.2539 461.3 43.3527 459.8 43.4526 459.8C44.2517 459.9 51.344 468.5 51.344 469.3C51.344 470.5 50.1453 472.9 49.2463 473.4ZM58.8358 468.7C57.5372 469.9 57.5372 469.8 56.1388 468.1C55.3396 467.1 52.1431 463.7 49.0465 460.4C45.85 457.2 43.2528 454.3 43.2528 454.1C43.2528 453.9 44.2517 453.5 45.5503 453.3C46.8489 453.1 49.3462 452.2 51.1442 451.4C55.2397 449.6 57.9368 449.6 60.1344 451.3C62.1322 452.9 63.7305 456.5 63.7305 459.3C63.7305 461.5 60.9335 466.8 58.8358 468.7Z" fill="#BCBCBC"/>
<path d="M2.1976 635C5.49401 632.7 8.59063 628.7 8.39085 627.2C8.09118 625.4 5.79368 625.2 4.69488 626.8C3.79586 628.1 3.69597 628 1.19869 625.3C0.799129 624.8 0.399563 624.4 0.0998895 623.9V629.6L1.19869 630.8L0.0998895 631.7V637.3C0.299672 636.6 0.89902 636 2.1976 635Z" fill="#BCBCBC"/>
<path d="M64.2299 623.6C61.6328 621.5 61.2332 619.9 62.9314 618.7C67.9259 615.1 66.8271 607.5 60.9335 604.9C58.3364 603.8 55.5394 603.8 52.5427 605C49.6458 606.1 48.0476 608.1 46.9488 611.9C46.5492 613.4 45.7501 614.8 45.1507 615.1C43.952 615.7 33.8631 617.3 22.6753 618.5L14.0846 619.5L10.8881 616.4C6.99237 612.8 3.59608 611.8 0.0998895 613.4V617.8C0.299672 617.7 0.399563 617.6 0.599345 617.4C3.39629 615.7 5.09444 616.3 8.79041 620.1L11.887 623.4L19.8783 622.6C30.4668 621.5 41.4548 620 44.5514 619.2C47.9477 618.3 48.8467 617.4 50.445 613C51.5438 609.9 52.1431 609.1 53.9412 608.4C56.9379 607.1 58.4363 607.4 60.8336 609.6C62.8315 611.4 62.5318 612.9 59.5351 616.2C56.5383 619.5 55.1399 623.4 55.939 626.4C56.5383 628.7 59.1355 629 59.7348 626.8L60.0345 625.4L61.7327 626.7C65.6284 629.7 62.6317 634.7 56.9379 634.7C55.1399 634.7 54.1409 634.2 51.8434 631.8L48.9466 629L43.9521 629.4C36.5601 630.2 18.4798 632.9 14.8838 634C12.3865 634.7 11.4875 635.3 10.988 636.6C9.28987 641.2 4.3952 644.9 1.79804 643.5C0.799127 643 0.299672 642.2 0.0998895 640.9V647C0.599345 647.3 1.0988 647.5 1.69815 647.6C5.89357 648.4 10.5884 645.6 13.4853 640.7C14.684 638.6 15.583 637.9 17.381 637.4C20.2779 636.6 29.9673 635.2 39.9564 634L47.648 633L49.8456 635.4C53.6415 639.7 60.534 639.9 64.7294 635.9C68.9248 631.9 68.725 627.2 64.2299 623.6Z" fill="#BCBCBC"/>
<path d="M65.8282 852.6C63.7305 848.5 60.534 846.3 56.6382 846.3C55.1398 846.3 50.9444 847.5 46.4493 849.1C42.2539 850.6 38.3582 851.9 37.8587 851.9C36.9597 851.9 29.0683 849.3 22.4755 846.9C19.8783 845.9 19.279 845.4 19.279 844.3C19.279 841.7 16.5819 838.9 10.988 835.5C5.29422 832.1 3.19651 831.5 0 833.3V837.7C1.49837 836.6 2.89684 835.8 3.2964 835.8C4.19542 835.8 12.1867 840.4 13.785 841.8C15.2833 843.2 15.1834 843.6 13.0857 844C10.089 844.7 8.99019 847.1 8.99019 852.4V857L6.79259 857.5C3.2964 858.3 1.49837 857.8 0 854.5V860.6C0.399564 860.7 0.799127 860.9 1.0988 861C3.39629 861.8 4.39521 861.8 7.99128 861.2L12.1867 860.4L21.7762 863.8C27.0705 865.7 32.065 867.4 32.8642 867.6C33.7632 867.8 34.7621 868.8 35.3614 870.1C36.4602 872.3 41.9542 876 46.2495 877.2C48.3473 877.8 49.0465 877.8 51.4439 876.6C52.9422 875.9 54.6404 875.3 55.2397 875.3C56.9379 875.3 60.8336 872.5 62.9314 870C68.0258 863.5 68.8249 858.6 65.8282 852.6ZM21.8761 859.8L13.0857 856.7L12.8859 853.3C12.7861 851.4 12.8859 849.4 13.0857 848.7C13.5852 847.2 13.4853 847.2 19.4788 849.6C26.0716 852.3 33.1638 854.7 35.8609 855.2C37.0596 855.4 38.6578 856 39.457 856.5L40.8554 857.4L39.1573 859.4C38.1584 860.6 36.9597 862.1 36.4602 862.9C35.3614 864.6 35.9608 864.7 21.8761 859.8ZM49.2463 873.5C47.5481 874.6 39.3571 870.1 39.0574 867.9C38.9575 867.1 39.7566 865.2 41.0552 863.2C42.2539 861.4 43.3527 859.9 43.4526 859.9C44.2517 860 51.344 868.6 51.344 869.4C51.344 870.6 50.1453 873 49.2463 873.5ZM58.8358 868.8C57.5372 870 57.5372 869.9 56.1388 868.2C55.3396 867.2 52.1431 863.8 49.0465 860.5C45.85 857.3 43.2528 854.4 43.2528 854.2C43.2528 854 44.2517 853.6 45.5503 853.4C46.8489 853.2 49.3462 852.3 51.1442 851.5C55.2397 849.7 57.9368 849.7 60.1344 851.4C62.1322 853 63.7305 856.6 63.7305 859.4C63.7305 861.6 60.9335 866.9 58.8358 868.8Z" fill="#BCBCBC"/>
<path d="M64.2299 1023.8C61.6328 1021.7 61.2332 1020.1 62.9314 1018.9C67.9259 1015.2 66.8271 1007.7 60.9335 1005.1C58.3364 1004 55.5394 1004 52.5427 1005.2C49.6458 1006.3 48.0476 1008.3 46.9488 1012.1C46.5492 1013.6 45.7501 1015 45.1507 1015.3C43.952 1015.9 33.8631 1017.5 22.6753 1018.7L14.0846 1019.6L10.8881 1016.5C6.99237 1012.9 3.59608 1011.9 0 1013.6V1018.2C0.199782 1018.1 0.399563 1017.9 0.599345 1017.8C3.39629 1016.1 5.09444 1016.7 8.79041 1020.5L11.887 1023.8L19.8783 1023C30.4668 1021.9 41.4548 1020.4 44.5514 1019.6C47.9477 1018.7 48.8467 1017.8 50.445 1013.4C51.5438 1010.3 52.1431 1009.5 53.9412 1008.8C56.9379 1007.5 58.4363 1007.8 60.8336 1010C62.8315 1011.8 62.5318 1013.3 59.5351 1016.6C56.5383 1019.9 55.1399 1023.8 55.939 1026.8C56.5383 1029.1 59.1355 1029.4 59.7348 1027.2L60.0345 1025.8L61.7327 1027.1C65.8282 1030.1 62.8315 1035.1 57.1377 1035.1C55.3396 1035.1 54.3407 1034.6 52.0432 1032.3L49.1464 1029.5L44.1518 1029.9C36.4602 1030.5 18.4798 1033.2 14.8838 1034.3C12.3865 1035 11.4875 1035.6 10.988 1036.9C9.28987 1041.5 4.3952 1045.2 1.79804 1043.8C0.799127 1043.2 0.199782 1042.4 0 1041V1047.2C0.499455 1047.5 1.0988 1047.7 1.69815 1047.8C5.89357 1048.6 10.5884 1045.8 13.4853 1040.9C14.684 1038.8 15.583 1038.1 17.381 1037.6C20.2779 1036.8 29.9673 1035.4 39.9564 1034.2L47.8478 1033.2L50.0454 1035.7C53.8413 1040 60.7337 1040.2 64.9292 1036.2C68.9248 1032 68.725 1027.3 64.2299 1023.8Z" fill="#BCBCBC"/>
<path d="M2.1976 1035.2C5.49401 1032.9 8.59063 1028.9 8.39085 1027.4C8.09118 1025.6 5.79368 1025.4 4.69488 1027C3.79586 1028.3 3.69597 1028.2 1.19869 1025.5C0.699238 1025 0.399564 1024.5 0 1024.1V1029.7L1.19869 1031L0 1032V1037.8C0.199782 1036.9 0.799129 1036.2 2.1976 1035.2Z" fill="#BCBCBC"/>
<path d="M65.7283 1252.8C63.6306 1248.6 60.4341 1246.5 56.5383 1246.5C55.04 1246.5 50.8445 1247.7 46.3494 1249.3C42.154 1250.8 38.2583 1252.1 37.7588 1252.1C36.8598 1252.1 28.9684 1249.5 22.3756 1247C19.7784 1246 19.1791 1245.5 19.1791 1244.4C19.1791 1241.8 16.482 1239 10.8881 1235.6C5.19434 1232.2 3.19651 1231.6 0 1233.3V1237.9C1.49837 1236.8 2.89684 1236 3.2964 1236C4.19542 1236 12.1867 1240.6 13.785 1242C15.2833 1243.3 15.1834 1243.8 13.0857 1244.2C10.089 1244.8 8.99019 1247.2 8.99019 1252.6V1257.2L6.79259 1257.7C3.2964 1258.5 1.49837 1258 0 1254.7V1260.7C0.399564 1260.8 0.699237 1260.9 0.99891 1261.1C3.2964 1261.9 4.29532 1261.9 7.89139 1261.3L12.0868 1260.5L21.6764 1263.9C26.9706 1265.8 31.9651 1267.5 32.7643 1267.7C33.6633 1267.9 34.6622 1268.9 35.2615 1270.1C36.3603 1272.4 41.8543 1276 46.1497 1277.3C48.2474 1277.9 48.9466 1277.9 51.344 1276.7C52.8424 1276 54.5405 1275.4 55.1398 1275.4C56.838 1275.4 60.7337 1272.6 62.8315 1270.1C67.9259 1263.6 68.725 1258.7 65.7283 1252.8ZM21.8761 1259.9L13.0857 1256.8L12.8859 1253.4C12.7861 1251.5 12.8859 1249.5 13.0857 1248.8C13.5852 1247.3 13.4853 1247.3 19.4788 1249.7C26.0716 1252.4 33.1638 1254.8 35.8609 1255.3C37.0596 1255.5 38.6578 1256.1 39.457 1256.6L40.8554 1257.5L39.1573 1259.5C38.1584 1260.7 36.9597 1262.2 36.4602 1263C35.3614 1264.7 35.9608 1264.9 21.8761 1259.9ZM49.2463 1273.7C47.5481 1274.8 39.3571 1270.3 39.0574 1268.1C38.9575 1267.3 39.7566 1265.4 41.0552 1263.4C42.2539 1261.6 43.3527 1260.1 43.4526 1260.1C44.2517 1260.2 51.344 1268.8 51.344 1269.6C51.344 1270.7 50.1453 1273.1 49.2463 1273.7ZM58.8358 1268.9C57.5372 1270.1 57.5372 1270 56.1388 1268.3C55.3396 1267.3 52.1431 1263.9 49.0465 1260.6C45.85 1257.4 43.2528 1254.5 43.2528 1254.3C43.2528 1254.1 44.2517 1253.7 45.5503 1253.5C46.8489 1253.3 49.3462 1252.4 51.1442 1251.6C55.2397 1249.8 57.9368 1249.8 60.1344 1251.5C62.1322 1253.1 63.7305 1256.7 63.7305 1259.5C63.6306 1261.7 60.9335 1267 58.8358 1268.9Z" fill="#BCBCBC"/>
</svg>
