<svg width="36" height="15" viewBox="0 0 36 15" fill="none" xmlns="http://www.w3.org/2000/svg">
<path fill-rule="evenodd" clip-rule="evenodd" d="M0.397049 1.13978C1.14817 -0.00789582 2.71195 -0.344991 3.88984 0.386863L18 9.15385L32.1102 0.386863C33.2881 -0.344991 34.8518 -0.00789582 35.603 1.13978C36.3541 2.28747 36.0081 3.81113 34.8302 4.54298L18 15L1.16979 4.54298C-0.00810442 3.81113 -0.354073 2.28747 0.397049 1.13978Z" fill="#909090" fill-opacity="0.35"/>
<path d="M17.8153 9.45114L18 9.5659L18.1847 9.45114L32.2949 0.684153C33.3143 0.0507698 34.665 0.345734 35.3101 1.33145C35.9515 2.31156 35.6597 3.61557 34.6455 4.24569L18 14.5879L1.3545 4.24569C0.340348 3.61557 0.0484509 2.31156 0.689904 1.33145C1.33502 0.345734 2.68572 0.0507698 3.70513 0.684153L17.8153 9.45114Z" stroke="white" stroke-opacity="0.35" stroke-width="0.7" stroke-linecap="round"/>
</svg>
