<svg width="37" height="16" viewBox="0 0 37 16" fill="none" xmlns="http://www.w3.org/2000/svg">
<path fill-rule="evenodd" clip-rule="evenodd" d="M36.103 14.3602C35.3518 15.5079 33.7881 15.845 32.6102 15.1131L18.5 6.34615L4.38984 15.1131C3.21195 15.845 1.64817 15.5079 0.897048 14.3602C0.145929 13.2125 0.491892 11.6889 1.66979 10.957L18.5 0.5L35.3302 10.957C36.5081 11.6889 36.8541 13.2125 36.103 14.3602Z" fill="#909090" fill-opacity="0.35"/>
<path d="M18.6847 6.04886L18.5 5.9341L18.3153 6.04886L4.20513 14.8158C3.18572 15.4492 1.83503 15.1543 1.1899 14.1686C0.54845 13.1884 0.840343 11.8844 1.8545 11.2543L18.5 0.912056L35.1455 11.2543C36.1597 11.8844 36.4515 13.1884 35.8101 14.1686C35.165 15.1543 33.8143 15.4492 32.7949 14.8158L18.6847 6.04886Z" stroke="white" stroke-opacity="0.35" stroke-width="0.7" stroke-linecap="round"/>
</svg>
