<svg width="15" height="18" viewBox="0 0 15 18" fill="none" xmlns="http://www.w3.org/2000/svg">
<path fill-rule="evenodd" clip-rule="evenodd" d="M3.81475 0.213666C3.75139 0.228915 3.6595 0.261416 3.61058 0.285895C3.45777 0.362332 0.0192326 3.01501 0.00440931 3.06789C-0.0113839 3.12423 0.0152894 3.16743 0.0837759 3.19638C0.145852 3.22262 7.84259 4.05745 8.02182 4.05739C8.15706 4.05733 8.35951 4.013 8.46144 3.96108C8.49513 3.94391 9.19729 3.42668 10.0218 2.81166C11.6022 1.6328 11.6057 1.63046 11.6601 1.73721C11.6779 1.7722 11.5706 2.33086 11.1303 4.49747C10.7582 6.32801 10.5708 7.29386 10.5555 7.45921C10.5363 7.66892 10.5598 8.43116 10.7179 12.7061C10.8378 15.9469 10.9115 17.7335 10.9272 17.7814C10.9586 17.8765 11.0435 17.9336 11.147 17.9292C11.2576 17.9246 14.702 16.6952 14.7965 16.6267C14.8364 16.5978 14.8985 16.5277 14.9345 16.4708L15 16.3675V11.2528V6.13807L14.9511 5.97798C14.8901 5.77794 14.9186 5.82782 13.3592 3.1938C12.469 1.69016 12.0356 0.976628 11.9754 0.915572C11.8758 0.814372 11.678 0.719627 11.5314 0.702886C11.4792 0.696922 10.165 0.603008 8.61102 0.494164C7.057 0.38532 5.42652 0.27089 4.98773 0.239862C4.09445 0.176711 3.97909 0.174145 3.81475 0.213666ZM10.8088 3.00978C10.7675 3.03832 10.3288 3.45038 9.83397 3.92548C9.33915 4.40057 8.90557 4.80257 8.87042 4.81884C8.76322 4.86846 8.63788 4.90427 8.51613 4.92004C8.37459 4.93839 8.94742 5.00454 3.10764 4.29541C2.69383 4.24515 2.43313 4.22189 2.35383 4.22814C2.22149 4.23858 2.09038 4.29663 1.99769 4.38587C1.93241 4.4487 0.697983 6.50838 0.634304 6.66073C0.518417 6.93794 0.524595 6.64272 0.525101 11.8795C0.525544 16.5083 0.527146 16.7104 0.563962 16.7829C0.604763 16.8633 0.728578 16.9723 0.810897 17.0003C0.838182 17.0096 2.0493 17.1537 3.50226 17.3206C4.95522 17.4874 6.87743 17.7086 7.77387 17.812C8.67031 17.9154 9.44363 18 9.49236 18C9.59463 17.9999 9.69839 17.9501 9.75378 17.8744C9.79013 17.8248 9.79235 17.5986 9.80346 12.7824C9.81506 7.75734 9.81523 7.74173 9.8594 7.54414C9.88378 7.43515 10.1467 6.39475 10.4436 5.23214C10.7405 4.06953 10.9885 3.09847 10.9947 3.07423C11.0254 2.95384 10.9352 2.92255 10.8088 3.00978ZM3.5395 10.5193C3.62886 10.5866 3.75012 10.809 3.84686 11.0829C3.89085 11.2075 3.92914 11.3122 3.93195 11.3157C3.93473 11.3192 4.02084 11.2923 4.12328 11.256C4.37652 11.1663 4.52313 11.1412 4.78396 11.143C5.12704 11.1453 5.41358 11.244 5.67605 11.4503C5.71964 11.4846 5.75784 11.5094 5.76094 11.5054C5.76402 11.5014 5.80672 11.3877 5.85581 11.2528C5.96526 10.9519 6.09787 10.722 6.19634 10.6627C6.23554 10.639 6.27776 10.6223 6.29015 10.6256C6.33635 10.6376 6.4285 10.8437 6.46928 11.0263C6.5291 11.2941 6.56201 11.7026 6.54573 11.9757L6.5319 12.208L6.61207 12.1945C6.65614 12.1871 6.90571 12.1407 7.16665 12.0913C7.64099 12.0015 7.64108 12.0015 7.67798 12.0397C7.72548 12.089 7.72493 12.1529 7.67656 12.2063C7.64388 12.2425 7.55192 12.2644 7.05055 12.3559L6.46285 12.4632L6.43702 12.5657C6.4228 12.6221 6.41397 12.6708 6.41736 12.6739C6.42078 12.677 6.6643 12.7214 6.95853 12.7727C7.40272 12.8501 7.49974 12.8727 7.53038 12.906C7.57847 12.9583 7.57719 13.0212 7.52687 13.0767L7.4865 13.1213L6.92072 13.0198C6.60954 12.964 6.34515 12.915 6.33317 12.9108C6.32119 12.9067 6.28577 12.9501 6.25446 13.0073L6.19752 13.1112L6.31097 13.1761C6.52996 13.3015 6.77865 13.4214 6.99796 13.5073C7.28091 13.6181 7.27207 13.6123 7.27207 13.6886C7.27207 13.7562 7.21287 13.829 7.15798 13.829C7.07052 13.829 6.48773 13.5711 6.1886 13.4001L6.02237 13.305L5.91544 13.3774C5.71985 13.5099 5.46066 13.5636 5.01286 13.5645C4.38364 13.5656 3.89327 13.4404 3.57205 13.1965L3.43569 13.0929L3.28221 13.147C3.00856 13.2433 2.31838 13.4327 2.24097 13.4327C2.15958 13.4327 2.11081 13.2575 2.17824 13.2074C2.19475 13.1951 2.31098 13.161 2.43654 13.1314C2.56211 13.1019 2.72177 13.0606 2.79135 13.0395C3.02589 12.9687 3.28687 12.8818 3.28687 12.8746C3.28687 12.8707 3.26553 12.828 3.23943 12.7796L3.19198 12.6918L3.00221 12.7031C2.2135 12.7498 1.87596 12.7592 1.84391 12.7354C1.79832 12.7016 1.80243 12.5986 1.85123 12.5517C1.88553 12.5188 1.92737 12.5111 2.13061 12.5005C2.70606 12.4706 3.10806 12.447 3.11321 12.4427C3.11626 12.4402 3.11144 12.3926 3.1025 12.337L3.08624 12.2359L2.91772 12.2095C2.30394 12.1136 1.90402 12.0346 1.8794 12.0045C1.84231 11.9591 1.84625 11.8381 1.88578 11.8087C1.91142 11.7897 1.94461 11.7888 2.03866 11.8049C2.10472 11.8161 2.33907 11.8559 2.55941 11.8931C2.77976 11.9304 2.98614 11.9657 3.01803 11.9717L3.07601 11.9824V11.8319C3.07601 11.5249 3.16668 10.9328 3.24784 10.71C3.29783 10.5728 3.37773 10.4695 3.43392 10.4695C3.45564 10.4695 3.50315 10.4919 3.5395 10.5193Z" fill="#EA5513"/>
</svg>
