<svg width="16" height="12" viewBox="0 0 16 12" fill="none" xmlns="http://www.w3.org/2000/svg">
<path fill-rule="evenodd" clip-rule="evenodd" d="M2.5016 3.49785L0 6.49754L0.00448634 8.59783L0.00897267 10.6981L0.0475214 10.8117C0.13068 11.0567 0.337458 11.2895 0.57195 11.4024C0.794032 11.5092 0.232681 11.5017 8.00127 11.502C15.012 11.5023 15.0979 11.5019 15.2271 11.4689C15.566 11.3822 15.8296 11.1363 15.9443 10.7997L15.9905 10.6643L15.9953 8.58706L16 6.50987L15.0557 5.37884C14.5363 4.75677 13.4069 3.40411 12.5459 2.37293L10.9805 0.498047L7.99186 0.498115L5.00321 0.498165L2.5016 3.49785ZM12.5894 3.99824L14.6563 6.48266L11.3238 6.48693C9.49092 6.48928 6.49035 6.48928 4.65588 6.48693L1.32046 6.48266L3.38734 3.99824L5.45423 1.51382H7.98839H10.5225L12.5894 3.99824ZM4.87021 2.99445C4.64074 3.26875 4.45299 3.4973 4.45299 3.50234C4.45299 3.50739 6.04522 3.51152 7.99128 3.51152C9.93734 3.51152 11.5296 3.50732 11.5296 3.50217C11.5296 3.49704 11.3421 3.26849 11.1131 2.99428L10.6966 2.49574H7.99199H5.28744L4.87021 2.99445ZM3.20926 4.9828C2.98613 5.25173 2.80075 5.48018 2.79731 5.49049C2.79276 5.50413 4.1992 5.50921 7.99128 5.50921C11.7468 5.50921 13.1898 5.50406 13.1853 5.49071C13.1819 5.48051 12.9969 5.25196 12.774 4.98282L12.3689 4.49343L7.99196 4.49364L3.61498 4.49386L3.20926 4.9828ZM10.954 7.51972C10.954 7.52676 10.7387 7.74769 10.4756 8.01068L9.99722 8.48882H7.99106H5.9849L5.49416 7.99786L5.00343 7.5069H7.97869C9.61509 7.5069 10.954 7.51266 10.954 7.51972Z" fill="#EA5513"/>
</svg>
