<svg width="16" height="16" viewBox="0 0 16 16" fill="none" xmlns="http://www.w3.org/2000/svg">
<path fill-rule="evenodd" clip-rule="evenodd" d="M5.57233 0.0325231C5.37322 0.0959282 5.22556 0.219047 5.13983 0.393093C5.08908 0.496131 5.08899 0.498131 5.08291 1.56734L5.0768 2.63837H3.6631C2.09905 2.63837 2.15981 2.63325 1.95664 2.78238C1.79017 2.90458 1.75922 2.98371 1.32551 4.39596C1.30141 4.4745 1.22535 4.71672 1.15654 4.93422C1.08773 5.15172 0.98882 5.46809 0.936773 5.63726C0.884705 5.80643 0.68702 6.43916 0.497486 7.04333C0.30793 7.6475 0.125646 8.2308 0.0924053 8.33955C0.0591869 8.4483 0.0247821 8.55951 0.0159942 8.58671L0 8.63615H8H16L15.984 8.58671C15.9752 8.55951 15.9409 8.4483 15.9077 8.33955C15.8745 8.2308 15.7683 7.88972 15.6716 7.58159C15.575 7.27346 15.476 6.9571 15.4516 6.87856C15.4271 6.80001 15.3512 6.5578 15.2829 6.34029C15.2145 6.12279 15.1159 5.80643 15.0637 5.63726C14.6618 4.33495 14.2729 3.11448 14.2305 3.02284C14.1666 2.88467 14.0535 2.76874 13.917 2.70151L13.811 2.64935L12.3665 2.6434L10.922 2.63745L10.9221 1.59983C10.9222 0.666156 10.9183 0.551364 10.8837 0.453839C10.8318 0.307938 10.6668 0.13097 10.5215 0.0653023L10.4057 0.01297L8.03296 0.00875171C6.16209 0.00541229 5.64162 0.0104434 5.57233 0.0325231ZM9.56199 1.452C9.56318 1.50033 9.56412 1.75243 9.56412 2.01223C9.56412 2.27202 9.56318 2.51925 9.56199 2.56163L9.55986 2.63866L7.99508 2.63303L6.43032 2.62739L6.42852 2.08912C6.42755 1.79308 6.43104 1.50885 6.43629 1.45749L6.44585 1.36412H8.00286H9.55986L9.56199 1.452ZM5.26723 4.08711C5.38565 4.13937 5.52329 4.26113 5.57912 4.36301C5.66698 4.52339 5.67051 4.57264 5.67086 5.64192C5.67119 6.64767 5.66977 6.68298 5.62429 6.80454C5.56536 6.96202 5.43741 7.10239 5.28461 7.17715C5.18887 7.22399 5.13508 7.23495 5.00111 7.23495C4.79323 7.23495 4.64037 7.16651 4.50033 7.01075C4.32842 6.81957 4.32853 6.82047 4.33571 5.59178C4.34197 4.52523 4.34241 4.516 4.39182 4.41573C4.55409 4.08636 4.93856 3.94206 5.26723 4.08711ZM8.29714 4.09869C8.43496 4.16611 8.55894 4.30123 8.62546 4.45657C8.66828 4.55654 8.67008 4.60412 8.67008 5.63772V6.7147L8.59798 6.86118C8.4767 7.10753 8.26647 7.23739 7.98899 7.23739C7.85449 7.23739 7.81433 7.22737 7.69574 7.16416C7.53753 7.07984 7.46675 7.00433 7.38682 6.83462L7.32992 6.71378L7.32339 5.69671C7.31786 4.83101 7.32201 4.65936 7.3513 4.54329C7.45873 4.11758 7.90603 3.90733 8.29714 4.09869ZM11.2792 4.09412C11.4193 4.15825 11.5389 4.27504 11.6079 4.41514C11.6577 4.51618 11.658 4.52336 11.6643 5.59178C11.6715 6.82047 11.6716 6.81957 11.4997 7.01075C11.2316 7.3089 10.7778 7.31523 10.5099 7.02459C10.4619 6.97252 10.4015 6.8735 10.3757 6.80454C10.3303 6.68307 10.3288 6.64717 10.3288 5.6453C10.3288 4.45765 10.3296 4.45117 10.4977 4.26419C10.7096 4.02847 10.9985 3.96561 11.2792 4.09412ZM0.0032516 9.99279C0.00340539 10.0019 0.0289563 10.0884 0.0600657 10.185C0.114507 10.3543 0.392118 11.2401 0.497244 11.5801C0.525278 11.6707 0.604391 11.9228 0.673069 12.1403C0.741725 12.3578 0.815961 12.5951 0.838019 12.6676C0.89525 12.8556 0.96953 13.0937 1.11229 13.5464C1.18088 13.7639 1.25191 13.9913 1.27012 14.0517C1.28834 14.1121 1.38724 14.4285 1.48991 14.7548C1.59257 15.081 1.69574 15.4093 1.71916 15.4843C1.79694 15.7334 1.99642 15.9251 2.22764 15.9729C2.30897 15.9897 4.02271 15.995 8.06591 15.9909L13.7891 15.9851L13.889 15.9388C14.0188 15.8788 14.14 15.7712 14.2056 15.658C14.2343 15.6083 14.327 15.3452 14.4114 15.0733C14.607 14.4434 14.8682 13.608 15.0192 13.129C15.0839 12.9236 15.1516 12.7061 15.1695 12.6456C15.1875 12.5852 15.2384 12.4221 15.2828 12.2831C15.3272 12.1442 15.4063 11.8921 15.4586 11.7229C15.6025 11.2578 15.8762 10.3832 15.9399 10.185C15.971 10.0884 15.9966 10.0019 15.9967 9.99279C15.9969 9.98371 12.3984 9.97631 8 9.97631C3.60163 9.97631 0.00309781 9.98371 0.0032516 9.99279Z" fill="#EA5513"/>
</svg>
