<svg width="19" height="18" viewBox="0 0 19 18" fill="none" xmlns="http://www.w3.org/2000/svg">
<path fill-rule="evenodd" clip-rule="evenodd" d="M9.12314 0.0267282C9.07357 0.0426897 8.99071 0.0848972 8.93901 0.120514C8.86733 0.169915 7.79226 1.4897 4.40652 5.68471C0.202977 10.893 -0.0301853 11.1859 0.00245693 11.2166C0.0214124 11.2344 0.202549 11.3826 0.405013 11.5459L0.773099 11.8428L0.813284 11.7931C0.83537 11.7658 2.76066 9.37994 5.0917 6.4912L9.32994 1.23896L9.40771 1.32705C9.45048 1.3755 11.4496 3.75963 13.8501 6.62511C16.2506 9.4906 18.2215 11.8356 18.2298 11.8362C18.2415 11.8371 18.8772 11.3153 18.9996 11.2042C19.0215 11.1843 18.2275 10.2268 14.4515 5.72002C11.9354 2.717 9.84184 0.227073 9.79914 0.186848C9.62907 0.0265921 9.33782 -0.0423863 9.12314 0.0267282ZM9.26855 2.14086C9.24549 2.15427 9.03929 2.39709 8.81037 2.68045C8.58143 2.96381 7.07224 4.83343 5.45659 6.83514L2.51906 10.4746L3.16794 14.1743C3.52481 16.2091 3.82189 17.9024 3.82814 17.9372L3.83949 18.0004H9.16156H14.4837L15.4505 14.253C15.9823 12.192 16.4171 10.4957 16.4169 10.4835C16.4166 10.4713 16.3218 10.3489 16.2062 10.2114C16.0905 10.0738 14.5454 8.22906 12.7724 6.11188C10.9994 3.9947 9.52144 2.23421 9.48798 2.1997C9.41904 2.12859 9.33047 2.10483 9.26855 2.14086ZM7.73652 7.94014C8.08394 8.02982 8.43435 8.28266 8.70025 8.63554C8.85279 8.83797 9.0342 9.20992 9.10032 9.45582C9.147 9.62939 9.15264 9.68462 9.15295 9.97102C9.15326 10.2681 9.14943 10.3034 9.10086 10.4488C8.90095 11.0479 8.3692 11.2921 7.76957 11.0602C7.56611 10.9815 7.39971 10.8691 7.19451 10.6718C6.75651 10.2505 6.50121 9.66199 6.50121 9.07354C6.50121 8.50435 6.74599 8.09238 7.17168 7.94519C7.2963 7.90209 7.57935 7.89956 7.73652 7.94014ZM11.9059 7.98143C12.1521 8.09693 12.33 8.30896 12.4238 8.59887C12.492 8.80979 12.5088 9.18072 12.4615 9.432C12.3754 9.88942 12.1387 10.3372 11.815 10.6548C11.5291 10.9353 11.2457 11.0894 10.9277 11.1372C10.4574 11.2078 10.0534 10.94 9.88953 10.4488C9.84096 10.3034 9.83713 10.2681 9.83744 9.97102C9.83776 9.68556 9.84347 9.62918 9.88937 9.45899C9.94799 9.24173 10.0938 8.92306 10.2245 8.72645C10.4176 8.43599 10.7158 8.16902 10.9937 8.03771C11.2172 7.93219 11.322 7.90998 11.5657 7.91646C11.7569 7.92155 11.7929 7.92843 11.9059 7.98143ZM5.79002 10.1557C6.08092 10.2173 6.47327 10.4676 6.69712 10.7342C6.96341 11.0513 7.14878 11.4306 7.22878 11.822C7.26889 12.0182 7.2687 12.3809 7.22838 12.5626C7.03972 13.4128 6.19741 13.6349 5.43828 13.0346C5.07426 12.7468 4.79418 12.3033 4.6584 11.8C4.61503 11.6391 4.60803 11.5729 4.60694 11.3125C4.60581 11.0493 4.61139 10.9927 4.651 10.8653C4.82239 10.314 5.25747 10.0429 5.79002 10.1557ZM13.6207 10.148C13.8691 10.1996 14.1306 10.3988 14.2439 10.6229C14.3749 10.8817 14.425 11.2472 14.3763 11.587C14.2592 12.4033 13.6249 13.1851 12.9508 13.3441C12.42 13.4692 11.9861 13.2236 11.8019 12.6937C11.7268 12.4775 11.7083 12.1186 11.7586 11.8515C11.953 10.8188 12.8593 9.98966 13.6207 10.148ZM9.91679 11.4962C10.6716 11.6568 11.3618 12.3342 11.5286 13.0782C11.5522 13.1833 11.5585 13.2857 11.5527 13.47L11.545 13.7196L11.6223 13.732C11.899 13.7762 12.1698 14.1008 12.274 14.5132C12.4292 15.1281 12.3338 15.5762 11.9755 15.9151C11.8286 16.054 11.6097 16.1709 11.4238 16.2097C11.295 16.2366 10.998 16.2371 10.7691 16.2109C10.4583 16.1753 10.2039 16.0946 9.7971 15.9027L9.5926 15.8063L9.2863 15.9192C8.56278 16.1858 8.09607 16.2758 7.78044 16.2095C7.55983 16.1632 7.29209 16.0061 7.14278 15.8354C7.05171 15.7313 6.94754 15.5425 6.90561 15.4055C6.82432 15.1401 6.86085 14.6761 6.98923 14.3433C7.05488 14.173 7.20337 13.9529 7.30692 13.8725C7.39678 13.8027 7.55762 13.7303 7.65858 13.7142L7.73695 13.7018L7.7182 13.554C7.62107 12.7878 8.26183 11.8791 9.12581 11.5579C9.36189 11.4701 9.67818 11.4454 9.91679 11.4962Z" fill="#EA5513"/>
</svg>
