<svg width="19" height="14" viewBox="0 0 19 14" fill="none" xmlns="http://www.w3.org/2000/svg">
<path fill-rule="evenodd" clip-rule="evenodd" d="M8.29669 0.190211C8.12649 0.285497 7.98654 0.399907 7.98564 0.444343C7.97923 0.741337 7.79012 0.802984 7.43238 0.624563C7.08847 0.453005 7.03335 0.452892 6.67448 0.624114C6.13067 0.883421 5.89903 1.44939 6.12009 1.97858C6.20852 2.19008 6.39211 2.42272 6.52812 2.49562C6.77112 2.62556 7.30852 2.60396 7.65872 2.45007C7.79529 2.3901 7.86864 2.47965 7.97596 2.83762C8.05269 3.09366 8.09926 3.31674 8.07946 3.33328C7.84457 3.52981 7.3768 3.63882 6.69788 3.65525C5.97036 3.67268 5.81714 3.71634 5.38155 4.02919L4.88869 4.38345L4.53151 4.06429C3.92571 3.52295 3.02078 3.36928 2.27448 3.68101C0.687022 4.34418 0.311506 6.31964 1.55168 7.48421L1.89423 7.80584L1.42523 8.40399C1.13904 8.76882 0.865219 9.00529 0.722684 9.01036C0.424678 9.02093 0 9.469 0 9.77286C0 10.1586 0.380467 10.5263 0.801995 10.5475C1.01057 10.5581 1.51028 10.6209 1.91246 10.6871C3.29235 10.9141 4.78497 10.9515 7.48109 10.8266C12.0531 10.6148 13.3882 10.397 14.1593 9.73698C14.6722 9.29801 15.1229 8.45203 15.3061 7.58456C15.4445 6.92926 15.3413 6.95964 16.4809 7.23919C17.1388 7.40063 17.8698 7.85984 18.1187 8.26821C18.7348 9.27855 18.0254 10.4625 16.129 11.5891C15.2607 12.1048 13.0699 13.0816 11.6686 13.5778C11.1873 13.7481 10.8161 13.9098 10.8435 13.9373C10.9356 14.0293 12.7565 13.6105 13.9258 13.2283C18.1994 11.8319 20.0436 9.55754 18.4103 7.69751C17.9715 7.19768 17.1813 6.82385 16.1883 6.64645L15.4262 6.51021L15.3576 6.04886C15.119 4.44644 14.2469 3.09085 13.1374 2.59811C12.2999 2.22608 10.974 2.24487 9.73306 2.64615C9.23909 2.80589 8.80147 2.90017 8.76052 2.85584C8.71957 2.81141 8.6514 2.61059 8.60899 2.40956C8.54453 2.10345 8.56118 2.05531 8.7117 2.11302C9.22705 2.31079 10.0089 1.48157 9.86142 0.893771C9.6821 0.179411 8.92409 -0.161456 8.29669 0.190211ZM9.2248 0.693862C9.34855 0.817609 9.44979 0.994794 9.44979 1.0876C9.44979 1.18042 9.34855 1.3576 9.2248 1.48135C9.10105 1.60509 8.92387 1.70634 8.83106 1.70634C8.73825 1.70634 8.56106 1.60509 8.43732 1.48135C8.31357 1.3576 8.21232 1.18042 8.21232 1.0876C8.21232 0.994794 8.31357 0.817609 8.43732 0.693862C8.56106 0.570114 8.73825 0.468866 8.83106 0.468866C8.92387 0.468866 9.10105 0.570114 9.2248 0.693862ZM7.54296 1.26681C7.82691 1.79746 7.25699 2.38785 6.76054 2.07714C6.53521 1.93618 6.4649 1.40789 6.64298 1.19335C6.84908 0.945071 7.39458 0.989618 7.54296 1.26681ZM3.54964 4.36038C3.75719 4.45893 3.98973 4.61508 4.06634 4.70733C4.15589 4.81521 4.03529 4.78641 3.72873 4.62666C3.0506 4.27308 2.43062 4.36927 1.9407 4.90397C1.48126 5.40526 1.45651 5.93804 1.86003 6.64397C2.03283 6.94625 2.07277 7.08012 1.96297 6.989C1.67284 6.74814 1.34997 6.0204 1.34997 5.60719C1.34997 5.17025 1.66688 4.70924 2.18369 4.39402C2.60893 4.13471 3.05116 4.1238 3.54964 4.36038ZM3.42566 7.8847C3.50115 8.00687 2.96296 8.45619 2.741 8.45619C2.47382 8.45619 2.57496 8.13265 2.89681 7.95805C3.26479 7.75837 3.34106 7.74779 3.42566 7.8847ZM2.91279 8.11218C2.76474 8.23536 2.69724 8.33784 2.76283 8.33998C2.9372 8.34538 3.32993 8.03624 3.25005 7.95637C3.21248 7.91879 3.06072 7.98888 2.91279 8.11218Z" fill="#EA5513"/>
</svg>
