<svg width="18" height="12" viewBox="0 0 18 12" fill="none" xmlns="http://www.w3.org/2000/svg">
<path fill-rule="evenodd" clip-rule="evenodd" d="M9.33512 0.268774C8.54467 0.354295 7.84429 0.701219 7.30909 1.27234C7.03687 1.56284 6.76069 2.01703 6.64409 2.36594C6.62312 2.42866 6.59809 2.47999 6.58847 2.47999C6.57885 2.48001 6.48688 2.46409 6.38408 2.44463C6.12799 2.3962 5.52649 2.39606 5.26684 2.44438C4.31678 2.62122 3.4884 3.22477 3.03333 4.0717C2.9437 4.23849 2.83813 4.48557 2.81265 4.58813L2.79922 4.64223H9.07942H15.3596L15.3469 4.57438C15.3096 4.37542 15.1519 4.09279 14.9666 3.89261C14.7176 3.62371 14.2596 3.42247 13.8966 3.42247H13.7989L13.7489 3.30935C13.5632 2.88873 13.2032 2.58211 12.7226 2.43523C12.6408 2.41021 12.6354 2.40354 12.5719 2.24721C12.4045 1.83538 12.1901 1.51457 11.8642 1.18826C11.344 0.667479 10.6993 0.355338 9.9802 0.276073C9.79898 0.256105 9.48505 0.252544 9.33512 0.268774ZM2.25263 5.34226C2.1142 5.37893 1.94757 5.49312 1.86738 5.60624C1.81987 5.67327 1.5854 6.32572 0.90231 8.29169L0 10.8886V11.0558C0 11.259 0.0561288 11.3983 0.193293 11.5354C0.298114 11.6402 0.394101 11.6921 0.541024 11.7234C0.623023 11.7409 2.68877 11.745 9.06953 11.7405L17.4898 11.7346L17.5988 11.681C17.764 11.5998 17.8635 11.5039 17.9366 11.3554C17.9959 11.235 18.0012 11.2089 17.9998 11.0464L17.9983 10.8689L17.1086 8.32362C16.6193 6.9237 16.1981 5.73703 16.1725 5.68657C16.1126 5.56833 15.9721 5.43955 15.8308 5.3733L15.7192 5.32097L9.04002 5.31727C3.24416 5.31407 2.34653 5.31737 2.25263 5.34226ZM6.21764 6.77717C6.51955 6.85406 6.76532 7.0489 6.90598 7.32286L6.98413 7.47505L9.03018 7.47464L11.0762 7.47423L11.1448 7.33222C11.3999 6.80338 12.0753 6.59035 12.6092 6.87029C12.7788 6.95919 12.9927 7.1772 13.0677 7.33752C13.2621 7.75316 13.2012 8.21577 12.9106 8.53107L12.8327 8.61555L12.9234 8.71644C13.0879 8.89934 13.1794 9.15457 13.1768 9.42292C13.1738 9.72668 13.0824 9.94553 12.8691 10.1593C12.6411 10.3879 12.4053 10.4844 12.0732 10.485C11.6805 10.4857 11.3091 10.2494 11.139 9.89056L11.0762 9.75815L9.02825 9.75776L6.98027 9.75737L6.94407 9.84098C6.88944 9.96727 6.7482 10.1598 6.65446 10.2358C6.4433 10.407 6.22085 10.4853 5.94558 10.4853C5.52863 10.4853 5.16605 10.259 4.9882 9.8879C4.80024 9.49569 4.84688 9.07385 5.11612 8.73108C5.16426 8.66977 5.20367 8.61331 5.20367 8.6056C5.20367 8.59787 5.1737 8.55838 5.13707 8.51785C4.96837 8.33111 4.88395 8.10065 4.88129 7.81952C4.87982 7.66201 4.88847 7.59654 4.92473 7.49117C5.0512 7.12359 5.34337 6.85569 5.71345 6.76798C5.82954 6.74048 6.09236 6.74526 6.21764 6.77717Z" fill="#EA5513"/>
</svg>
