<svg width="18" height="18" viewBox="0 0 18 18" fill="none" xmlns="http://www.w3.org/2000/svg">
<path d="M2.0002 8.0002C1.4502 8.0002 0.979201 7.8042 0.587201 7.4122C0.398091 7.22943 0.24844 7.00984 0.147482 6.76699C0.0465231 6.52414 -0.00360135 6.26317 0.000201236 6.0002V2.0002C0.000201236 1.4502 0.196201 0.979201 0.587201 0.587201C0.7702 0.39811 0.98997 0.248482 1.23298 0.14753C1.47598 0.046578 1.73709 -0.0035609 2.0002 0.000201236H6.0002C6.5502 0.000201236 7.0212 0.196201 7.4132 0.587201C7.8042 0.979201 8.0002 1.4502 8.0002 2.0002V6.0002C8.0002 6.5502 7.8042 7.0202 7.4132 7.4122C7.23032 7.60152 7.0106 7.75137 6.76758 7.8525C6.52456 7.95362 6.2634 8.00389 6.0002 8.0002H2.0002ZM2.0002 18.0002C1.7371 18.0038 1.47604 17.9537 1.23305 17.8527C0.990055 17.7518 0.770272 17.6022 0.587201 17.4132C0.39811 17.2302 0.248482 17.0104 0.14753 16.7674C0.046578 16.5244 -0.0035609 16.2633 0.000201236 16.0002V12.0002C0.000201236 11.4502 0.196201 10.9792 0.587201 10.5872C0.7702 10.3981 0.98997 10.2485 1.23298 10.1475C1.47598 10.0466 1.73709 9.99644 2.0002 10.0002H6.0002C6.5502 10.0002 7.0212 10.1962 7.4132 10.5872C7.8042 10.9792 8.0002 11.4502 8.0002 12.0002V16.0002C8.00385 16.2633 7.95365 16.5244 7.85271 16.7674C7.75176 17.0103 7.6022 17.2301 7.4132 17.4132C7.2302 17.6023 7.01043 17.7519 6.76742 17.8529C6.52442 17.9538 6.26332 18.004 6.0002 18.0002H2.0002ZM12.0002 8.0002C11.4502 8.0002 10.9802 7.8042 10.5882 7.4122C10.3988 7.22958 10.2489 7.01005 10.1478 6.76718C10.0466 6.52431 9.99641 6.26326 10.0002 6.0002V2.0002C10.0002 1.4502 10.1962 0.979201 10.5882 0.587201C10.771 0.398091 10.9906 0.24844 11.2334 0.147482C11.4763 0.0465231 11.7372 -0.00360135 12.0002 0.000201236H16.0002C16.5502 0.000201236 17.0212 0.196201 17.4132 0.587201C17.8042 0.979201 18.0002 1.4502 18.0002 2.0002V6.0002C18.0002 6.5502 17.8042 7.0202 17.4132 7.4122C17.2303 7.60152 17.0106 7.75137 16.7676 7.8525C16.5246 7.95362 16.2634 8.00389 16.0002 8.0002H12.0002ZM12.0002 18.0002C11.4502 18.0002 10.9802 17.8042 10.5882 17.4132C10.3989 17.2303 10.249 17.0106 10.1479 16.7676C10.0468 16.5246 9.99651 16.2634 10.0002 16.0002V12.0002C10.0002 11.4502 10.1962 10.9792 10.5882 10.5872C10.771 10.3981 10.9906 10.2484 11.2334 10.1475C11.4763 10.0465 11.7372 9.9964 12.0002 10.0002H16.0002C16.5502 10.0002 17.0212 10.1962 17.4132 10.5872C17.8042 10.9792 18.0002 11.4502 18.0002 12.0002V16.0002C18.0038 16.2633 17.9537 16.5244 17.8527 16.7674C17.7518 17.0103 17.6022 17.2301 17.4132 17.4132C17.2302 17.6023 17.0104 17.7519 16.7674 17.8529C16.5244 17.9538 16.2633 18.004 16.0002 18.0002H12.0002Z" fill="#D4D6D8"/>
</svg>
