<svg width="18" height="18" viewBox="0 0 18 18" fill="none" xmlns="http://www.w3.org/2000/svg">
<path d="M5.59811 13.85C4.66345 13.85 3.90723 14.615 3.90723 15.55C3.90723 16.485 4.66345 17.25 5.59811 17.25C6.53276 17.25 7.29748 16.485 7.29748 15.55C7.29748 14.615 6.53276 13.85 5.59811 13.85ZM0.5 1.1C0.5 1.5675 0.882358 1.95 1.34968 1.95H2.19937L5.25823 8.4015L4.11116 10.4755C3.49089 11.6145 4.30659 13 5.59811 13H14.9446C15.412 13 15.7943 12.6175 15.7943 12.15C15.7943 11.6825 15.412 11.3 14.9446 11.3H5.59811L6.53276 9.6H12.8629C13.5002 9.6 14.061 9.2515 14.3499 8.7245L17.3917 3.208C17.7061 2.647 17.2983 1.95 16.6525 1.95H4.07717L3.50788 0.7345C3.37193 0.437 3.06605 0.25 2.74317 0.25H1.34968C0.882358 0.25 0.5 0.6325 0.5 1.1ZM14.095 13.85C13.1603 13.85 12.4041 14.615 12.4041 15.55C12.4041 16.485 13.1603 17.25 14.095 17.25C15.0296 17.25 15.7943 16.485 15.7943 15.55C15.7943 14.615 15.0296 13.85 14.095 13.85Z" fill="white"/>
</svg>
