<svg width="15" height="17" viewBox="0 0 15 17" fill="none" xmlns="http://www.w3.org/2000/svg">
<path fill-rule="evenodd" clip-rule="evenodd" d="M14.57 5.4426C13.0694 4.5705 11.8081 3.33217 10.9084 1.85H3.36675L2.83095 0.706C2.703 0.426 2.4151 0.25 2.11122 0.25H0.799703C0.359866 0.25 0 0.61 0 1.05C0 1.49 0.359866 1.85 0.799703 1.85H1.59941L4.47834 7.922L3.39874 9.874C2.81495 10.946 3.58267 12.25 4.79822 12.25H13.595C14.0348 12.25 14.3947 11.89 14.3947 11.45C14.3947 11.01 14.0348 10.65 13.595 10.65H4.79822L5.67789 9.05H11.6357C12.2355 9.05 12.7633 8.722 13.0352 8.226L14.57 5.4426ZM3.20681 14.65C3.20681 13.77 3.91855 13.05 4.79822 13.05C5.67789 13.05 6.39762 13.77 6.39762 14.65C6.39762 15.53 5.67789 16.25 4.79822 16.25C3.91855 16.25 3.20681 15.53 3.20681 14.65ZM11.2038 14.65C11.2038 13.77 11.9156 13.05 12.7952 13.05C13.6749 13.05 14.3947 13.77 14.3947 14.65C14.3947 15.53 13.6749 16.25 12.7952 16.25C11.9156 16.25 11.2038 15.53 11.2038 14.65Z" fill="#221715"/>
</svg>
