<svg width="19" height="17" viewBox="0 0 19 17" fill="none" xmlns="http://www.w3.org/2000/svg">
<path d="M16.283 3.86464L8.10235 11.863C7.78331 12.1749 7.26792 12.1749 6.94888 11.863L4.63374 9.59947C4.3147 9.28753 4.3147 8.78363 4.63374 8.4717C4.95279 8.15976 5.46817 8.15976 5.78722 8.4717L7.52152 10.1673L15.1214 2.73687C15.4404 2.42493 15.9558 2.42493 16.2749 2.73687C16.6021 3.04881 16.6021 3.5527 16.283 3.86464ZM8.68318 15.1503C4.83008 15.1503 1.74596 11.879 2.17954 8.03179C2.49858 5.21636 4.73191 2.90484 7.58697 2.44093C9.06767 2.20098 10.4747 2.45693 11.6691 3.0648C11.9882 3.22477 12.3727 3.16878 12.6263 2.92083C13.0189 2.53691 12.9208 1.88904 12.4299 1.64109C11.2274 1.04122 9.86938 0.713284 8.4214 0.753276C4.21653 0.88125 0.723376 4.22457 0.510678 8.32773C0.273438 12.9428 4.02019 16.75 8.68318 16.75C9.66486 16.75 10.5975 16.582 11.4728 16.2701C12.0291 16.0701 12.1845 15.3663 11.7591 14.9504C11.5382 14.7344 11.2028 14.6544 10.9083 14.7664C10.213 15.0144 9.46035 15.1503 8.68318 15.1503ZM14.4097 11.1511H12.7735C12.3236 11.1511 11.9555 11.5111 11.9555 11.951C11.9555 12.3909 12.3236 12.7508 12.7735 12.7508H14.4097V14.3505C14.4097 14.7904 14.7778 15.1503 15.2277 15.1503C15.6777 15.1503 16.0458 14.7904 16.0458 14.3505V12.7508H17.6819C18.1319 12.7508 18.5 12.3909 18.5 11.951C18.5 11.5111 18.1319 11.1511 17.6819 11.1511H16.0458V9.55147C16.0458 9.11156 15.6777 8.75164 15.2277 8.75164C14.7778 8.75164 14.4097 9.11156 14.4097 9.55147V11.1511Z" fill="#EA5513"/>
</svg>
