<svg width="14" height="14" viewBox="0 0 14 14" fill="none" xmlns="http://www.w3.org/2000/svg">
<path d="M7.99071 6.99964L13.0001 12.009L12.0095 12.9996L7.00012 7.99023L1.99071 12.9996L1.00012 12.009L6.00953 6.99964L1.00012 1.99023L1.99071 0.99964L7.00012 6.00905L12.0095 0.99964L13.0001 1.99023L7.99071 6.99964Z" fill="#7E808B"/>
<path fill-rule="evenodd" clip-rule="evenodd" d="M13.283 12.009L12.0095 13.2825L7.00013 8.27307L1.99072 13.2825L0.717285 12.009L5.72669 6.99964L0.717285 1.99023L1.99072 0.716797L7.00013 5.72621L12.0095 0.716797L13.283 1.99023L8.27356 6.99964L13.283 12.009ZM7.99071 6.99964L13.0001 1.99023L12.0095 0.99964L7.00012 6.00905L1.99071 0.99964L1.00012 1.99023L6.00953 6.99964L1.00012 12.009L1.99071 12.9996L7.00012 7.99023L12.0095 12.9996L13.0001 12.009L7.99071 6.99964Z" fill="#7E808B"/>
</svg>
