<svg width="16" height="16" viewBox="0 0 16 16" fill="none" xmlns="http://www.w3.org/2000/svg">
<path d="M15.6453 2.06712C16.1182 1.59424 16.1182 0.827544 15.6453 0.354662L-nan -nanL15.6453 0.354662C15.1725 -0.118221 14.4058 -0.118221 13.9329 0.354662L8 6.28754L2.06712 0.354663C1.59424 -0.118219 0.827544 -0.118221 0.354662 0.354662L-nan -nanL0.354662 0.354662C-0.118221 0.827544 -0.118221 1.59424 0.354662 2.06712L6.28754 8L0.354663 13.9329C-0.118219 14.4058 -0.118221 15.1725 0.354662 15.6453L-nan -nanL0.354662 15.6453C0.827544 16.1182 1.59424 16.1182 2.06712 15.6453L8 9.71246L13.9329 15.6453C14.4058 16.1182 15.1725 16.1182 15.6453 15.6453L-nan -nanL15.6453 15.6453C16.1182 15.1725 16.1182 14.4058 15.6453 13.9329L9.71246 8L15.6453 2.06712Z" fill="#A7A7A7"/>
</svg>
