<svg width="150" height="150" viewBox="0 0 150 150" fill="none" xmlns="http://www.w3.org/2000/svg">
<rect width="150" height="150" fill="white"/>
<path d="M28.0723 12C28.7235 12.6158 29.2118 13.0776 29.7002 13.5394C40.7697 24.1613 51.8391 34.9372 62.9086 45.5591C63.8853 46.4828 64.862 46.9446 66.3271 46.9446C72.1874 46.9446 78.2105 46.9446 84.0708 46.9446C85.5359 46.9446 86.5126 46.4828 87.4893 45.5591C98.396 34.9372 109.303 24.4692 120.209 13.8473C120.698 13.3855 121.023 12.9236 121.349 12.3079C121.512 12.4618 121.674 12.4618 121.837 12.6158C121.837 13.0776 122 13.5394 122 14.0012C122 36.0148 122 58.0283 122 79.8879C122 80.6576 121.674 81.7352 121.023 82.351C106.047 96.8214 91.0706 111.292 76.0943 125.762C75.7687 126.07 75.6059 126.224 75.2804 126.532C73.0013 124.377 70.7224 122.376 68.4433 120.22C55.4204 107.597 42.3975 95.1281 29.3746 82.5049C28.7235 81.8892 28.2351 80.8116 28.2351 80.0419C28.2351 57.7204 28.2351 35.399 28.2351 13.2315C28.0724 12.9236 28.0723 12.6158 28.0723 12Z" fill="#EA5513"/>
<path d="M63.5598 137C58.6762 137 54.4437 137 50.2113 137C49.7229 137 49.0718 136.538 48.5834 136.076C42.072 129.765 35.5605 123.607 29.0491 117.296C28.5607 116.834 28.0723 116.218 28.0723 115.602C27.9096 111.446 28.0723 107.443 28.0723 102.825C39.9557 114.217 51.5136 125.454 63.5598 137Z" fill="#EA5513"/>
<path d="M122 103.441C122 107.443 122 111.446 122 115.448C122 116.064 121.512 116.68 121.186 117.142C114.675 123.453 108 129.765 101.489 136.076C101.163 136.384 100.512 136.846 100.024 136.846C95.7914 136.846 91.559 136.846 87.1637 136.538C98.7216 125.454 110.117 114.371 121.674 103.133C121.837 103.287 122 103.441 122 103.441Z" fill="#EA5513"/>
</svg>
