<svg width="17" height="17" viewBox="0 0 17 17" fill="none" xmlns="http://www.w3.org/2000/svg">
<path d="M6.57707 0.697543C9.71487 0.697543 12.263 3.26544 12.263 6.5247C12.263 7.80865 11.7722 9.0926 11.0867 10.0803L16.2798 15.3148C16.421 15.4604 16.5 15.6552 16.5 15.858C16.5 16.0608 16.421 16.2557 16.2798 16.4012C16.0833 16.4012 15.8877 16.5 15.6912 16.5C15.4956 16.5 15.2991 16.4012 15.2013 16.3025L10.0072 11.0679C9.02746 11.858 7.85116 12.2531 6.4793 12.2531C3.34446 12.2531 0.697532 9.68519 0.697532 6.42593C0.796298 3.26544 3.34446 0.697543 6.57707 0.697543ZM6.57707 10.8704C8.92968 10.8704 10.8892 8.89507 10.8892 6.5247C10.8892 4.15433 8.92968 2.17902 6.57707 2.17902C4.22644 2.17902 2.26594 4.15433 2.26594 6.5247C2.26594 8.89507 4.22545 10.8704 6.57707 10.8704Z" fill="#221715"/>
<path fill-rule="evenodd" clip-rule="evenodd" d="M16.2798 15.3148L11.0867 10.0803C11.7722 9.0926 12.263 7.80865 12.263 6.5247C12.263 3.26544 9.71487 0.697543 6.57707 0.697543C3.34446 0.697543 0.796298 3.26544 0.697532 6.42593C0.697532 9.68519 3.34446 12.2531 6.4793 12.2531C7.85116 12.2531 9.02746 11.858 10.0072 11.0679L15.2013 16.3025C15.2991 16.4012 15.4956 16.5 15.6912 16.5C15.7895 16.5 15.8875 16.4753 15.9855 16.4506C16.0836 16.4259 16.1816 16.4012 16.2798 16.4012C16.421 16.2557 16.5 16.0608 16.5 15.858C16.5 15.6552 16.421 15.4604 16.2798 15.3148ZM15.061 16.4415C15.061 16.4414 15.061 16.4415 15.061 16.4415V16.4415ZM15.061 16.4415L9.99052 11.3315C9.00121 12.0791 7.82744 12.4506 6.4793 12.4506C3.23611 12.4506 0.5 9.79501 0.5 6.42592L0.500096 6.41975C0.602105 3.15548 3.23493 0.5 6.57707 0.5C9.82755 0.5 12.4606 3.15996 12.4606 6.52469C12.4606 7.79741 11.9967 9.06174 11.3413 10.0564M10.6917 6.52469C10.6917 8.78743 8.81913 10.6728 6.57707 10.6728C4.33604 10.6728 2.46347 8.78746 2.46347 6.52469C2.46347 4.26195 4.33699 2.37654 6.57707 2.37654C8.81913 2.37654 10.6917 4.26195 10.6917 6.52469ZM10.8892 6.5247C10.8892 8.89507 8.92968 10.8704 6.57707 10.8704C4.22545 10.8704 2.26594 8.89507 2.26594 6.5247C2.26594 4.15433 4.22644 2.17902 6.57707 2.17902C8.92968 2.17902 10.8892 4.15433 10.8892 6.5247Z" fill="#221715"/>
</svg>
