<svg width="14" height="16" viewBox="0 0 14 16" fill="none" xmlns="http://www.w3.org/2000/svg">
<path d="M10.9 5.4C11 4.8 11 4.2 11 3.7C11 2.4 10.5 1.4 9.6 0.8C9 0.2 8.1 0 7.1 0H6.9C5.9 0 5 0.2 4.4 0.8C3.5 1.3 2.9 2.4 2.9 3.7C2.9 4.2 3 4.8 3.1 5.4C3 5.7 2.9 6 2.9 6.3C2.9 6.7 3 7.1 3.2 7.4C3.2 7.5 3.3 7.5 3.3 7.5L3.4 7.6C3.5 7.9 3.6 8.1 3.6 8.4C3.7 8.6 3.8 8.8 3.8 9L3.9 9.1C3.9 9.1 3.9 9.2 3.9 9.3C4 9.5 4 9.7 4 9.8V10.2L4.3 10.4V10.9C4.3 11.1 4.3 11.2 4.3 11.2C4.3 11.2 3.6 11.5 3.5 11.5C3.2 11.7 2.8 11.8 2.5 11.9C1.6 12.1 0.9 12.6 0.5 13.3C0.2 13.8 0 14.4 0 15V16H14V15C14 14.5 13.9 13.9 13.5 13.3C13.1 12.6 12.4 12.1 11.5 11.9C11.2 11.8 10.8 11.7 10.5 11.5C10.4 11.4 9.8 11.2 9.8 11.2C9.8 11.2 9.8 11 9.8 10.9C9.8 10.7 9.8 10.6 9.8 10.4L10.1 10.2V9.8C10.1 9.7 10.1 9.5 10.2 9.3C10.2 9.2 10.3 9.1 10.3 9.1L10.2 9C10.3 8.8 10.4 8.7 10.4 8.4C10.5 8.2 10.6 7.9 10.7 7.6L10.8 7.4C10.8 7.4 10.8 7.3 10.9 7.3C11.1 7 11.2 6.6 11.2 6.2C11.1 6 11 5.7 10.9 5.4Z" fill="#221715"/>
</svg>
