<svg width="83" height="60" viewBox="0 0 83 60" fill="none" xmlns="http://www.w3.org/2000/svg">
<path d="M28.9911 0C29.1647 0.168315 29.2949 0.294551 29.4251 0.420787C32.3763 3.32422 35.3275 6.26972 38.2787 9.17315C38.5391 9.42562 38.7995 9.55186 39.1901 9.55186C40.7525 9.55186 42.3583 9.55186 43.9207 9.55186C44.3113 9.55186 44.5717 9.42562 44.8321 9.17315C47.7399 6.26972 50.6477 3.40837 53.5555 0.504944C53.6857 0.378708 53.7725 0.252472 53.8593 0.0841574C53.9027 0.126236 53.9461 0.126236 53.9895 0.168315C53.9895 0.294551 54.0329 0.420787 54.0329 0.547023C54.0329 6.56427 54.0329 12.5815 54.0329 18.5567C54.0329 18.7671 53.9461 19.0616 53.7725 19.23C49.7797 23.1854 45.7869 27.1407 41.7941 31.0961C41.7073 31.1803 41.6639 31.2224 41.5771 31.3065C40.9695 30.7174 40.3619 30.1704 39.7543 29.5813C36.2823 26.1309 32.8103 22.7225 29.3383 19.272C29.1647 19.1037 29.0345 18.8092 29.0345 18.5988C29.0345 12.4974 29.0345 6.39596 29.0345 0.336629C28.9911 0.252472 28.9911 0.168315 28.9911 0Z" fill="#EA5513"/>
<path d="M38.4523 34.1679C37.1503 34.1679 36.0219 34.1679 34.8935 34.1679C34.7633 34.1679 34.5897 34.0417 34.4595 33.9154C32.7235 32.1902 30.9875 30.507 29.2515 28.7818C29.1213 28.6556 28.9911 28.4873 28.9911 28.319C28.9477 27.1828 28.9911 26.0888 28.9911 24.8264C32.1593 27.9402 35.2407 31.012 38.4523 34.1679Z" fill="#EA5513"/>
<path d="M54.0329 24.9947C54.0329 26.0888 54.0329 27.1828 54.0329 28.2769C54.0329 28.4452 53.9027 28.6135 53.8159 28.7397C52.0799 30.465 50.3005 32.1902 48.5645 33.9154C48.4777 33.9996 48.3041 34.1258 48.1739 34.1258C47.0455 34.1258 45.9171 34.1258 44.7453 34.0417C47.8267 31.012 50.8647 27.9823 53.9461 24.9106C53.9895 24.9527 54.0329 24.9947 54.0329 24.9947Z" fill="#EA5513"/>
<path d="M53.7725 40.5218C53.7725 44.4351 53.7725 48.3063 53.7725 52.1776C54.6405 52.1776 55.4651 52.1776 56.3331 52.1776C56.2897 51.5885 56.2463 50.9573 56.2029 50.3682C56.1161 48.2222 56.2463 46.1182 57.0275 44.0985C58.1993 40.9846 60.6731 39.554 64.0583 40.0589C67.3133 40.5218 69.1361 42.4995 69.2663 45.6975C69.3531 47.9697 69.0927 50.1578 67.7473 52.1355C66.5755 53.8607 65.0131 55.1231 62.8431 55.7122C64.4489 56.8483 66.2283 57.0587 68.0945 57.0166C68.0945 57.8582 68.0945 58.6998 68.0945 59.4993C68.0945 59.6255 67.7907 59.7517 67.6605 59.7938C64.5791 60.3829 61.7581 59.7097 59.3277 57.774C59.0239 57.5216 58.6767 57.227 58.4163 56.9325C58.1125 56.5538 57.7219 56.4275 57.2011 56.4275C54.7707 56.4696 52.3403 56.4275 49.9099 56.4275C49.7363 56.4275 49.5193 56.4275 49.3023 56.4275C49.3023 51.1256 49.3023 45.8658 49.3023 40.5639C50.7779 40.5218 52.2101 40.5218 53.7725 40.5218ZM60.6297 51.7989C62.3223 51.3781 63.7545 50.6207 64.7527 49.2741C65.3603 48.4746 65.7075 47.5489 65.6207 46.539C65.5773 45.4871 64.8395 44.5193 63.9715 44.3089C62.9733 44.0564 62.0185 44.4351 61.4109 45.445C60.1957 47.4227 60.1523 49.5266 60.6297 51.7989Z" fill="white"/>
<path d="M32.333 56.3434C30.9008 56.3434 29.5554 56.3434 28.1666 56.3434C28.1666 51.7568 28.1666 47.2123 28.1666 42.6678C29.5554 42.6678 30.9442 42.6678 32.3764 42.6678C32.3764 43.0044 32.3764 43.341 32.3764 43.8039C33.1576 43.0044 34.0256 42.6257 35.0238 42.4153C36.1522 42.2049 37.2372 42.2049 38.3222 42.5836C39.7544 43.0465 40.579 44.0564 40.7526 45.4871C40.796 45.992 40.8394 46.539 40.8394 47.044C40.8394 49.9474 40.8394 52.8508 40.8394 55.7543C40.8394 55.9226 40.8394 56.133 40.8394 56.3434C39.4506 56.3434 38.0618 56.3434 36.6296 56.3434C36.6296 56.133 36.6296 55.9226 36.6296 55.7543C36.6296 53.0191 36.5862 50.284 36.6296 47.5489C36.6296 45.6975 35.0238 45.2767 33.8086 45.6133C32.984 45.8237 32.4632 46.497 32.4198 47.5489C32.3764 49.2321 32.3764 50.8731 32.3764 52.5563C32.333 53.7766 32.333 55.0389 32.333 56.3434Z" fill="white"/>
<path d="M26.9514 50.3261C23.5662 50.3261 20.3546 50.3261 17.0996 50.3261C16.8392 51.4622 17.6204 52.935 18.7922 53.3558C19.3998 53.5662 20.0942 53.6924 20.7018 53.6082C21.3094 53.5241 21.9604 53.2295 22.4812 52.8508C23.002 52.4721 23.3058 51.883 23.7398 51.336C24.6946 51.7989 25.6494 52.3038 26.691 52.8088C25.9966 53.9449 25.2154 54.9127 24.0436 55.5439C21.6132 56.9325 19.096 57.1008 16.5354 56.0067C14.2352 54.9968 13.1936 53.1033 12.9332 50.7469C12.7596 49.19 12.8898 47.6752 13.5408 46.2445C14.6258 43.8881 16.492 42.6257 19.1394 42.4574C20.3546 42.3732 21.5698 42.4574 22.7416 42.9203C25.0852 43.846 26.1702 45.6554 26.6476 47.9276C26.8212 48.685 26.8212 49.4845 26.9514 50.3261ZM22.6548 47.8435C22.568 46.1603 21.483 45.1925 19.8772 45.2346C18.3582 45.2767 17.143 46.4549 17.143 47.8435C18.9658 47.8435 20.7886 47.8435 22.6548 47.8435Z" fill="white"/>
<path d="M70.4381 56.5538C70.4381 52.0093 70.4381 47.4648 70.4381 42.8782C71.8269 42.8782 73.2157 42.8782 74.6045 42.8782C74.6045 43.2148 74.6479 43.5514 74.6479 43.9722C75.4291 43.1727 76.3405 42.7519 77.3821 42.5836C78.7275 42.3732 80.0295 42.4153 81.2447 43.0465C82.4599 43.6777 82.9807 44.7717 82.9807 45.992C83.0241 49.4425 82.9807 52.935 82.9807 56.3854C82.9807 56.4275 82.9373 56.4275 82.9373 56.5117C81.5919 56.5117 80.2465 56.5117 78.8577 56.5117C78.8577 56.3434 78.8577 56.175 78.8577 55.9647C78.8577 53.3979 78.8577 50.8311 78.8577 48.3063C78.8577 48.0959 78.8577 47.8855 78.8577 47.6331C78.7709 46.0762 77.5557 45.3187 76.0367 45.7816C75.2555 46.0341 74.8215 46.539 74.7347 47.2964C74.6479 47.8014 74.6479 48.3063 74.6479 48.8113C74.6479 51.1677 74.6479 53.5662 74.6479 55.9226C74.6479 56.0909 74.6479 56.3013 74.6479 56.5117C73.1723 56.5538 71.8269 56.5538 70.4381 56.5538Z" fill="white"/>
<path d="M4.64379 56.3854C3.0814 51.7989 1.5624 47.2544 0 42.6257C0.954799 42.6257 1.8228 42.6257 2.6908 42.6257C3.255 42.6257 3.9928 42.4574 4.34 42.7519C4.6872 43.0044 4.68719 43.7198 4.81739 44.2247C5.51179 46.7073 6.16279 49.2321 6.85719 51.8409C6.94399 51.6306 6.98739 51.5464 7.03079 51.4622C7.72519 48.685 8.41959 45.9078 9.11399 43.1307C9.20079 42.7099 9.37439 42.5836 9.80839 42.5836C11.0236 42.6257 12.2388 42.5836 13.5408 42.5836C13.4974 42.8361 13.454 43.0044 13.3672 43.1727C11.935 47.4227 10.5462 51.6726 9.11399 55.9226C8.98379 56.2592 8.85359 56.3854 8.46299 56.3854C7.24779 56.3854 5.94579 56.3854 4.64379 56.3854Z" fill="white"/>
<path d="M42.9659 42.6257C44.3113 42.6257 45.6567 42.6257 47.0455 42.6257C47.0455 47.2123 47.0455 51.7568 47.0455 56.3434C45.7001 56.3434 44.3547 56.3434 42.9659 56.3434C42.9659 51.7989 42.9659 47.2544 42.9659 42.6257Z" fill="white"/>
<path d="M46.8719 39.6802C46.8719 40.7322 46.0039 41.6158 44.8755 41.5737C43.7906 41.5737 42.9226 40.7322 42.9226 39.6802C42.9226 38.6282 43.7906 37.7867 44.8755 37.7867C46.0473 37.7867 46.8719 38.5862 46.8719 39.6802Z" fill="white"/>
</svg>
