<svg width="89" height="65" viewBox="0 0 89 65" fill="none" xmlns="http://www.w3.org/2000/svg">
<path d="M31.0869 0C31.273 0.182341 31.4126 0.319097 31.5522 0.455852C34.7168 3.60123 37.8813 6.7922 41.0458 9.93758C41.3251 10.2111 41.6043 10.3478 42.0231 10.3478C43.6985 10.3478 45.4204 10.3478 47.0957 10.3478C47.5145 10.3478 47.7938 10.2111 48.073 9.93758C51.191 6.7922 54.309 3.6924 57.427 0.547023C57.5666 0.410267 57.6597 0.273511 57.7527 0.0911704C57.7993 0.136756 57.8458 0.136756 57.8923 0.182341C57.8923 0.319097 57.9389 0.455852 57.9389 0.592608C57.9389 7.1113 57.9389 13.63 57.9389 20.1031C57.9389 20.331 57.8458 20.6501 57.6597 20.8325C53.3782 25.1175 49.0968 29.4025 44.8154 33.6875C44.7223 33.7787 44.6758 33.8242 44.5827 33.9154C43.9312 33.2772 43.2796 32.6846 42.6281 32.0464C38.9051 28.3084 35.1822 24.616 31.4592 20.878C31.273 20.6957 31.1334 20.3766 31.1334 20.1487C31.1334 13.5388 31.1334 6.92896 31.1334 0.364682C31.0869 0.273511 31.0869 0.182341 31.0869 0Z" fill="#EA5513"/>
<path d="M41.232 37.0152C39.8359 37.0152 38.6259 37.0152 37.4159 37.0152C37.2763 37.0152 37.0902 36.8785 36.9506 36.7417C35.0891 34.8727 33.2276 33.0493 31.3661 31.1803C31.2265 31.0435 31.0869 30.8612 31.0869 30.6789C31.0403 29.4481 31.0869 28.2628 31.0869 26.8953C34.4841 30.2686 37.7882 33.5963 41.232 37.0152Z" fill="#EA5513"/>
<path d="M57.9389 27.0776C57.9389 28.2628 57.9389 29.4481 57.9389 30.6333C57.9389 30.8156 57.7993 30.998 57.7062 31.1347C55.8447 33.0037 53.9367 34.8727 52.0752 36.7417C51.9821 36.8329 51.796 36.9696 51.6564 36.9696C50.4464 36.9696 49.2364 36.9696 47.9799 36.8785C51.284 33.5963 54.5417 30.3142 57.8458 26.9865C57.8924 27.032 57.9389 27.0776 57.9389 27.0776Z" fill="#EA5513"/>
<path d="M57.6597 43.8986C57.6597 48.138 57.6597 52.3319 57.6597 56.5257C58.5905 56.5257 59.4747 56.5257 60.4054 56.5257C60.3589 55.8875 60.3123 55.2037 60.2658 54.5655C60.1727 52.2407 60.3123 49.9614 61.15 47.7733C62.4065 44.4 65.0592 42.8501 68.6891 43.3972C72.1794 43.8986 74.1339 46.0411 74.2735 49.5056C74.3666 51.9672 74.0874 54.3376 72.6447 56.4801C71.3882 58.3491 69.7129 59.7167 67.386 60.3549C69.1079 61.5857 71.0159 61.8136 73.017 61.768C73.017 62.6797 73.017 63.5914 73.017 64.4575C73.017 64.5943 72.6913 64.731 72.5516 64.7766C69.2475 65.4148 66.2226 64.6855 63.6165 62.5885C63.2907 62.315 62.9184 61.9959 62.6392 61.6768C62.3134 61.2666 61.8946 61.1298 61.3361 61.1298C58.7301 61.1754 56.124 61.1298 53.5179 61.1298C53.3317 61.1298 53.0991 61.1298 52.8664 61.1298C52.8664 55.3861 52.8664 49.6879 52.8664 43.9442C54.4486 43.8986 55.9844 43.8986 57.6597 43.8986ZM65.0126 56.1154C66.8276 55.6596 68.3633 54.8391 69.4336 53.3803C70.0852 52.5142 70.4575 51.5113 70.3644 50.4173C70.3179 49.2777 69.5267 48.2292 68.596 48.0013C67.5256 47.7278 66.5018 48.138 65.8503 49.2321C64.5472 51.3746 64.5007 53.6538 65.0126 56.1154Z" fill="#221715"/>
<path d="M34.6703 61.0386C33.1346 61.0386 31.6919 61.0386 30.2027 61.0386C30.2027 56.0699 30.2027 51.1466 30.2027 46.2234C31.6919 46.2234 33.1811 46.2234 34.7168 46.2234C34.7168 46.5881 34.7168 46.9528 34.7168 47.4542C35.5545 46.5881 36.4852 46.1779 37.5556 45.9499C38.7656 45.722 39.929 45.722 41.0924 46.1323C42.6282 46.6337 43.5124 47.7278 43.6985 49.2777C43.7451 49.8247 43.7916 50.4173 43.7916 50.9643C43.7916 54.1097 43.7916 57.2551 43.7916 60.4005C43.7916 60.5828 43.7916 60.8107 43.7916 61.0386C42.3024 61.0386 40.8132 61.0386 39.2775 61.0386C39.2775 60.8107 39.2775 60.5828 39.2775 60.4005C39.2775 57.4374 39.2309 54.4744 39.2775 51.5113C39.2775 49.5056 37.5556 49.0497 36.2526 49.4144C35.3684 49.6423 34.8099 50.3717 34.7634 51.5113C34.7168 53.3347 34.7168 55.1126 34.7168 56.936C34.6703 58.2579 34.6703 59.6255 34.6703 61.0386Z" fill="#221715"/>
<path d="M28.8997 54.52C25.2698 54.52 21.826 54.52 18.3357 54.52C18.0565 55.7508 18.8941 57.3462 20.1506 57.8021C20.8022 58.03 21.5468 58.1668 22.1983 58.0756C22.8498 57.9844 23.5479 57.6653 24.1063 57.2551C24.6648 56.8448 24.9905 56.2066 25.4559 55.614C26.4797 56.1154 27.5035 56.6625 28.6204 57.2095C27.8758 58.4403 27.0382 59.4888 25.7817 60.1725C23.1756 61.6768 20.4764 61.8592 17.7307 60.674C15.2642 59.5799 14.1473 57.5286 13.8681 54.9758C13.682 53.2892 13.8216 51.6481 14.5196 50.0982C15.6831 47.5454 17.6842 46.1779 20.5229 45.9955C21.826 45.9043 23.129 45.9955 24.3855 46.497C26.8986 47.4998 28.062 49.46 28.5739 51.9216C28.76 52.7421 28.76 53.6083 28.8997 54.52ZM24.2925 51.8304C24.1994 50.007 23.036 48.9586 21.3141 49.0041C19.6853 49.0497 18.3822 50.3261 18.3822 51.8304C20.3368 51.8304 22.2914 51.8304 24.2925 51.8304Z" fill="#221715"/>
<path d="M75.53 61.2666C75.53 56.3434 75.53 51.4202 75.53 46.4514C77.0192 46.4514 78.5084 46.4514 79.9976 46.4514C79.9976 46.816 80.0441 47.1807 80.0441 47.6366C80.8818 46.7705 81.8591 46.3146 82.976 46.1323C84.4187 45.9043 85.8148 45.9499 87.1178 46.6337C88.4209 47.3175 88.9793 48.5027 88.9793 49.8247C89.0258 53.5627 88.9793 57.3462 88.9793 61.0842C88.9793 61.1298 88.9328 61.1298 88.9328 61.221C87.4901 61.221 86.0475 61.221 84.5583 61.221C84.5583 61.0386 84.5583 60.8563 84.5583 60.6284C84.5583 57.8477 84.5583 55.067 84.5583 52.3319C84.5583 52.1039 84.5583 51.876 84.5583 51.6025C84.4652 49.9159 83.1622 49.0953 81.5333 49.5968C80.6957 49.8703 80.2303 50.4173 80.1372 51.2378C80.0441 51.7848 80.0441 52.3319 80.0441 52.8789C80.0441 55.4317 80.0441 58.03 80.0441 60.5828C80.0441 60.7651 80.0441 60.9931 80.0441 61.221C78.4619 61.2666 77.0192 61.2666 75.53 61.2666Z" fill="#221715"/>
<path d="M4.97949 61.0842C3.30415 56.1154 1.67534 51.1922 0 46.1779C1.02382 46.1779 1.95457 46.1779 2.88531 46.1779C3.4903 46.1779 4.28143 45.9955 4.65373 46.3146C5.02603 46.5881 5.02603 47.3631 5.16564 47.9101C5.91024 50.5996 6.6083 53.3347 7.35289 56.161C7.44597 55.9331 7.4925 55.8419 7.53904 55.7508C8.28364 52.7421 9.02824 49.7335 9.77283 46.7249C9.86591 46.269 10.0521 46.1323 10.5174 46.1323C11.8205 46.1779 13.1235 46.1323 14.5196 46.1323C14.4731 46.4058 14.4266 46.5881 14.3335 46.7705C12.7978 51.3746 11.3086 55.9787 9.77283 60.5828C9.63322 60.9475 9.49361 61.0842 9.07477 61.0842C7.77173 61.0842 6.37561 61.0842 4.97949 61.0842Z" fill="#221715"/>
<path d="M46.0719 46.1779C47.5146 46.1779 48.9572 46.1779 50.4464 46.1779C50.4464 51.1466 50.4464 56.0699 50.4464 61.0386C49.0038 61.0386 47.5611 61.0386 46.0719 61.0386C46.0719 56.1154 46.0719 51.1922 46.0719 46.1779Z" fill="#221715"/>
<path d="M50.2603 42.9869C50.2603 44.1265 49.3295 45.0838 48.1196 45.0382C46.9561 45.0382 46.0254 44.1265 46.0254 42.9869C46.0254 41.8473 46.9561 40.9356 48.1196 40.9356C49.3761 40.9356 50.2603 41.8017 50.2603 42.9869Z" fill="#221715"/>
</svg>
