<svg width="16" height="11" viewBox="0 0 16 11" fill="none" xmlns="http://www.w3.org/2000/svg">
<path fill-rule="evenodd" clip-rule="evenodd" d="M0.588038 0.129477C0.204546 0.291403 0.100623 0.388746 0.205004 0.48828C0.245893 0.5273 1.27365 1.44867 2.48884 2.53582C3.70408 3.62292 5.35782 5.10518 6.16386 5.82962C7.03619 6.61363 7.6736 7.14928 7.73851 7.15283C7.95713 7.16488 8.05425 7.13452 8.22857 6.99972C8.39345 6.87222 12.0377 3.72866 13.5324 2.4245C13.8934 2.10957 14.522 1.56229 14.9293 1.20834C15.3366 0.854333 15.6891 0.54582 15.7127 0.52271C15.7935 0.443365 15.6459 0.270902 15.3814 0.135529L15.1165 0L8.00274 0.00125211L0.888889 0.00245168L0.588038 0.129477ZM0 5.85899C0 8.3175 0.0173707 10.329 0.0386533 10.329C0.059885 10.329 1.23561 9.37784 2.65133 8.21525L5.22535 6.10151L4.98728 5.87704C4.85633 5.75356 3.74349 4.7529 2.51429 3.65333C1.28508 2.55382 0.216483 1.59447 0.139683 1.52154L0 1.38899V5.85899ZM15.1001 2.15307C12.1482 4.73131 10.8861 5.82508 10.7502 5.92284C10.6578 5.98925 10.6539 6.00787 10.7191 6.07084C10.9494 6.29338 15.9054 10.329 15.9483 10.329C15.9829 10.329 16 8.85602 16 5.86875C16 3.41561 15.9893 1.4085 15.9763 1.4085C15.9633 1.4085 15.569 1.74357 15.1001 2.15307ZM9.04127 7.41366C8.17793 8.1682 7.9426 8.32376 7.74253 8.27217C7.67868 8.25574 7.26822 7.91947 6.83037 7.52499C6.39253 7.1305 6.01544 6.80049 5.99243 6.79168C5.96942 6.78286 4.80132 7.72186 3.39667 8.87834L0.842718 10.9811L4.43804 10.9945C6.41544 11.0018 9.63317 11.0018 11.5886 10.9945L15.1438 10.9811L12.5418 8.84225C11.1108 7.66589 9.9263 6.69841 9.90964 6.69235C9.89298 6.68625 9.50222 7.01083 9.04127 7.41366Z" fill="white"/>
</svg>
