<svg width="45" height="61" viewBox="0 0 45 61" fill="none" xmlns="http://www.w3.org/2000/svg">
<path fill-rule="evenodd" clip-rule="evenodd" d="M24.0283 60.2185L24.0321 60.2144L24.0451 60.2005L24.0918 60.1504L24.265 59.9629C24.4147 59.8 24.6315 59.5621 24.9058 59.256C25.4542 58.6439 26.2332 57.7581 27.1661 56.6519C29.0294 54.4424 31.5189 51.3393 34.0141 47.7722C36.5037 44.2132 39.0346 40.1418 40.9521 35.9982C42.8523 31.8919 44.25 27.5037 44.25 23.3664C44.25 8.57596 32.8398 0 22.25 0C11.6602 0 0.25 8.57596 0.25 23.3664C0.25 27.5037 1.64772 31.8919 3.54794 35.9982C5.46538 40.1418 7.99634 44.2132 10.4859 47.7722C12.9811 51.3393 15.4706 54.4424 17.3339 56.6519C18.2668 57.7581 19.0458 58.6439 19.5942 59.256C19.8685 59.5621 20.0853 59.8 20.235 59.9629L20.4082 60.1504L20.4549 60.2005L20.4679 60.2144L20.473 60.2198C20.9416 60.7184 21.5823 61 22.25 61C22.9177 61 23.5596 60.7171 24.0283 60.2185Z" fill="#EA5513"/>
<circle cx="22.25" cy="22" r="18" fill="white"/>
<path d="M13.2639 10C13.3885 10.1182 13.4821 10.2069 13.5756 10.2956C15.6953 12.335 17.8149 14.4039 19.9346 16.4433C20.1217 16.6207 20.3087 16.7094 20.5892 16.7094C21.7114 16.7094 22.8648 16.7094 23.987 16.7094C24.2675 16.7094 24.4545 16.6207 24.6416 16.4433C26.7301 14.4039 28.8186 12.3941 30.9071 10.3547C31.0006 10.266 31.063 10.1773 31.1253 10.0591C31.1565 10.0887 31.1877 10.0887 31.2188 10.1182C31.2188 10.2069 31.25 10.2956 31.25 10.3842C31.25 14.6108 31.25 18.8374 31.25 23.0345C31.25 23.1823 31.1877 23.3892 31.063 23.5074C28.1952 26.2857 25.3274 29.064 22.4595 31.8424C22.3972 31.9015 22.366 31.931 22.3037 31.9901C21.8673 31.5764 21.4309 31.1921 20.9945 30.7783C18.5007 28.3547 16.007 25.9606 13.5132 23.5369C13.3885 23.4187 13.295 23.2118 13.295 23.064C13.295 18.7783 13.295 14.4926 13.295 10.2365C13.2639 10.1773 13.2639 10.1182 13.2639 10Z" fill="#221715"/>
<path d="M20.0593 34C19.1242 34 18.3137 34 17.5032 34C17.4097 34 17.285 33.9113 17.1915 33.8227C15.9446 32.6108 14.6978 31.4286 13.4509 30.2167C13.3574 30.1281 13.2639 30.0099 13.2639 29.8916C13.2327 29.0936 13.2639 28.3251 13.2639 27.4384C15.5394 29.6256 17.7526 31.7833 20.0593 34Z" fill="#221715"/>
<path d="M31.25 27.5566C31.25 28.3251 31.25 29.0936 31.25 29.8621C31.25 29.9803 31.1565 30.0985 31.0941 30.1872C29.8473 31.399 28.5692 32.6108 27.3224 33.8227C27.26 33.8818 27.1353 33.9704 27.0418 33.9704C26.2313 33.9704 25.4209 33.9704 24.5792 33.9113C26.7924 31.7833 28.9745 29.6552 31.1877 27.4975C31.2188 27.5271 31.25 27.5566 31.25 27.5566Z" fill="#221715"/>
</svg>
