<svg width="13" height="18" viewBox="0 0 13 18" fill="none" xmlns="http://www.w3.org/2000/svg">
<path fill-rule="evenodd" clip-rule="evenodd" d="M5.97497 17.7698C5.97497 17.7698 5.97521 17.77 6.5 17.2286L5.97497 17.7698ZM7.0254 17.7694L7.02654 17.7682L7.03037 17.7641L7.04417 17.7493L7.09534 17.694C7.13958 17.6459 7.20363 17.5757 7.28466 17.4854C7.44669 17.3048 7.67686 17.0434 7.95248 16.7169C8.503 16.065 9.23853 15.1493 9.97575 14.0967C10.7113 13.0465 11.4591 11.8451 12.0256 10.6224C12.587 9.41072 13 8.11584 13 6.89502C13 2.53061 9.62881 0 6.5 0C3.37119 0 0 2.53061 0 6.89502C0 8.11584 0.412964 9.41072 0.974391 10.6224C1.54091 11.8451 2.28869 13.0465 3.02425 14.0967C3.76147 15.1493 4.497 16.065 5.04752 16.7169C5.32314 17.0434 5.55331 17.3048 5.71534 17.4854C5.79637 17.5757 5.86042 17.6459 5.90466 17.694L5.95583 17.7493L5.96963 17.7641L5.97346 17.7682L5.97497 17.7698C6.11344 17.9169 6.30272 18 6.5 18C6.69728 18 6.88693 17.9165 7.0254 17.7694ZM7.0254 17.7694L6.5 17.2286C7.02479 17.77 7.0254 17.7694 7.0254 17.7694ZM4.19144 6.80571C4.19144 5.47076 5.22502 4.38857 6.5 4.38857C7.77498 4.38857 8.80857 5.47076 8.80857 6.80571C8.80857 8.14067 7.77498 9.22286 6.5 9.22286C5.22501 9.22286 4.19144 8.14067 4.19144 6.80571Z" fill="#EA5513"/>
</svg>
