<svg width="144" height="144" viewBox="0 0 144 144" fill="none" xmlns="http://www.w3.org/2000/svg">
<path fill-rule="evenodd" clip-rule="evenodd" d="M114.471 123.822C102.911 133.307 88.1203 139 72 139C34.9969 139 5 109.003 5 72C5 56.9443 9.96594 43.0485 18.3492 31.8611L14.7117 28.3811C5.48138 40.4856 0 55.6027 0 72C0 111.765 32.2355 144 72 144C89.5416 144 105.618 137.727 118.108 127.302L114.471 123.822ZM21.5055 27.961C33.7877 13.8901 51.8556 5 72 5C109.003 5 139 34.9969 139 72C139 91.0785 131.026 108.295 118.228 120.497L121.845 123.957C135.5 110.853 144 92.4194 144 72C144 32.2355 111.765 0 72 0C50.4352 0 31.0847 9.48059 17.889 24.5012L21.5055 27.961Z" fill="#B3BCC0"/>
<path fill-rule="evenodd" clip-rule="evenodd" d="M113.788 128.322L13.7877 34.3216L17.2123 30.6784L117.212 124.678L113.788 128.322Z" fill="#B3BCC0"/>
<path fill-rule="evenodd" clip-rule="evenodd" d="M108.947 111.617C109.008 109.619 109.009 104.795 108.987 91.8977L108.953 71.6154L108.681 70.1625C108.532 69.3634 108.237 68.1082 108.026 67.373C107.815 66.6378 105.601 60.4422 103.106 53.6048L98.571 41.1733L98.5703 34.6592C98.57 30.3115 98.5275 27.9906 98.4429 27.6802C98.2656 27.0298 97.8113 26.4725 97.2502 26.2172C96.7885 26.0072 95.9471 26 72.0013 26C48.2164 26 47.2113 26.0085 46.7611 26.2134C46.1889 26.4738 45.713 27.0185 45.5527 27.5967C45.4768 27.8704 45.4326 30.4387 45.4323 34.6006L45.4316 41.1724L42.8125 48.3457L46.3286 51.7096C47.6039 48.2039 48.6959 45.2301 49.1317 44.0975L49.2548 43.7776L94.7825 43.8363L99.1151 55.6918C101.498 62.2124 103.603 68.124 103.793 68.8287C103.93 69.3346 104.041 69.7211 104.131 70.1123C104.548 71.9151 104.53 73.8187 104.57 87.9749L104.614 103.637L100.606 103.637L108.947 111.617ZM86.2179 89.8721C86.2439 89.789 86.2689 89.7054 86.2929 89.6213C86.633 88.4289 86.655 86.222 86.3394 84.9819C86.0593 83.8817 85.2635 82.2277 84.6059 81.3788C83.8687 80.4272 82.5552 79.3149 81.5565 78.7966L80.7277 78.3664L80.4784 77.4317C79.5953 74.1188 76.9213 71.4829 73.5781 70.6293C72.3361 70.3122 70.212 70.3141 68.995 70.6334C68.2754 70.8221 67.5873 71.0906 66.9413 71.4299L70.547 74.8795C71.181 74.7851 71.8474 74.8146 72.5193 74.9899C74.7273 75.5661 76.0386 77.1556 76.3372 79.6179C76.3822 79.99 76.4352 80.3067 76.5041 80.5788L78.2969 82.2939C78.3185 82.3004 78.3403 82.3068 78.3624 82.3132C79.8549 82.7446 81.0016 83.721 81.6661 85.1262C81.7931 85.3949 81.8769 85.583 81.9321 85.7718L86.2179 89.8721ZM80.2522 91.0843L83.5012 94.1927C81.7952 95.7733 79.5563 96.7056 77.1644 96.6953C75.5904 96.6886 74.5077 96.4593 73.0525 95.8244C71.7219 95.2439 70.874 95.1796 70.0632 95.5974C67.4335 96.9528 64.0847 97.072 61.6086 95.8986C56.0683 93.2729 54.292 86.3711 57.9018 81.495C58.5974 80.5555 60.0403 79.3207 61.0594 78.7928L61.8942 78.3605L62.0768 77.545C62.1771 77.0965 62.4933 76.2588 62.7794 75.6835C62.9259 75.3889 63.0865 75.1035 63.2604 74.8281L66.6064 78.0293C66.3456 78.6657 66.2 79.371 66.2 80.1207C66.2 81.174 65.5146 81.9368 64.2238 82.3203C62.5383 82.8209 61.364 83.9186 60.7548 85.563C60.2924 86.811 60.5014 88.8015 61.2059 89.8611C61.715 90.6268 62.5601 91.3565 63.4154 91.7688C64.2454 92.1688 64.342 92.1882 65.5039 92.1876C66.6667 92.1869 66.7671 92.1665 67.7084 91.7413C69.145 91.0923 69.6191 90.9609 70.7901 90.8867C72.2007 90.7973 73.12 90.9768 74.6304 91.6366C75.866 92.1764 75.9096 92.1862 77.1064 92.1872C78.2386 92.1881 78.3802 92.1619 79.1122 91.8146C79.5204 91.6209 79.9047 91.3731 80.2522 91.0843ZM50.4465 62.5689C50.0222 63.0441 49.6659 63.5689 49.3993 64.1275C48.7711 65.4438 48.6361 66.1404 48.7104 67.6792C48.784 69.1996 49.0486 70.0405 49.8312 71.2407C50.7817 72.6981 52.018 73.6343 53.7044 74.1735C54.9206 74.5626 56.7448 74.5829 57.8561 74.22C59.087 73.8179 59.8913 73.3354 60.7824 72.4574L57.5876 69.4008C56.0581 70.7338 53.3361 69.8763 53.1229 67.5201C53.0637 66.866 53.2686 66.1289 53.6394 65.6236L50.4465 62.5689ZM44.4661 56.8474L40.94 53.474C36.6173 65.3128 35.9722 67.0599 35.5697 68.8612C35.4814 69.2566 35.4047 69.6546 35.3034 70.1625C35.0628 71.3692 35.0596 71.6122 35.0206 91.7814C34.9826 111.484 34.9344 112.986 35.506 114.195C35.5977 114.389 35.7054 114.576 35.8317 114.828C36.7971 116.762 38.8662 118.365 40.9646 118.805C42.2 119.064 101.583 119.065 102.934 118.806C104.431 118.52 105.828 117.705 106.901 116.579L103.708 113.525C103.469 113.767 103.173 113.968 102.809 114.155L102.126 114.505L72.246 114.535C42.7275 114.564 41.5664 114.611 40.9183 114.057C40.8419 113.992 40.7727 113.918 40.6651 113.835C40.3962 113.628 40.0142 113.171 39.8162 112.819L39.4563 112.18V92.3626C39.4563 73.9639 39.4225 71.8935 39.9026 69.9501C39.9988 69.5608 40.1156 69.1766 40.2574 68.6673C40.3972 68.1657 42.3859 62.6039 44.4661 56.8474ZM98.1013 108.161L72.7174 108.112L72.2143 107.762C70.6078 106.643 70.9967 104.278 72.8715 103.765C73.1964 103.676 78.0272 103.638 88.9747 103.638L93.3734 103.637L98.1013 108.161ZM49.9565 30.4117V39.2452H94.0461V30.4117H49.9565ZM66.3826 53.5504C67.3126 52.6633 68.2336 52.1168 69.3327 51.7997C70.2996 51.5208 72.1053 51.4959 73.0767 51.7481C75.6245 52.4095 77.7916 54.6622 78.3242 57.2028C78.6778 58.8906 78.5038 60.2827 77.7408 61.8683C76.8843 63.6484 75.447 64.909 73.4905 65.5962C72.3929 65.9816 70.4836 66.0309 69.3907 65.702C67.3712 65.0942 65.7748 63.747 64.8819 61.8971C64.2534 60.595 64.0539 59.5941 64.1448 58.1978C64.2617 56.4009 64.9986 54.8704 66.3826 53.5504ZM73.1807 60.7202C74.5101 59.4664 74.1791 57.1476 72.5521 56.3161C70.5071 55.2709 68.1517 57.0725 68.6403 59.3079C69.0892 61.3618 71.6544 62.1597 73.1807 60.7202ZM79.5939 67.8277C79.2727 64.265 81.9791 60.8249 85.6183 60.17C86.4033 60.0287 87.9192 60.1174 88.7126 60.3509C89.8273 60.6792 90.9201 61.3349 91.7942 62.2C93.3399 63.7299 94.0071 65.4784 93.8983 67.7153C93.8577 68.5508 93.7577 69.1728 93.5847 69.6654C92.8508 71.7554 91.0459 73.4994 88.9211 74.1718C87.3296 74.6754 85.3065 74.5578 83.7778 73.8728C82.6633 73.3733 81.1901 72.0376 80.5533 70.9487C80.0981 70.1708 79.6834 68.8217 79.5939 67.8277ZM87.0811 70.0103C89.6128 69.7099 90.3804 66.4334 88.254 65.0027C87.5824 64.5509 86.3481 64.454 85.6342 64.797C83.9059 65.6274 83.5135 67.8748 84.861 69.2248C85.4992 69.8641 86.206 70.1141 87.0811 70.0103ZM61.0583 106.245C60.8628 105.171 61.6411 104.031 62.7693 103.739C63.2951 103.603 64.4464 103.724 64.843 103.957C65.4748 104.328 65.8852 104.962 65.9426 105.657C66.0114 106.488 65.8194 107.021 65.2736 107.515C63.8322 108.82 61.3932 108.085 61.0583 106.245Z" fill="#B3BCC0"/>
</svg>
