<svg width="8" height="6" viewBox="0 0 8 6" fill="none" xmlns="http://www.w3.org/2000/svg">
<path d="M4.17768 0.157848C3.94077 0.367408 3.94077 0.705928 4.17768 0.915487L6.53455 3.00034L4.17768 5.08519C3.94077 5.29475 3.94077 5.63327 4.17768 5.84283C4.41458 6.05239 4.79727 6.05239 5.03417 5.84283L7.82232 3.37647C8.05923 3.16691 8.05923 2.82839 7.82232 2.61883L5.03417 0.152475C4.80334 -0.0517118 4.41458 -0.0517117 4.17768 0.157848Z" fill="#312C2B"/>
<path d="M0.177677 0.157848C-0.0592255 0.367408 -0.0592255 0.705928 0.177677 0.915487L2.53455 3.00034L0.177677 5.08519C-0.0592255 5.29475 -0.0592255 5.63327 0.177677 5.84283C0.414579 6.05239 0.797266 6.05239 1.03417 5.84283L3.82232 3.37647C4.05923 3.16691 4.05923 2.82839 3.82232 2.61883L1.03417 0.152475C0.803341 -0.0517118 0.414579 -0.0517117 0.177677 0.157848Z" fill="#312C2B"/>
</svg>
