<svg width="8" height="6" viewBox="0 0 8 6" fill="none" xmlns="http://www.w3.org/2000/svg">
<path d="M3.82232 5.84215C4.05923 5.63259 4.05923 5.29407 3.82232 5.08451L1.46545 2.99966L3.82232 0.91481C4.05923 0.70525 4.05923 0.36673 3.82232 0.15717C3.58542 -0.0523895 3.20273 -0.0523895 2.96583 0.15717L0.177677 2.62353C-0.0592254 2.83309 -0.0592254 3.17161 0.177677 3.38117L2.96583 5.84753C3.19666 6.05171 3.58542 6.05171 3.82232 5.84215Z" fill="#312C2B"/>
<path d="M7.82232 5.84215C8.05923 5.63259 8.05923 5.29407 7.82232 5.08451L5.46545 2.99966L7.82232 0.91481C8.05923 0.70525 8.05923 0.36673 7.82232 0.15717C7.58542 -0.0523895 7.20273 -0.0523895 6.96583 0.15717L4.17768 2.62353C3.94077 2.83309 3.94077 3.17161 4.17768 3.38117L6.96583 5.84753C7.19666 6.05171 7.58542 6.05171 7.82232 5.84215Z" fill="#312C2B"/>
</svg>
