<svg width="76" height="67" viewBox="0 0 76 67" fill="none" xmlns="http://www.w3.org/2000/svg">
<path fill-rule="evenodd" clip-rule="evenodd" d="M70.5 1.5H5.5C3.567 1.5 2 3.067 2 5V62C2 63.933 3.567 65.5 5.5 65.5H70.5C72.433 65.5 74 63.933 74 62V5C74 3.067 72.433 1.5 70.5 1.5ZM5.5 0C2.73858 0 0.5 2.23858 0.5 5V62C0.5 64.7614 2.73858 67 5.5 67H70.5C73.2614 67 75.5 64.7614 75.5 62V5C75.5 2.23858 73.2614 0 70.5 0H5.5Z" fill="#D6DFE6"/>
<path fill-rule="evenodd" clip-rule="evenodd" d="M21.6753 18.1498C20.0045 18.5579 18.505 19.9765 17.8384 21.7794L17.5438 22.576L17.5134 33.7686C17.4799 46.0749 17.4543 45.5558 18.1622 46.9919C18.8273 48.3415 20.1771 49.4806 21.5324 49.8361C22.175 50.0047 23.6959 50.0172 39.7642 49.9872L57.2948 49.9544L57.9612 49.6459C59.4047 48.9776 60.417 47.8843 61.0486 46.3113L61.3146 45.6489L61.3451 34.3354C61.3663 26.4469 61.3385 22.8453 61.253 22.4388C60.9619 21.052 59.7868 19.4144 58.5626 18.6892C57.3217 17.9541 58.4219 17.9935 39.4337 18.0039C26.1825 18.0112 22.1054 18.0447 21.6753 18.1498ZM46.4201 22.3023C47.0406 22.4186 48.3369 22.9662 48.6453 23.2421C48.7978 23.3786 48.8701 23.3657 49.2054 23.1421C50.212 22.4709 51.7822 22.167 53.0182 22.404C56.2242 23.0186 58.1243 26.4101 56.9369 29.3981C55.7476 32.3908 52.0001 33.6152 49.2704 31.9029C48.7916 31.6025 48.7055 31.5809 48.5446 31.7205C47.9332 32.2507 46.5888 32.6741 45.5102 32.676C42.8711 32.6807 40.7085 30.8515 40.2625 28.2372C39.6743 24.7891 42.9329 21.6485 46.4201 22.3023ZM44.4008 23.3534C43.5455 23.5901 42.9562 23.9593 42.2993 24.6699C41.5211 25.5118 41.232 26.2771 41.2285 27.5045C41.226 28.3861 41.2574 28.5218 41.642 29.2911C42.116 30.2394 42.7378 30.8493 43.7143 31.3235C44.2735 31.5951 44.4645 31.6284 45.4588 31.6278C46.3905 31.6271 46.6719 31.584 47.1582 31.3672C47.9655 31.0075 48.0475 30.8854 47.7547 30.4788C46.5023 28.7399 46.5268 26.0982 47.8106 24.434L48.0878 24.0746L47.8341 23.9106C46.8654 23.2844 45.4689 23.0577 44.4008 23.3534Z" fill="#EA5F12"/>
<path d="M25 43H48C48.2761 43 48.5 42.7761 48.5 42.5C48.5 42.2239 48.2761 42 48 42H25C24.7239 42 24.5 42.2239 24.5 42.5C24.5 42.7761 24.7239 43 25 43Z" fill="white"/>
<path d="M25 40H35C35.2761 40 35.5 39.7761 35.5 39.5C35.5 39.2239 35.2761 39 35 39H25C24.7239 39 24.5 39.2239 24.5 39.5C24.5 39.7761 24.7239 40 25 40Z" fill="white"/>
<path fill-rule="evenodd" clip-rule="evenodd" d="M5.5 1.5H70.5C72.433 1.5 74 3.067 74 5V62C74 63.933 72.433 65.5 70.5 65.5H5.5C3.567 65.5 2 63.933 2 62V5C2 3.067 3.567 1.5 5.5 1.5ZM17.8384 21.7794C18.505 19.9765 20.0045 18.5579 21.6753 18.1498C22.1054 18.0447 26.1825 18.0112 39.4337 18.0039C58.4219 17.9935 57.3217 17.9541 58.5626 18.6892C59.7868 19.4144 60.9619 21.052 61.253 22.4388C61.3385 22.8453 61.3663 26.4469 61.3451 34.3354L61.3146 45.6489L61.0486 46.3113C60.417 47.8843 59.4047 48.9776 57.9612 49.6459L57.2948 49.9544L39.7642 49.9872C23.6959 50.0172 22.175 50.0047 21.5324 49.8361C20.1771 49.4806 18.8273 48.3415 18.1622 46.9919C17.4543 45.5558 17.4799 46.0749 17.5134 33.7686L17.5438 22.576L17.8384 21.7794Z" fill="#F1F3F4"/>
</svg>
