<svg width="75" height="67" viewBox="0 0 75 67" fill="none" xmlns="http://www.w3.org/2000/svg">
<path fill-rule="evenodd" clip-rule="evenodd" d="M70 1.5H5C3.067 1.5 1.5 3.067 1.5 5V62C1.5 63.933 3.067 65.5 5 65.5H70C71.933 65.5 73.5 63.933 73.5 62V5C73.5 3.067 71.933 1.5 70 1.5ZM5 0C2.23858 0 0 2.23858 0 5V62C0 64.7614 2.23858 67 5 67H70C72.7614 67 75 64.7614 75 62V5C75 2.23858 72.7614 0 70 0H5Z" fill="#D6DFE6"/>
<path fill-rule="evenodd" clip-rule="evenodd" d="M21.9135 19.0825C20.4585 19.4617 19.3887 20.2202 18.6905 21.3673C18.5319 21.6278 18.3174 22.0601 18.2139 22.3279L18.0256 22.8148L18.0068 35.428C17.9899 46.8265 17.9989 48.0772 18.1012 48.4147C18.4745 49.647 19.3851 50.5241 20.6716 50.8907C21.0202 50.99 22.6441 51 38.3134 51C53.9046 51 55.6083 50.9896 55.9551 50.8918C57.2255 50.5337 58.1766 49.5953 58.4953 48.3856C58.6322 47.8661 58.6369 47.6628 58.6193 42.9956L58.6012 38.1454L54.6779 38.1109C51.081 38.0794 50.7252 38.066 50.4012 37.9504C48.7838 37.3734 47.7458 36.2686 47.4017 34.7578C47.2256 33.9843 47.2046 32.2344 47.3608 31.362C47.5956 30.0515 48.477 28.9007 49.7186 28.2838C50.6445 27.8237 50.842 27.8058 55.0137 27.803L58.6365 27.8007V26.3494C58.6365 25.064 58.6194 24.8451 58.4872 24.4343C58.1901 23.5112 57.5203 22.8696 56.5553 22.5835L56.0768 22.4418H39.2001C27.819 22.4418 22.2555 22.419 22.1148 22.372C21.513 22.1707 21.5416 21.3129 22.1554 21.1543C22.3462 21.105 27.7033 21.0885 39.4561 21.1009C55.793 21.1182 56.4962 21.1241 56.8693 21.2442C58.3685 21.7272 59.3741 22.6927 59.883 24.1378C60.0085 24.4942 60.0152 24.9984 60.034 35.5507C60.0509 45.108 60.0672 46.5908 60.1554 46.5908C60.2114 46.5908 60.4977 46.3592 60.7916 46.0763C61.23 45.6542 61.3888 45.438 61.6758 44.8723C62.2887 43.6638 62.2468 44.541 62.2253 33.3468L62.2063 23.4254L61.987 22.8488C61.5962 21.821 61.2459 21.2747 60.5493 20.6062C59.8526 19.9377 59.2834 19.6016 58.2124 19.2265L57.6115 19.0161L39.9392 19.0032C25.2404 18.9925 22.2075 19.0058 21.9135 19.0825ZM50.9667 29.2583C50.4461 29.3938 50.2948 29.4601 49.9289 29.7125C49.3166 30.1351 48.9362 30.7073 48.7713 31.454C48.6556 31.9778 48.6355 33.7366 48.7383 34.339C48.954 35.6028 50.0071 36.585 51.3352 36.7609C51.5991 36.7959 53.3419 36.8165 55.2081 36.8066L58.6012 36.7887L58.6377 29.1574L54.9789 29.1618C52.1313 29.1653 51.2418 29.1867 50.9667 29.2583ZM54.3096 31.7285C55.0161 32.0761 55.3126 32.9045 54.9648 33.5588C54.796 33.8764 54.3875 34.2297 54.1288 34.282C54.0225 34.3034 53.8745 34.3329 53.7996 34.3475C53.7248 34.3621 53.5057 34.3416 53.3126 34.3018C52.8917 34.2152 52.4123 33.7978 52.2749 33.3982C52.0521 32.7504 52.4099 32.0024 53.0874 31.6995C53.3975 31.5609 53.9979 31.5751 54.3096 31.7285Z" fill="#EA5F12"/>
<path fill-rule="evenodd" clip-rule="evenodd" d="M5 1.5H70C71.933 1.5 73.5 3.067 73.5 5V62C73.5 63.933 71.933 65.5 70 65.5H5C3.067 65.5 1.5 63.933 1.5 62V5C1.5 3.067 3.067 1.5 5 1.5ZM18.6905 21.3673C19.3887 20.2202 20.4585 19.4617 21.9135 19.0825C22.2075 19.0058 25.2404 18.9925 39.9392 19.0032L57.6115 19.0161L58.2124 19.2265C59.2834 19.6016 59.8526 19.9377 60.5493 20.6062C61.2459 21.2747 61.5962 21.821 61.987 22.8488L62.2063 23.4254L62.2253 33.3468C62.2468 44.541 62.2887 43.6638 61.6758 44.8723C61.3888 45.438 61.23 45.6542 60.7916 46.0763C60.4977 46.3592 60.2114 46.5908 60.1554 46.5908C60.0672 46.5908 60.0509 45.108 60.034 35.5507C60.0152 24.9984 60.0085 24.4942 59.883 24.1378C59.3741 22.6927 58.3685 21.7272 56.8693 21.2442C56.4962 21.1241 55.793 21.1182 39.4561 21.1009C27.7033 21.0885 22.3462 21.105 22.1554 21.1543C21.5416 21.3129 21.513 22.1707 22.1148 22.372C22.2555 22.419 27.819 22.4418 39.2001 22.4418H56.0768L56.5553 22.5835C57.5203 22.8696 58.1901 23.5112 58.4872 24.4343C58.6194 24.8451 58.6365 25.064 58.6365 26.3494V27.8007L55.0137 27.803C50.842 27.8058 50.6445 27.8237 49.7186 28.2838C48.477 28.9007 47.5956 30.0515 47.3608 31.362C47.2046 32.2344 47.2256 33.9843 47.4017 34.7578C47.7458 36.2686 48.7838 37.3734 50.4012 37.9504C50.7252 38.066 51.081 38.0794 54.6779 38.1109L58.6012 38.1454L58.6193 42.9956C58.6369 47.6628 58.6322 47.8661 58.4953 48.3856C58.1766 49.5953 57.2255 50.5337 55.9551 50.8918C55.6083 50.9896 53.9046 51 38.3134 51C22.6441 51 21.0202 50.99 20.6716 50.8907C19.3851 50.5241 18.4745 49.647 18.1012 48.4147C17.9989 48.0772 17.9899 46.8265 18.0068 35.428L18.0256 22.8148L18.2139 22.3279C18.3174 22.0601 18.5319 21.6278 18.6905 21.3673ZM49.9289 29.7125C50.2948 29.4601 50.4461 29.3938 50.9667 29.2583C51.2418 29.1867 52.1313 29.1653 54.9789 29.1618L58.6377 29.1574L58.6012 36.7887L55.2081 36.8066C53.3419 36.8165 51.5991 36.7959 51.3352 36.7609C50.0071 36.585 48.954 35.6028 48.7383 34.339C48.6355 33.7366 48.6556 31.9778 48.7713 31.454C48.9362 30.7073 49.3166 30.1351 49.9289 29.7125Z" fill="#F1F3F4"/>
</svg>
