<svg width="15" height="15" viewBox="0 0 15 15" fill="none" xmlns="http://www.w3.org/2000/svg">
<path fill-rule="evenodd" clip-rule="evenodd" d="M11.2745 10.4957C12.3037 10.835 13.4054 11.0181 14.5516 11.0181C14.7972 11.0181 15 11.2209 15 11.4665V14.5516C15 14.7972 14.7972 15 14.5516 15C6.51395 15 0 8.48605 0 0.448399C0 0.202769 0.202769 0 0.448399 0H3.53347C3.7791 0 3.98187 0.202769 3.98187 0.448399C3.98187 1.5946 4.16498 2.69629 4.50433 3.72547L4.50589 3.73021C4.55556 3.89444 4.5135 4.06078 4.39639 4.17371L4.39321 4.17678L2.6086 5.9695L2.75086 6.24909C4.06636 8.83441 6.32374 10.9432 8.89022 12.2491L9.18552 12.3994L10.8165 10.5962L10.8259 10.5881C10.9512 10.4796 11.1166 10.4479 11.2697 10.4942L11.2745 10.4957Z" fill="white"/>
</svg>
