<svg width="19" height="19" viewBox="0 0 19 19" fill="none" xmlns="http://www.w3.org/2000/svg">
<path fill-rule="evenodd" clip-rule="evenodd" d="M8.57859 0.0227441C6.29519 0.257121 4.23997 1.26118 2.63456 2.9265C1.21048 4.40377 0.347781 6.20461 0.0458249 8.33036C-0.0153615 8.76119 -0.0152501 10.1922 0.0460105 10.6541C0.241049 12.1244 0.761746 13.5399 1.53874 14.7121L1.78954 15.0904L1.19885 16.8372C0.873976 17.7979 0.613405 18.5891 0.619832 18.5955C0.626222 18.602 1.44159 18.3487 2.43176 18.0327C3.42188 17.7167 4.24398 17.4581 4.25862 17.458C4.27325 17.4579 4.38864 17.5247 4.51506 17.6065C4.64145 17.6882 4.93876 17.854 5.17574 17.9749C6.13897 18.4663 7.06279 18.7597 8.18851 18.9317C8.72217 19.0133 10.148 19.0243 10.6776 18.951C11.7364 18.8043 12.7272 18.5011 13.6682 18.036C14.7149 17.5186 15.508 16.9403 16.3102 16.1095C17.0338 15.3602 17.5491 14.6302 18.012 13.6988C19.3359 11.0346 19.329 7.95222 17.993 5.26584C16.5992 2.4631 13.9327 0.536075 10.8076 0.0729729C10.3533 0.00564169 9.03464 -0.0240643 8.57859 0.0227441ZM6.56026 4.42195C6.61033 4.45478 6.68638 4.54457 6.72925 4.62142C6.85092 4.83955 7.7799 7.10524 7.77949 7.18287C7.77867 7.33761 7.58456 7.64415 7.26473 7.99575C6.88305 8.41539 6.79724 8.55994 6.83305 8.72312C6.86032 8.84737 7.19812 9.37602 7.52415 9.80462C8.14839 10.6254 8.99411 11.3431 9.89742 11.8189C10.5072 12.1401 10.7545 12.2277 10.995 12.2077C11.2524 12.1863 11.2906 12.1515 11.7797 11.4929C11.9913 11.2079 12.2102 10.9445 12.2662 10.9076C12.3828 10.8306 12.5786 10.8208 12.7617 10.8826C13.0049 10.9647 15.0435 11.9617 15.1263 12.039C15.1999 12.1076 15.2099 12.1536 15.2099 12.4218C15.2099 12.7816 15.073 13.3717 14.9355 13.6047C14.7785 13.8707 14.5845 14.0657 14.2658 14.278C13.5472 14.7565 12.7969 14.9163 11.9904 14.7626C11.4216 14.6543 10.2561 14.254 9.52543 13.9161C8.01216 13.2162 6.42477 11.7712 5.12503 9.91047C4.58201 9.13306 4.35454 8.69996 4.14442 8.04349C3.76708 6.86462 3.9927 5.72727 4.77995 4.84007C5.00623 4.58506 5.25428 4.43471 5.55252 4.37176C5.80707 4.31804 6.45066 4.35012 6.56026 4.42195Z" fill="#DCDCDC"/>
</svg>
