<svg width="18" height="18" viewBox="0 0 18 18" fill="none" xmlns="http://www.w3.org/2000/svg">
<path fill-rule="evenodd" clip-rule="evenodd" d="M13.5295 12.5948C14.7645 13.002 16.0865 13.2218 17.4619 13.2218C17.7567 13.2218 18 13.4651 18 13.7598V17.4619C18 17.7567 17.7567 18 17.4619 18C7.81674 18 0 10.1833 0 0.538079C0 0.243323 0.243323 0 0.538079 0H4.24017C4.53493 0 4.77825 0.243323 4.77825 0.538079C4.77825 1.91353 4.99797 3.23555 5.40519 4.47056L5.40707 4.47626C5.46667 4.67332 5.4162 4.87294 5.27567 5.00845L5.27185 5.01214L3.13032 7.1634L3.30104 7.49891C4.87964 10.6013 7.58849 13.1319 10.6683 14.699L11.0226 14.8793L12.9798 12.7154L12.991 12.7057C13.1415 12.5755 13.3399 12.5375 13.5236 12.593L13.5295 12.5948Z" fill="#EA5513"/>
</svg>
