<svg width="21" height="18" viewBox="0 0 21 18" fill="none" xmlns="http://www.w3.org/2000/svg">
<path fill-rule="evenodd" clip-rule="evenodd" d="M13.5253 3.33009C10.0643 4.62097 5.79214 6.21331 4.03156 6.86871C2.27099 7.52406 0.7115 8.12258 0.566058 8.19879C-0.0537426 8.52358 -0.178337 8.96377 0.260617 9.27832C0.338427 9.33409 1.55236 9.73161 2.95826 10.1618L5.51439 10.9438L10.9699 7.61511C13.9704 5.78432 16.5359 4.22942 16.6708 4.15977C16.9765 4.00212 17.2926 4.00846 17.3169 4.1727C17.3294 4.25715 16.3319 5.15137 12.7884 8.23217C10.073 10.593 8.23441 12.2287 8.22046 12.2961C8.19474 12.4205 7.9137 16.5997 7.91551 16.8318C7.91687 17.0097 8.01072 17.0173 8.35298 16.8675C8.5103 16.7986 8.88184 16.4926 9.39264 16.0112C9.82979 15.5991 10.4129 15.0505 10.6885 14.792L11.1896 14.3219L13.6155 16.0538C14.9497 17.0064 16.14 17.829 16.2607 17.882C16.5597 18.013 17.019 18.0103 17.2439 17.8761C17.6312 17.6451 17.6281 17.6557 18.6094 13.1745C18.8353 12.1434 19.4652 9.27964 20.0094 6.81067C20.655 3.88092 20.9992 2.21121 21 2.00366C21.0019 1.51905 20.8465 1.22769 20.491 1.04913C20.1274 0.866556 20.151 0.858845 13.5253 3.33009Z" fill="#DCDCDC"/>
</svg>
