<svg width="19" height="20" viewBox="0 0 19 20" fill="none" xmlns="http://www.w3.org/2000/svg">
<path fill-rule="evenodd" clip-rule="evenodd" d="M8.57859 0.996322C6.29519 1.23013 4.23997 2.23174 2.63456 3.893C1.21048 5.36667 0.347781 7.16313 0.0458249 9.28369C-0.0153615 9.71348 -0.0152501 11.141 0.0460105 11.6017C0.241049 13.0685 0.761746 14.4806 1.53874 15.6498L1.78954 16.0273L1.19885 17.7698C0.873976 18.7281 0.613405 19.5175 0.619832 19.5238C0.626222 19.5303 1.44159 19.2776 2.43176 18.9624C3.42188 18.6472 4.24398 18.3892 4.25862 18.3891C4.27325 18.389 4.38864 18.4556 4.51506 18.5372C4.64145 18.6187 4.93876 18.7842 5.17574 18.9047C6.13897 19.3949 7.06279 19.6876 8.18851 19.8592C8.72217 19.9406 10.148 19.9516 10.6776 19.8784C11.7364 19.7321 12.7272 19.4296 13.6682 18.9657C14.7149 18.4496 15.508 17.8727 16.3102 17.0439C17.0338 16.2964 17.5491 15.5682 18.012 14.639C19.3359 11.9814 19.329 8.90647 17.993 6.22664C16.5992 3.43073 13.9327 1.5084 10.8076 1.04643C10.3533 0.979261 9.03464 0.949627 8.57859 0.996322ZM6.56026 5.38481C6.61033 5.41756 6.68638 5.50713 6.72925 5.58379C6.85092 5.80139 7.7799 8.06156 7.77949 8.139C7.77867 8.29336 7.58456 8.59915 7.26473 8.9499C6.88305 9.36852 6.79724 9.51272 6.83305 9.6755C6.86032 9.79945 7.19812 10.3268 7.52415 10.7544C8.14839 11.5731 8.99411 12.2891 9.89742 12.7637C10.5072 13.0841 10.7545 13.1715 10.995 13.1516C11.2524 13.1302 11.2906 13.0955 11.7797 12.4385C11.9913 12.1542 12.2102 11.8915 12.2662 11.8546C12.3828 11.7779 12.5786 11.768 12.7617 11.8297C13.0049 11.9116 15.0435 12.9062 15.1263 12.9833C15.1999 13.0517 15.2099 13.0976 15.2099 13.3651C15.2099 13.7241 15.073 14.3128 14.9355 14.5452C14.7785 14.8105 14.5845 15.0051 14.2658 15.2168C13.5472 15.6941 12.7969 15.8535 11.9904 15.7003C11.4216 15.5922 10.2561 15.1929 9.52543 14.8558C8.01216 14.1576 6.42477 12.7162 5.12503 10.86C4.58201 10.0844 4.35454 9.65239 4.14442 8.99752C3.76708 7.82152 3.9927 6.68695 4.77995 5.80191C5.00623 5.54752 5.25428 5.39753 5.55252 5.33474C5.80707 5.28115 6.45066 5.31316 6.56026 5.38481Z" fill="#DCDCDC"/>
</svg>
